G04 --- HEADER BEGIN --- *
G04 #@! TF.GenerationSoftware,LibrePCB,LibrePCB,0.2.0-unstable*
G04 #@! TF.CreationDate,2023-07-28T15:27:41*
G04 #@! TF.ProjectId,can2usb,565da67e-d1db-4e60-9fc1-0ba8a5c8bd0e,v1*
G04 #@! TF.Part,Single*
G04 #@! TF.SameCoordinates*
G04 #@! TF.FileFunction,Copper,L1,Top*
G04 #@! TF.FilePolarity,Positive*
%FSLAX66Y66*%
%MOMM*%
G01*
G75*
G04 --- HEADER END --- *
G04 --- APERTURE LIST BEGIN --- *
G04 #@! TA.AperFunction,SMDPad,CuDef*
%ADD10R,1.0X1.1*%
%ADD11R,1.1X1.0*%
G04 #@! TA.AperFunction,ComponentPad*
%ADD12O,1.587X2.19*%
%ADD13R,1.587X2.19*%
G04 #@! TA.AperFunction,SMDPad,CuDef*
%ADD14R,1.1X0.22*%
%ADD15R,0.22X1.1*%
%ADD16R,0.75X1.25*%
%ADD17R,0.8X0.75*%
G04 #@! TA.AperFunction,ComponentPad*
%ADD18O,4.0X2.54*%
G04 #@! TA.AperFunction,SMDPad,CuDef*
%ADD19R,1.2X1.2*%
%ADD20R,0.75X0.8*%
%ADD21R,1.4X1.0*%
%ADD22R,1.8X1.6*%
%ADD23R,1.535X0.48*%
%ADD24R,1.1X0.6*%
%ADD25R,2.5X2.0*%
%ADD26R,2.3X0.5*%
G04 #@! TA.AperFunction,ViaPad*
%ADD27C,0.7*%
G04 #@! TA.AperFunction,Conductor*
%ADD28C,0.5*%
%ADD29C,0.3*%
%ADD30C,0.01*%
G04 #@! TD*
G04 --- APERTURE LIST END --- *
G04 --- BOARD BEGIN --- *
D10*
G04 #@! TO.N,GND*
G04 #@! TO.C,C2*
G04 #@! TO.P,C2,2,2*
X14605000Y13792000D03*
G04 #@! TO.N,3V3*
G04 #@! TO.P,C2,1,1*
X14605000Y15492000D03*
D11*
G04 #@! TO.N,GND*
G04 #@! TO.C,C1*
G04 #@! TO.P,C1,2,2*
X10580000Y12419500D03*
G04 #@! TO.N,5V*
G04 #@! TO.P,C1,1,1*
X12280000Y12419500D03*
D10*
G04 #@! TO.N,GND*
G04 #@! TO.C,C8*
G04 #@! TO.P,C8,2,2*
X29415000Y14206000D03*
G04 #@! TO.N,5V*
G04 #@! TO.P,C8,1,1*
X29415000Y12506000D03*
D12*
G04 #@! TO.N,GND*
G04 #@! TO.C,J3*
G04 #@! TO.P,J3,2,2*
X20955000Y1625500D03*
D13*
G04 #@! TO.N,3V3*
G04 #@! TO.P,J3,1,1*
X23495000Y1625500D03*
D12*
G04 #@! TO.N,SWDIO*
G04 #@! TO.P,J3,4,4*
X15875000Y1625500D03*
G04 #@! TO.N,SWCLK*
G04 #@! TO.P,J3,3,3*
X18415000Y1625500D03*
D14*
G04 #@! TO.N,N/C*
G04 #@! TO.C,U1*
G04 #@! TO.P,U1,39,PB3*
X25263750Y8130000D03*
G04 #@! TO.N,GND*
G04 #@! TO.P,U1,47,VSS*
X25263750Y12130000D03*
G04 #@! TO.N,CAN_TX*
G04 #@! TO.P,U1,46,PB9*
X25263750Y11630000D03*
G04 #@! TO.N,N/C*
G04 #@! TO.P,U1,22,PB11*
X16963750Y8130000D03*
D15*
G04 #@! TO.N,D-*
G04 #@! TO.P,U1,32,PA11*
X21863750Y5730000D03*
D14*
G04 #@! TO.N,N/C*
G04 #@! TO.P,U1,15,PA5*
X16963750Y11630000D03*
G04 #@! TO.N,3V3*
G04 #@! TO.P,U1,24,VDD*
X16963750Y7130000D03*
D15*
G04 #@! TO.N,N/C*
G04 #@! TO.P,U1,25,PB12*
X18363750Y5730000D03*
D14*
G04 #@! TO.P,U1,41,PB5*
X25263750Y9130000D03*
G04 #@! TO.N,SWCLK*
G04 #@! TO.P,U1,37,PA14*
X25263750Y7130000D03*
D15*
G04 #@! TO.N,N/C*
G04 #@! TO.P,U1,12,PA2*
X18363750Y14030000D03*
G04 #@! TO.N,D+*
G04 #@! TO.P,U1,33,PA12*
X22363750Y5730000D03*
D14*
G04 #@! TO.N,CAN_RX*
G04 #@! TO.P,U1,45,PB8*
X25263750Y11130000D03*
D15*
G04 #@! TO.N,N/C*
G04 #@! TO.P,U1,4,PC15-OSC32_OUT*
X22363750Y14030000D03*
G04 #@! TO.N,3V3*
G04 #@! TO.P,U1,9,VDDA*
X19863750Y14030000D03*
D14*
G04 #@! TO.N,N/C*
G04 #@! TO.P,U1,21,PB10*
X16963750Y8630000D03*
G04 #@! TO.P,U1,16,PA6*
X16963750Y11130000D03*
G04 #@! TO.P,U1,14,PA4*
X16963750Y12130000D03*
D15*
G04 #@! TO.P,U1,10,PA0*
X19363750Y14030000D03*
G04 #@! TO.P,U1,30,PA9*
X20863750Y5730000D03*
G04 #@! TO.P,U1,11,PA1*
X18863750Y14030000D03*
D14*
G04 #@! TO.N,GND*
G04 #@! TO.P,U1,23,VSS*
X16963750Y7630000D03*
D15*
G04 #@! TO.N,3V3*
G04 #@! TO.P,U1,1,VBAT*
X23863750Y14030000D03*
G04 #@! TO.N,N/C*
G04 #@! TO.P,U1,29,PA8*
X20363750Y5730000D03*
D14*
G04 #@! TO.P,U1,40,PB4*
X25263750Y8630000D03*
D15*
G04 #@! TO.P,U1,6,PF1-OSC_OUT*
X21363750Y14030000D03*
G04 #@! TO.P,U1,7,NRST*
X20863750Y14030000D03*
G04 #@! TO.P,U1,26,PB13*
X18863750Y5730000D03*
D14*
G04 #@! TO.N,LED_RX*
G04 #@! TO.P,U1,19,PB1*
X16963750Y9630000D03*
D15*
G04 #@! TO.N,N/C*
G04 #@! TO.P,U1,2,PC13*
X23363750Y14030000D03*
D14*
G04 #@! TO.N,3V3*
G04 #@! TO.P,U1,48,VDD*
X25263750Y12630000D03*
G04 #@! TO.N,N/C*
G04 #@! TO.P,U1,38,PA15*
X25263750Y7630000D03*
D15*
G04 #@! TO.P,U1,27,PB14*
X19363750Y5730000D03*
G04 #@! TO.N,SWDIO*
G04 #@! TO.P,U1,34,PA13*
X22863750Y5730000D03*
G04 #@! TO.N,N/C*
G04 #@! TO.P,U1,5,PF0-OSC_IN*
X21863750Y14030000D03*
D14*
G04 #@! TO.P,U1,20,PB2*
X16963750Y9130000D03*
G04 #@! TO.N,LED_TX*
G04 #@! TO.P,U1,18,PB0*
X16963750Y10130000D03*
D15*
G04 #@! TO.N,GND*
G04 #@! TO.P,U1,8,VSSA*
X20363750Y14030000D03*
D14*
G04 #@! TO.N,N/C*
G04 #@! TO.P,U1,42,PB6*
X25263750Y9630000D03*
D15*
G04 #@! TO.N,3V3*
G04 #@! TO.P,U1,36,VDDIO2*
X23863750Y5730000D03*
D14*
G04 #@! TO.N,BOOT*
G04 #@! TO.P,U1,44,PF11*
X25263750Y10630000D03*
G04 #@! TO.N,N/C*
G04 #@! TO.P,U1,17,PA7*
X16963750Y10630000D03*
D15*
G04 #@! TO.P,U1,3,PC14-OSC32_IN*
X22863750Y14030000D03*
G04 #@! TO.N,GND*
G04 #@! TO.P,U1,35,VSS*
X23363750Y5730000D03*
G04 #@! TO.N,N/C*
G04 #@! TO.P,U1,28,PB15*
X19863750Y5730000D03*
D14*
G04 #@! TO.P,U1,13,PA3*
X16963750Y12630000D03*
G04 #@! TO.P,U1,43,PB7*
X25263750Y10130000D03*
D15*
G04 #@! TO.P,U1,31,PA10*
X21363750Y5730000D03*
D10*
G04 #@! TO.N,3V3*
G04 #@! TO.C,C9*
G04 #@! TO.P,C9,2,2*
X27666000Y10072000D03*
G04 #@! TO.N,GND*
G04 #@! TO.P,C9,1,1*
X27666000Y8372000D03*
D16*
G04 #@! TO.N,5V*
G04 #@! TO.C,F1*
G04 #@! TO.P,F1,2,2*
X12405000Y10832000D03*
G04 #@! TO.N,N1*
G04 #@! TO.P,F1,1,1*
X10455000Y10832000D03*
D17*
G04 #@! TO.N,BOOT*
G04 #@! TO.C,R1*
G04 #@! TO.P,R1,2,2*
X27825000Y5863000D03*
G04 #@! TO.N,GND*
G04 #@! TO.P,R1,1,1*
X27825000Y4313000D03*
D18*
G04 #@! TO.N,CANL*
G04 #@! TO.C,J2*
G04 #@! TO.P,J2,1,1*
X50000000Y3140000D03*
G04 #@! TO.N,GND_BUS*
G04 #@! TO.P,J2,2,2*
X50000000Y8220000D03*
G04 #@! TO.N,CANH*
G04 #@! TO.P,J2,3,3*
X50000000Y13300000D03*
D19*
G04 #@! TO.N,N2*
G04 #@! TO.C,LED2*
G04 #@! TO.P,LED2,A,A*
X3431250Y1466500D03*
G04 #@! TO.N,GND*
G04 #@! TO.P,LED2,C,C*
X1331250Y1466500D03*
D20*
G04 #@! TO.N,LED_RX*
G04 #@! TO.C,R15*
G04 #@! TO.P,R15,2,2*
X6331250Y1466500D03*
G04 #@! TO.N,N2*
G04 #@! TO.P,R15,1,1*
X4781250Y1466500D03*
D21*
G04 #@! TO.N,CANL*
G04 #@! TO.C,D1*
G04 #@! TO.P,D1,2,2*
X44672166Y3986300D03*
G04 #@! TO.N,GND_BUS*
G04 #@! TO.P,D1,3,COM*
X46872166Y4936300D03*
G04 #@! TO.N,CANH*
G04 #@! TO.P,D1,1,1*
X44672166Y5886300D03*
D22*
G04 #@! TO.N,GND*
G04 #@! TO.C,C7*
G04 #@! TO.P,C7,2,2*
X27548750Y15040250D03*
G04 #@! TO.N,5V*
G04 #@! TO.P,C7,1,1*
X27548750Y12240250D03*
D10*
G04 #@! TO.N,GND_BUS*
G04 #@! TO.C,C13*
G04 #@! TO.P,C13,2,2*
X43884000Y7418000D03*
G04 #@! TO.N,N9*
G04 #@! TO.P,C13,1,1*
X43884000Y9118000D03*
D23*
G04 #@! TO.N,5V*
G04 #@! TO.C,U3*
G04 #@! TO.P,U3,3,VCC*
X31043000Y11443000D03*
G04 #@! TO.N,CAN_RX*
G04 #@! TO.P,U3,5,RXD*
X31043000Y8903000D03*
G04 #@! TO.N,GND_BUS*
G04 #@! TO.P,U3,11,GND2*
X40507000Y2553000D03*
G04 #@! TO.N,N6*
G04 #@! TO.P,U3,19,V_ISOOUT*
X40507000Y12713000D03*
G04 #@! TO.N,GND*
G04 #@! TO.P,U3,9,AUX_IN*
X31043000Y3823000D03*
G04 #@! TO.N,N8*
G04 #@! TO.P,U3,12,R_S*
X40507000Y3823000D03*
G04 #@! TO.N,N10*
G04 #@! TO.P,U3,20,GND_ISO*
X40507000Y13983000D03*
G04 #@! TO.N,CANL*
G04 #@! TO.P,U3,13,CANL*
X40507000Y5093000D03*
G04 #@! TO.N,N9*
G04 #@! TO.P,U3,16,V_ISOIN*
X40507000Y8903000D03*
G04 #@! TO.N,CANH*
G04 #@! TO.P,U3,14,CANH*
X40507000Y6363000D03*
G04 #@! TO.N,N/C*
G04 #@! TO.P,U3,17,AUX_OUT*
X40507000Y10173000D03*
G04 #@! TO.N,GND_BUS*
G04 #@! TO.P,U3,15,GND2*
X40507000Y7633000D03*
G04 #@! TO.N,GND*
G04 #@! TO.P,U3,2,GND1*
X31043000Y12713000D03*
G04 #@! TO.N,N/C*
G04 #@! TO.P,U3,8,STBY*
X31043000Y5093000D03*
G04 #@! TO.N,3V3*
G04 #@! TO.P,U3,4,V_IO*
X31043000Y10173000D03*
G04 #@! TO.N,N10*
G04 #@! TO.P,U3,18,GND_ISO*
X40507000Y11443000D03*
G04 #@! TO.N,CAN_TX*
G04 #@! TO.P,U3,7,TXD*
X31043000Y6363000D03*
G04 #@! TO.N,GND*
G04 #@! TO.P,U3,1,GND1*
X31043000Y13983000D03*
G04 #@! TO.P,U3,10,GND1*
X31043000Y2553000D03*
G04 #@! TO.N,N/C*
G04 #@! TO.P,U3,6,SILENT*
X31043000Y7633000D03*
D20*
G04 #@! TO.N,LED_TX*
G04 #@! TO.C,R10*
G04 #@! TO.P,R10,2,2*
X6331250Y14959750D03*
G04 #@! TO.N,N3*
G04 #@! TO.P,R10,1,1*
X4781250Y14959750D03*
D10*
G04 #@! TO.N,GND_BUS*
G04 #@! TO.C,C14*
G04 #@! TO.P,C14,2,2*
X42294000Y7418000D03*
G04 #@! TO.N,N9*
G04 #@! TO.P,C14,1,1*
X42294000Y9118000D03*
D20*
G04 #@! TO.N,N10*
G04 #@! TO.C,L2*
G04 #@! TO.P,L2,2,2*
X43586000Y11130000D03*
G04 #@! TO.N,GND_BUS*
G04 #@! TO.P,L2,1,1*
X45136000Y11130000D03*
G04 #@! TO.N,N6*
G04 #@! TO.C,L1*
G04 #@! TO.P,L1,2,2*
X43586000Y13038000D03*
G04 #@! TO.N,N9*
G04 #@! TO.P,L1,1,1*
X45136000Y13038000D03*
D10*
G04 #@! TO.N,GND*
G04 #@! TO.C,C3*
G04 #@! TO.P,C3,2,2*
X25599000Y15478000D03*
G04 #@! TO.N,3V3*
G04 #@! TO.P,C3,1,1*
X25599000Y13778000D03*
D17*
G04 #@! TO.C,R2*
G04 #@! TO.P,R2,2,2*
X26394000Y4313000D03*
G04 #@! TO.N,BOOT*
G04 #@! TO.P,R2,1,1*
X26394000Y5863000D03*
D10*
G04 #@! TO.N,GND*
G04 #@! TO.C,C5*
G04 #@! TO.P,C5,2,2*
X15398750Y8508000D03*
G04 #@! TO.N,3V3*
G04 #@! TO.P,C5,1,1*
X15398750Y6808000D03*
G04 #@! TO.N,N10*
G04 #@! TO.C,C12*
G04 #@! TO.P,C12,2,2*
X42294000Y11234000D03*
G04 #@! TO.N,N6*
G04 #@! TO.P,C12,1,1*
X42294000Y12934000D03*
D19*
G04 #@! TO.N,N3*
G04 #@! TO.C,LED1*
G04 #@! TO.P,LED1,A,A*
X3431250Y14959750D03*
G04 #@! TO.N,GND*
G04 #@! TO.P,LED1,C,C*
X1331250Y14959750D03*
D24*
G04 #@! TO.N,5V*
G04 #@! TO.C,U4*
G04 #@! TO.P,U4,5,VBUS*
X13147500Y8292000D03*
G04 #@! TO.N,GND*
G04 #@! TO.P,U4,2,GND*
X10347500Y8292000D03*
G04 #@! TO.N,D-*
G04 #@! TO.P,U4,6,OUT1*
X13147500Y9242000D03*
G04 #@! TO.N,N4*
G04 #@! TO.P,U4,1,IN1*
X10347500Y9242000D03*
G04 #@! TO.N,N5*
G04 #@! TO.P,U4,3,IN2*
X10347500Y7342000D03*
G04 #@! TO.N,D+*
G04 #@! TO.P,U4,4,OUT2*
X13147500Y7342000D03*
D10*
G04 #@! TO.N,3V3*
G04 #@! TO.C,C10*
G04 #@! TO.P,C10,2,2*
X29256000Y10072000D03*
G04 #@! TO.N,GND*
G04 #@! TO.P,C10,1,1*
X29256000Y8372000D03*
D24*
G04 #@! TO.N,3V3*
G04 #@! TO.C,U2*
G04 #@! TO.P,U2,5,OUT*
X13147500Y15592000D03*
G04 #@! TO.N,N/C*
G04 #@! TO.P,U2,3*
X10347500Y13692000D03*
G04 #@! TO.N,GND*
G04 #@! TO.P,U2,2,GND*
X10347500Y14642000D03*
G04 #@! TO.N,5V*
G04 #@! TO.P,U2,1,IN*
X10347500Y15592000D03*
G04 #@! TO.N,N/C*
G04 #@! TO.P,U2,4*
X13147500Y13692000D03*
D25*
G04 #@! TO.N,GND*
G04 #@! TO.C,J1*
G04 #@! TO.P,J1,SHIELD3,Shield*
X2250000Y3770000D03*
G04 #@! TO.P,J1,SHIELD2,Shield*
X7750000Y12670000D03*
G04 #@! TO.P,J1,SHIELD4,Shield*
X7750000Y3770000D03*
G04 #@! TO.P,J1,SHIELD1,Shield*
X2250000Y12670000D03*
D26*
G04 #@! TO.N,N4*
G04 #@! TO.P,J1,2,D-*
X7750000Y9020000D03*
G04 #@! TO.N,N1*
G04 #@! TO.P,J1,1,VBUS*
X7750000Y9820000D03*
G04 #@! TO.N,N5*
G04 #@! TO.P,J1,3,D+*
X7750000Y8220000D03*
G04 #@! TO.N,GND*
G04 #@! TO.P,J1,5,GND*
X7750000Y6620000D03*
G04 #@! TO.N,N/C*
G04 #@! TO.P,J1,4,ID*
X7750000Y7420000D03*
D22*
G04 #@! TO.N,GND_BUS*
G04 #@! TO.C,C11*
G04 #@! TO.P,C11,2,2*
X46746000Y11002000D03*
G04 #@! TO.N,N9*
G04 #@! TO.P,C11,1,1*
X46746000Y13802000D03*
D17*
G04 #@! TO.N,GND_BUS*
G04 #@! TO.C,R3*
G04 #@! TO.P,R3,2,2*
X42135000Y2405000D03*
G04 #@! TO.N,N8*
G04 #@! TO.P,R3,1,1*
X42135000Y3955000D03*
D11*
G04 #@! TO.N,GND*
G04 #@! TO.C,C6*
G04 #@! TO.P,C6,2,2*
X21011250Y15595000D03*
G04 #@! TO.N,3V3*
G04 #@! TO.P,C6,1,1*
X19311250Y15595000D03*
G04 #@! TO.N,GND*
G04 #@! TO.C,C4*
G04 #@! TO.P,C4,2,2*
X22803750Y4165000D03*
G04 #@! TO.N,3V3*
G04 #@! TO.P,C4,1,1*
X24503750Y4165000D03*
D27*
G04 #@! TD.C*
G04 #@! TD.P*
G04 #@! TO.N,GND*
X24009000Y9699000D03*
X18732500Y12261250D03*
X2063750Y6228750D03*
D28*
G04 #@! TO.N,N1*
X7750000Y9820000D02*
X8830000Y9820000D01*
X8830000Y9820000D02*
X9842000Y10832000D01*
X10455000Y10832000D02*
X9842000Y10832000D01*
D27*
G04 #@! TO.N,GND*
X22860000Y15594500D03*
D29*
G04 #@! TO.N,BOOT*
X26394000Y5863000D02*
X26394000Y10176000D01*
X26394000Y5863000D02*
X27825000Y5863000D01*
X25940000Y10630000D02*
X26394000Y10176000D01*
X25263750Y10630000D02*
X25940000Y10630000D01*
D27*
G04 #@! TO.N,GND*
X16986250Y14166250D03*
X32873500Y3990000D03*
D29*
G04 #@! TO.N,N10*
X42135000Y11130000D02*
X42294000Y11234000D01*
X39278000Y11443000D02*
X39114000Y11607000D01*
X40339000Y13992000D02*
X40507000Y13983000D01*
X42135000Y11443000D02*
X42294000Y11234000D01*
X43586000Y11130000D02*
X42135000Y11130000D01*
X39114000Y13833000D02*
X39273000Y13992000D01*
X39114000Y11607000D02*
X39114000Y13833000D01*
X40507000Y11443000D02*
X42135000Y11443000D01*
X39273000Y13992000D02*
X40339000Y13992000D01*
X40507000Y11443000D02*
X39278000Y11443000D01*
D27*
G04 #@! TO.N,GND*
X18732500Y9880000D03*
D29*
G04 #@! TO.N,N8*
X41976000Y3823000D02*
X42135000Y3955000D01*
X40507000Y3823000D02*
X41976000Y3823000D01*
D27*
G04 #@! TO.N,GND_BUS*
X46274500Y9417500D03*
G04 #@! TO.N,SWDIO*
X23098000Y7260500D03*
D29*
X22863750Y5730000D02*
X22863750Y7026250D01*
X22863750Y7026250D02*
X23098000Y7260500D01*
D27*
G04 #@! TO.N,GND*
X8414000Y15753500D03*
G04 #@! TO.N,GND_BUS*
X53340000Y15595000D03*
G04 #@! TO.N,GND*
X32868750Y12908500D03*
G04 #@! TO.N,GND_BUS*
X46678000Y975500D03*
X43262500Y3840500D03*
D29*
G04 #@! TO.N,GND*
X20363750Y14030000D02*
X20363750Y14947500D01*
X20363750Y14947500D02*
X21011250Y15595000D01*
D27*
G04 #@! TO.N,GND_BUS*
X53340000Y672500D03*
G04 #@! TO.N,GND*
X33025500Y671000D03*
X22382750Y8531000D03*
G04 #@! TO.N,GND_BUS*
X38737000Y6856500D03*
D29*
G04 #@! TO.N,N4*
X10327500Y9222000D02*
X10347500Y9242000D01*
X9338000Y9020000D02*
X9540000Y9222000D01*
X7750000Y9020000D02*
X9338000Y9020000D01*
X9540000Y9222000D02*
X10327500Y9222000D01*
D27*
G04 #@! TO.N,CAN_TX*
X32545500Y6383500D03*
X23653250Y11705250D03*
D29*
X23887500Y11630000D02*
X23653250Y11705250D01*
X31043000Y6363000D02*
X32525000Y6363000D01*
X25263750Y11630000D02*
X23887500Y11630000D01*
X32525000Y6363000D02*
X32545500Y6383500D01*
D27*
G04 #@! TO.N,GND*
X20670000Y12084000D03*
D29*
G04 #@! TO.N,GND_BUS*
X46587000Y11130000D02*
X46746000Y11002000D01*
X45136000Y11130000D02*
X46587000Y11130000D01*
D27*
X38889000Y15688500D03*
D29*
G04 #@! TO.N,N2*
X3431250Y1466500D02*
X4781250Y1466500D01*
D27*
G04 #@! TO.N,LED_RX*
X7302500Y1466500D03*
X15160750Y10038750D03*
D29*
X7302500Y1466500D02*
X6331250Y1466500D01*
X15569500Y9630000D02*
X15160750Y10038750D01*
X16963750Y9630000D02*
X15569500Y9630000D01*
G04 #@! TO.N,N9*
X45136000Y13038000D02*
X44977000Y13018000D01*
X44977000Y13018000D02*
X44361000Y12402000D01*
X40507000Y8903000D02*
X41976000Y8903000D01*
X41976000Y8903000D02*
X42294000Y9118000D01*
X44361000Y9754000D02*
X43884000Y9118000D01*
X42294000Y9118000D02*
X43884000Y9118000D01*
X44361000Y12402000D02*
X44361000Y9754000D01*
X46746000Y13038000D02*
X46746000Y13802000D01*
X45136000Y13038000D02*
X46746000Y13038000D01*
D27*
G04 #@! TO.N,GND*
X25872250Y832000D03*
G04 #@! TO.N,D-*
X14128750Y9085500D03*
X20796250Y8768750D03*
D29*
X21863750Y6510000D02*
X20796250Y7577500D01*
X13967250Y9242000D02*
X14128750Y9085500D01*
X20796250Y8768750D02*
X20796250Y7577500D01*
X21863750Y5730000D02*
X21863750Y6510000D01*
X13147500Y9242000D02*
X13967250Y9242000D01*
D27*
G04 #@! TO.N,LED_TX*
X7302500Y14959750D03*
X14526250Y12579250D03*
D29*
X7302500Y14959750D02*
X6331250Y14959750D01*
X15820500Y10569500D02*
X15820500Y11289000D01*
X16963750Y10130000D02*
X16260000Y10130000D01*
X16260000Y10130000D02*
X15820500Y10569500D01*
X15820500Y11289000D02*
X14530250Y12579250D01*
X14530250Y12579250D02*
X14526250Y12579250D01*
G04 #@! TO.N,CANH*
X44672166Y5886300D02*
X44679000Y6360000D01*
X44668866Y5883000D02*
X44672166Y5886300D01*
X42135000Y5883000D02*
X44668866Y5883000D01*
X50000000Y11681000D02*
X44679000Y6360000D01*
X50000000Y13300000D02*
X50000000Y11681000D01*
X41655000Y6363000D02*
X42135000Y5883000D01*
X40507000Y6363000D02*
X41655000Y6363000D01*
D27*
G04 #@! TO.N,GND_BUS*
X42310000Y15596000D03*
X38737000Y3839000D03*
G04 #@! TO.N,GND*
X13175000Y6228250D03*
G04 #@! TO.N,GND_BUS*
X44843500Y14163500D03*
G04 #@! TO.N,GND*
X18258500Y4322250D03*
G04 #@! TO.N,GND_BUS*
X43179000Y2406000D03*
G04 #@! TO.N,GND*
X21113750Y10276750D03*
X32863250Y15753500D03*
D29*
G04 #@! TO.N,N6*
X40507000Y12713000D02*
X42135000Y12713000D01*
X42135000Y12713000D02*
X42294000Y12934000D01*
X42135000Y13038000D02*
X42294000Y12934000D01*
X43586000Y13038000D02*
X42135000Y13038000D01*
G04 #@! TO.N,GND_BUS*
X40507000Y7633000D02*
X41976000Y7633000D01*
X42294000Y7418000D02*
X43884000Y7418000D01*
X41976000Y7633000D02*
X42294000Y7418000D01*
D27*
G04 #@! TO.N,GND*
X29370250Y15597500D03*
X28416250Y7177750D03*
D29*
G04 #@! TO.N,3V3*
X23863750Y4805000D02*
X24503750Y4165000D01*
X19843750Y9562500D02*
X19843750Y8768750D01*
X27666000Y10072000D02*
X27293000Y10072000D01*
X23863750Y8558750D02*
X22860000Y9562500D01*
X15720750Y7130000D02*
X15398750Y6808000D01*
X19843750Y9562500D02*
X22860000Y9562500D01*
D28*
X19311250Y15595000D02*
X14758000Y15595000D01*
D29*
X25599000Y12948000D02*
X25599000Y13778000D01*
X23863750Y5730000D02*
X23863750Y8558750D01*
X19843750Y12896750D02*
X19843750Y9562500D01*
D28*
X14346000Y15592000D02*
X14605000Y15492000D01*
X13147500Y15592000D02*
X14346000Y15592000D01*
D29*
X23863750Y5730000D02*
X23863750Y4805000D01*
X31043000Y10173000D02*
X29357000Y10173000D01*
X26166000Y12948000D02*
X26235000Y12879000D01*
X24651750Y4313000D02*
X26394000Y4313000D01*
X25281000Y12948000D02*
X25599000Y12948000D01*
X19895000Y12948000D02*
X19843750Y12896750D01*
X19863750Y15042500D02*
X19311250Y15595000D01*
X23863750Y14030000D02*
X23863750Y13055500D01*
X23971250Y12948000D02*
X19895000Y12948000D01*
X23863750Y13055500D02*
X23971250Y12948000D01*
X24503750Y4165000D02*
X24503750Y2634250D01*
X26235000Y12879000D02*
X26235000Y11130000D01*
D28*
X14605000Y15492000D02*
X14543000Y15492000D01*
D29*
X25281000Y12948000D02*
X23971250Y12948000D01*
X25281000Y12948000D02*
X26166000Y12948000D01*
X16963750Y7130000D02*
X15720750Y7130000D01*
X25263750Y12630000D02*
X25281000Y12630000D01*
X29256000Y10072000D02*
X27666000Y10072000D01*
X19863750Y14030000D02*
X19863750Y15042500D01*
X16963750Y7130000D02*
X18205000Y7130000D01*
X18205000Y7130000D02*
X19843750Y8768750D01*
D28*
X14543000Y15492000D02*
X14758000Y15595000D01*
D29*
X24503750Y2634250D02*
X23495000Y1625500D01*
X19843750Y12896750D02*
X19843750Y14010000D01*
X19843750Y14010000D02*
X19863750Y14030000D01*
X24503750Y4165000D02*
X24651750Y4313000D01*
X27293000Y10072000D02*
X26235000Y11130000D01*
X29357000Y10173000D02*
X29256000Y10072000D01*
X25281000Y12630000D02*
X25281000Y12948000D01*
D27*
G04 #@! TO.N,GND_BUS*
X45173500Y9395000D03*
D29*
G04 #@! TO.N,N5*
X9381000Y7950000D02*
X9381000Y7473000D01*
X7750000Y8220000D02*
X9111000Y8220000D01*
X9540000Y7314000D02*
X10319500Y7314000D01*
X10319500Y7314000D02*
X10347500Y7342000D01*
X9381000Y7473000D02*
X9540000Y7314000D01*
X9111000Y8220000D02*
X9381000Y7950000D01*
D27*
G04 #@! TO.N,GND*
X19843750Y6863250D03*
G04 #@! TO.N,GND_BUS*
X59055000Y990000D03*
G04 #@! TO.N,GND*
X24761750Y5418500D03*
D29*
X16963750Y7630000D02*
X16276750Y7630000D01*
X16276750Y7630000D02*
X15398750Y8508000D01*
D27*
G04 #@! TO.N,D+*
X14128750Y7339500D03*
X21827750Y7577500D03*
D29*
X22363750Y5730000D02*
X22363750Y7041500D01*
X13147500Y7342000D02*
X14128750Y7342000D01*
X14128750Y7342000D02*
X14128750Y7339500D01*
X22363750Y7041500D02*
X21827750Y7577500D01*
D27*
G04 #@! TO.N,GND_BUS*
X59055000Y15595000D03*
G04 #@! TO.N,GND*
X5080000Y13213750D03*
G04 #@! TO.N,SWCLK*
X25241250Y6546500D03*
D29*
X25263750Y7130000D02*
X25263750Y6523750D01*
X25263750Y6523750D02*
X25241250Y6546500D01*
D27*
G04 #@! TO.N,GND*
X7457250Y5593500D03*
D29*
X23363750Y5730000D02*
X23363750Y4725000D01*
X23363750Y4725000D02*
X22803750Y4165000D01*
X20955000Y1625500D02*
X20955000Y2895000D01*
X22225000Y4165000D02*
X20955000Y2895000D01*
X22803750Y4165000D02*
X22225000Y4165000D01*
D27*
X22542000Y11308250D03*
D29*
G04 #@! TO.N,CANL*
X45792000Y3975000D02*
X44683466Y3975000D01*
X43243000Y5093000D02*
X44361000Y3975000D01*
X50000000Y3140000D02*
X46627000Y3140000D01*
X44683466Y3975000D02*
X44672166Y3986300D01*
X44672166Y3986300D02*
X44361000Y3975000D01*
X46627000Y3140000D02*
X45792000Y3975000D01*
X40507000Y5093000D02*
X43243000Y5093000D01*
D27*
G04 #@! TO.N,5V*
X27147750Y13544500D03*
X13176000Y11309000D03*
X27941500Y13544500D03*
X13731250Y11309000D03*
D28*
X12139500Y8292000D02*
X11845500Y8586000D01*
X12405000Y10355000D02*
X12405000Y10832000D01*
X12405000Y11309000D02*
X12280000Y11275000D01*
X13147500Y8292000D02*
X12139500Y8292000D01*
X27496500Y12029000D02*
X27507000Y12177500D01*
X27507000Y12506000D02*
X29415000Y12506000D01*
X27496500Y12029000D02*
X27548750Y12240250D01*
X12405000Y11309000D02*
X12405000Y10832000D01*
X27507000Y12177500D02*
X27507000Y12506000D01*
X27507000Y12177500D02*
X27507000Y13544500D01*
X12280000Y12683000D02*
X12280000Y12419500D01*
X13176000Y11309000D02*
X12405000Y11309000D01*
X12280000Y11275000D02*
X12280000Y12419500D01*
X29415000Y12506000D02*
X29415000Y11925000D01*
X27507000Y13544500D02*
X27147750Y13544500D01*
X11845500Y8586000D02*
X11845500Y9795500D01*
X31043000Y11443000D02*
X30001000Y11443000D01*
X11845500Y9795500D02*
X12405000Y10355000D01*
X11199500Y15592000D02*
X11766000Y15025500D01*
X29897000Y11443000D02*
X29415000Y11925000D01*
X11766000Y15025500D02*
X11766000Y13197000D01*
X11766000Y13197000D02*
X12280000Y12683000D01*
X27507000Y13544500D02*
X27941500Y13544500D01*
X30001000Y11443000D02*
X29897000Y11443000D01*
X13176000Y11309000D02*
X13731250Y11309000D01*
X10347500Y15592000D02*
X11199500Y15592000D01*
D27*
G04 #@! TO.N,GND_BUS*
X47395500Y7020500D03*
G04 #@! TO.N,GND*
X2063750Y10038750D03*
X12064250Y2421750D03*
X5080000Y3212500D03*
G04 #@! TO.N,GND_BUS*
X38737000Y822000D03*
X38737000Y9874500D03*
D29*
G04 #@! TO.N,N3*
X4781250Y14959750D02*
X3431250Y14959750D01*
D27*
G04 #@! TO.N,CAN_RX*
X32390250Y8925500D03*
X23812250Y10752750D03*
D29*
X31043000Y8903000D02*
X32367750Y8903000D01*
X25263750Y11130000D02*
X24189500Y11130000D01*
X32367750Y8903000D02*
X32390250Y8925500D01*
X24189500Y11130000D02*
X23812250Y10752750D01*
D30*
G04 #@! TA.AperFunction,Conductor*
G04 #@! TO.N,GND_BUS*
G36*
X38160000Y399999D02*
X38179500Y340672D01*
X38259999Y300000D01*
X49271962Y300000D01*
X49271962Y1570000D01*
X49268048Y1570154D01*
X49028307Y1589021D01*
X49020583Y1590245D01*
X48788667Y1645923D01*
X48781211Y1648346D01*
X48560865Y1739616D01*
X48553883Y1743174D01*
X48350527Y1867790D01*
X48344191Y1872393D01*
X48162830Y2027290D01*
X48157290Y2032830D01*
X48002393Y2214191D01*
X47997790Y2220527D01*
X47873174Y2423883D01*
X47869616Y2430866D01*
X47787848Y2628269D01*
X47747129Y2675618D01*
X47695461Y2690000D01*
X46630570Y2690000D01*
X46623466Y2690508D01*
X46582885Y2696343D01*
X46575786Y2697106D01*
X46538486Y2699773D01*
X46519491Y2703906D01*
X46512345Y2705730D01*
X46493716Y2711199D01*
X46459686Y2726740D01*
X46453092Y2729471D01*
X46418040Y2742545D01*
X46400994Y2751853D01*
X46394634Y2755628D01*
X46378306Y2766121D01*
X46350042Y2790613D01*
X46344481Y2795094D01*
X46311667Y2819657D01*
X46306272Y2824332D01*
X45781650Y3348954D01*
X45725911Y3377116D01*
X45664333Y3366718D01*
X45621839Y3323641D01*
X45618441Y3316971D01*
X45609308Y3304401D01*
X45554065Y3249158D01*
X45541492Y3240023D01*
X45471884Y3204556D01*
X45457097Y3199752D01*
X45376048Y3186915D01*
X45368235Y3186300D01*
X43976097Y3186300D01*
X43968284Y3186915D01*
X43887235Y3199752D01*
X43872448Y3204556D01*
X43802840Y3240023D01*
X43790267Y3249158D01*
X43735024Y3304401D01*
X43725889Y3316974D01*
X43690422Y3386582D01*
X43685618Y3401369D01*
X43672781Y3482418D01*
X43672166Y3490231D01*
X43672166Y3986017D01*
X43642877Y4056727D01*
X43085893Y4613711D01*
X43015183Y4643000D01*
X42871255Y4643000D01*
X42811928Y4623500D01*
X42775739Y4572605D01*
X42782155Y4497603D01*
X42816744Y4429718D01*
X42821548Y4414931D01*
X42834385Y4333882D01*
X42835000Y4326069D01*
X42835000Y3583931D01*
X42834385Y3576118D01*
X42821548Y3495069D01*
X42816744Y3480282D01*
X42781277Y3410674D01*
X42772142Y3398101D01*
X42716899Y3342858D01*
X42704326Y3333723D01*
X42634718Y3298256D01*
X42619931Y3293452D01*
X42538882Y3280615D01*
X42531069Y3280000D01*
X41738931Y3280000D01*
X41731118Y3280615D01*
X41650069Y3293452D01*
X41635282Y3298256D01*
X41565676Y3333722D01*
X41561460Y3336785D01*
X41502001Y3355879D01*
X41451375Y3339237D01*
X41450836Y3340295D01*
X41444006Y3336815D01*
X41443906Y3336782D01*
X41443823Y3336722D01*
X41374218Y3301256D01*
X41359431Y3296452D01*
X41278382Y3283615D01*
X41270569Y3283000D01*
X39743431Y3283000D01*
X39735618Y3283615D01*
X39654569Y3296452D01*
X39639782Y3301256D01*
X39570174Y3336723D01*
X39557601Y3345858D01*
X39502358Y3401101D01*
X39493223Y3413674D01*
X39457756Y3483282D01*
X39452952Y3498069D01*
X39440115Y3579118D01*
X39439500Y3586931D01*
X39439500Y4059069D01*
X39440115Y4066882D01*
X39452952Y4147931D01*
X39457756Y4162718D01*
X39493223Y4232326D01*
X39502358Y4244899D01*
X39557601Y4300142D01*
X39570174Y4309277D01*
X39639782Y4344744D01*
X39654569Y4349548D01*
X39715710Y4359232D01*
X39771256Y4387773D01*
X39799039Y4443702D01*
X39788221Y4505208D01*
X39715710Y4556768D01*
X39654569Y4566452D01*
X39639782Y4571256D01*
X39570174Y4606723D01*
X39557601Y4615858D01*
X39502358Y4671101D01*
X39493223Y4683674D01*
X39457756Y4753282D01*
X39452952Y4768069D01*
X39440115Y4849118D01*
X39439500Y4856931D01*
X39439500Y5329069D01*
X39440115Y5336882D01*
X39452952Y5417931D01*
X39457756Y5432718D01*
X39493223Y5502326D01*
X39502358Y5514899D01*
X39557601Y5570142D01*
X39570174Y5579277D01*
X39639782Y5614744D01*
X39654569Y5619548D01*
X39715710Y5629232D01*
X39771256Y5657773D01*
X39799039Y5713702D01*
X39788221Y5775208D01*
X39715710Y5826768D01*
X39654569Y5836452D01*
X39639782Y5841256D01*
X39570174Y5876723D01*
X39557601Y5885858D01*
X39502358Y5941101D01*
X39493223Y5953674D01*
X39457756Y6023282D01*
X39452952Y6038069D01*
X39440115Y6119118D01*
X39439500Y6126931D01*
X39439500Y6599069D01*
X39440115Y6606882D01*
X39452952Y6687931D01*
X39457756Y6702718D01*
X39493223Y6772326D01*
X39502358Y6784899D01*
X39557601Y6840142D01*
X39570174Y6849277D01*
X39639782Y6884744D01*
X39654569Y6889548D01*
X39735618Y6902385D01*
X39743431Y6903000D01*
X41270569Y6903000D01*
X41278382Y6902385D01*
X41359431Y6889548D01*
X41374218Y6884744D01*
X41443826Y6849277D01*
X41462769Y6835514D01*
X41464582Y6838010D01*
X41524962Y6813000D01*
X41651430Y6813000D01*
X41658534Y6812492D01*
X41699115Y6806657D01*
X41706214Y6805894D01*
X41743514Y6803227D01*
X41762509Y6799094D01*
X41769655Y6797270D01*
X41788284Y6791801D01*
X41822314Y6776260D01*
X41828908Y6773529D01*
X41863960Y6760455D01*
X41881006Y6751147D01*
X41887366Y6747372D01*
X41903694Y6736879D01*
X41931958Y6712387D01*
X41937519Y6707906D01*
X41970333Y6683343D01*
X41975728Y6678668D01*
X42292107Y6362289D01*
X42362817Y6333000D01*
X43578317Y6333000D01*
X43637644Y6352500D01*
X43677085Y6417356D01*
X43685618Y6471231D01*
X43690422Y6486018D01*
X43725889Y6555626D01*
X43735024Y6568199D01*
X43790267Y6623442D01*
X43802840Y6632577D01*
X43872448Y6668044D01*
X43887235Y6672848D01*
X43968284Y6685685D01*
X43976097Y6686300D01*
X44327483Y6686300D01*
X44398193Y6715589D01*
X49248818Y11566214D01*
X49276980Y11621953D01*
X49266582Y11683531D01*
X49221678Y11726932D01*
X49185953Y11736615D01*
X49028308Y11749021D01*
X49020583Y11750245D01*
X48788667Y11805923D01*
X48781211Y11808346D01*
X48560865Y11899616D01*
X48553883Y11903174D01*
X48350527Y12027790D01*
X48344191Y12032393D01*
X48162830Y12187290D01*
X48157290Y12192830D01*
X48002393Y12374191D01*
X47997790Y12380527D01*
X47873174Y12583883D01*
X47869616Y12590865D01*
X47842818Y12655563D01*
X47802099Y12702912D01*
X47734787Y12716063D01*
X47649880Y12702615D01*
X47642069Y12702000D01*
X47076409Y12702000D01*
X47022356Y12686132D01*
X47019640Y12684387D01*
X47008206Y12675829D01*
X46994693Y12664120D01*
X46982782Y12656465D01*
X46966519Y12649038D01*
X46953994Y12642199D01*
X46938954Y12632533D01*
X46926074Y12626651D01*
X46908923Y12621615D01*
X46895556Y12616629D01*
X46879290Y12609201D01*
X46865698Y12605210D01*
X46848005Y12602666D01*
X46834063Y12599633D01*
X46816907Y12594595D01*
X46802890Y12592580D01*
X46785006Y12592580D01*
X46770775Y12591562D01*
X46749535Y12588508D01*
X46742430Y12588000D01*
X45879356Y12588000D01*
X45820029Y12568500D01*
X45790256Y12533400D01*
X45757275Y12468672D01*
X45748142Y12456101D01*
X45692899Y12400858D01*
X45680326Y12391723D01*
X45610718Y12356256D01*
X45595931Y12351452D01*
X45514882Y12338615D01*
X45507069Y12338000D01*
X44974818Y12338000D01*
X44904108Y12308711D01*
X44840289Y12244892D01*
X44811000Y12174182D01*
X44811000Y9757572D01*
X44810492Y9750466D01*
X44810195Y9748402D01*
X44809639Y9733031D01*
X44808297Y9714505D01*
X44800366Y9678205D01*
X44799080Y9671093D01*
X44793790Y9634298D01*
X44788565Y9616505D01*
X44785559Y9607488D01*
X44779052Y9590088D01*
X44761211Y9557485D01*
X44757973Y9551022D01*
X44742534Y9517216D01*
X44732495Y9501594D01*
X44723713Y9488957D01*
X44722720Y9487143D01*
X44718856Y9481142D01*
X44703999Y9461332D01*
X44684000Y9401333D01*
X44684000Y8571931D01*
X44683385Y8564118D01*
X44670548Y8483069D01*
X44665744Y8468282D01*
X44630277Y8398674D01*
X44621142Y8386101D01*
X44565899Y8330858D01*
X44553326Y8321723D01*
X44483718Y8286256D01*
X44468931Y8281452D01*
X44387882Y8268615D01*
X44380069Y8268000D01*
X43387931Y8268000D01*
X43380118Y8268615D01*
X43299069Y8281452D01*
X43284282Y8286256D01*
X43214674Y8321723D01*
X43202101Y8330858D01*
X43159710Y8373249D01*
X43103971Y8401411D01*
X43018290Y8373249D01*
X42975899Y8330858D01*
X42963326Y8321723D01*
X42893718Y8286256D01*
X42878931Y8281452D01*
X42797882Y8268615D01*
X42790069Y8268000D01*
X41797931Y8268000D01*
X41790118Y8268615D01*
X41709069Y8281452D01*
X41694282Y8286256D01*
X41624674Y8321723D01*
X41612101Y8330858D01*
X41551295Y8391664D01*
X41549089Y8389458D01*
X41509653Y8417917D01*
X41433985Y8411709D01*
X41374218Y8381256D01*
X41359431Y8376452D01*
X41278382Y8363615D01*
X41270569Y8363000D01*
X39743431Y8363000D01*
X39735618Y8363615D01*
X39654569Y8376452D01*
X39639782Y8381256D01*
X39570174Y8416723D01*
X39557601Y8425858D01*
X39502358Y8481101D01*
X39493223Y8493674D01*
X39457756Y8563282D01*
X39452952Y8578069D01*
X39440115Y8659118D01*
X39439500Y8666931D01*
X39439500Y9139069D01*
X39440115Y9146882D01*
X39452952Y9227931D01*
X39457756Y9242718D01*
X39493223Y9312326D01*
X39502358Y9324899D01*
X39557601Y9380142D01*
X39570174Y9389277D01*
X39639782Y9424744D01*
X39654569Y9429548D01*
X39715710Y9439232D01*
X39771256Y9467773D01*
X39799039Y9523702D01*
X39788221Y9585208D01*
X39715710Y9636768D01*
X39654569Y9646452D01*
X39639782Y9651256D01*
X39570174Y9686723D01*
X39557601Y9695858D01*
X39502358Y9751101D01*
X39493223Y9763674D01*
X39457756Y9833282D01*
X39452952Y9848069D01*
X39440115Y9929118D01*
X39439500Y9936931D01*
X39439500Y10409069D01*
X39440115Y10416882D01*
X39452952Y10497931D01*
X39457756Y10512718D01*
X39493223Y10582326D01*
X39502358Y10594899D01*
X39557601Y10650142D01*
X39570174Y10659277D01*
X39639782Y10694744D01*
X39654569Y10699548D01*
X39715710Y10709232D01*
X39771256Y10737773D01*
X39799039Y10793702D01*
X39788221Y10855208D01*
X39715710Y10906768D01*
X39654569Y10916452D01*
X39639782Y10921256D01*
X39570174Y10956723D01*
X39551231Y10970486D01*
X39549418Y10967990D01*
X39489038Y10993000D01*
X39281570Y10993000D01*
X39274466Y10993508D01*
X39233885Y10999343D01*
X39226786Y11000106D01*
X39189486Y11002773D01*
X39170491Y11006906D01*
X39163345Y11008730D01*
X39144716Y11014199D01*
X39110686Y11029740D01*
X39104092Y11032471D01*
X39069040Y11045545D01*
X39051994Y11054853D01*
X39045634Y11058628D01*
X39029306Y11069121D01*
X39001042Y11093613D01*
X38995481Y11098094D01*
X38962667Y11122657D01*
X38957272Y11127332D01*
X38798332Y11286272D01*
X38793657Y11291667D01*
X38769094Y11324481D01*
X38764613Y11330042D01*
X38740121Y11358306D01*
X38729628Y11374634D01*
X38725853Y11380994D01*
X38716545Y11398040D01*
X38703471Y11433092D01*
X38700740Y11439686D01*
X38685199Y11473716D01*
X38679730Y11492345D01*
X38677906Y11499491D01*
X38673773Y11518486D01*
X38671106Y11555786D01*
X38670343Y11562885D01*
X38664508Y11603466D01*
X38664000Y11610570D01*
X38664000Y13829430D01*
X38664508Y13836534D01*
X38670345Y13877128D01*
X38671108Y13884227D01*
X38673775Y13921518D01*
X38677904Y13940501D01*
X38679742Y13947701D01*
X38685199Y13966285D01*
X38700747Y14000330D01*
X38703479Y14006926D01*
X38716546Y14041959D01*
X38725851Y14059000D01*
X38729636Y14065379D01*
X38740118Y14081692D01*
X38764619Y14109967D01*
X38769099Y14115526D01*
X38793666Y14148343D01*
X38798329Y14153725D01*
X38952275Y14307671D01*
X38957657Y14312334D01*
X38990474Y14336901D01*
X38996033Y14341381D01*
X39024308Y14365882D01*
X39040621Y14376364D01*
X39047000Y14380149D01*
X39064041Y14389454D01*
X39099074Y14402521D01*
X39105670Y14405253D01*
X39139715Y14420801D01*
X39158299Y14426258D01*
X39165499Y14428096D01*
X39184482Y14432225D01*
X39221773Y14434892D01*
X39228872Y14435655D01*
X39269466Y14441492D01*
X39276570Y14442000D01*
X39500140Y14442000D01*
X39558918Y14461098D01*
X39570178Y14469279D01*
X39639782Y14504744D01*
X39654569Y14509548D01*
X39735618Y14522385D01*
X39743431Y14523000D01*
X41270569Y14523000D01*
X41278382Y14522385D01*
X41359431Y14509548D01*
X41374218Y14504744D01*
X41443826Y14469277D01*
X41456399Y14460142D01*
X41511642Y14404899D01*
X41520777Y14392326D01*
X41556244Y14322718D01*
X41561048Y14307931D01*
X41573885Y14226882D01*
X41574500Y14219069D01*
X41574500Y13864461D01*
X41594000Y13805134D01*
X41644895Y13768945D01*
X41701293Y13769329D01*
X41701295Y13769317D01*
X41701374Y13769330D01*
X41705402Y13769357D01*
X41709067Y13770548D01*
X41790118Y13783385D01*
X41797931Y13784000D01*
X42790069Y13784000D01*
X42797882Y13783385D01*
X42878931Y13770548D01*
X42893718Y13765744D01*
X42963326Y13730277D01*
X42982269Y13716514D01*
X42984267Y13719264D01*
X43026888Y13697730D01*
X43087258Y13707503D01*
X43111280Y13719743D01*
X43126069Y13724548D01*
X43207118Y13737385D01*
X43214931Y13738000D01*
X43957069Y13738000D01*
X43964882Y13737385D01*
X44045931Y13724548D01*
X44060718Y13719744D01*
X44130326Y13684277D01*
X44142899Y13675142D01*
X44198142Y13619899D01*
X44207277Y13607326D01*
X44242744Y13537718D01*
X44247548Y13522931D01*
X44260385Y13441882D01*
X44261000Y13434069D01*
X44261000Y13179816D01*
X44280500Y13120489D01*
X44331395Y13084300D01*
X44393836Y13085362D01*
X44431709Y13109106D01*
X44431711Y13109108D01*
X44461000Y13179818D01*
X44461000Y13434069D01*
X44461615Y13441882D01*
X44474452Y13522931D01*
X44479256Y13537718D01*
X44514723Y13607326D01*
X44523858Y13619899D01*
X44579101Y13675142D01*
X44591674Y13684277D01*
X44661282Y13719744D01*
X44676069Y13724548D01*
X44757118Y13737385D01*
X44764931Y13738000D01*
X45446001Y13738000D01*
X45505328Y13757500D01*
X45546000Y13837999D01*
X45546000Y14598069D01*
X45546615Y14605882D01*
X45559452Y14686931D01*
X45564256Y14701718D01*
X45599723Y14771326D01*
X45608858Y14783899D01*
X45664101Y14839142D01*
X45676674Y14848277D01*
X45746282Y14883744D01*
X45761069Y14888548D01*
X45842118Y14901385D01*
X45849931Y14902000D01*
X47642069Y14902000D01*
X47649882Y14901385D01*
X47730931Y14888548D01*
X47745718Y14883744D01*
X47815326Y14848277D01*
X47827899Y14839142D01*
X47883142Y14783899D01*
X47892277Y14771326D01*
X47927744Y14701718D01*
X47932548Y14686931D01*
X47945385Y14605882D01*
X47946000Y14598069D01*
X47946000Y14430840D01*
X47965500Y14371513D01*
X48016395Y14335324D01*
X48078836Y14336386D01*
X48122039Y14365896D01*
X48157290Y14407170D01*
X48162830Y14412710D01*
X48344191Y14567607D01*
X48350527Y14572210D01*
X48553883Y14696826D01*
X48560865Y14700384D01*
X48781211Y14791654D01*
X48788667Y14794077D01*
X49020583Y14849755D01*
X49028307Y14850979D01*
X49268048Y14869846D01*
X49271961Y14870000D01*
X50728039Y14870000D01*
X50731952Y14869846D01*
X50971693Y14850979D01*
X50979417Y14849755D01*
X51211333Y14794077D01*
X51218789Y14791654D01*
X51439135Y14700384D01*
X51446117Y14696826D01*
X51649473Y14572210D01*
X51655809Y14567607D01*
X51837170Y14412710D01*
X51842710Y14407170D01*
X51997607Y14225809D01*
X52002210Y14219473D01*
X52126826Y14016117D01*
X52130384Y14009135D01*
X52221654Y13788789D01*
X52224077Y13781333D01*
X52279755Y13549417D01*
X52280979Y13541693D01*
X52299692Y13303914D01*
X52299692Y13296086D01*
X52280979Y13058307D01*
X52279755Y13050583D01*
X52224077Y12818667D01*
X52221654Y12811211D01*
X52130384Y12590865D01*
X52126826Y12583883D01*
X52002210Y12380527D01*
X51997607Y12374191D01*
X51842710Y12192830D01*
X51837170Y12187290D01*
X51655809Y12032393D01*
X51649473Y12027790D01*
X51446117Y11903174D01*
X51439135Y11899616D01*
X51218789Y11808346D01*
X51211333Y11805923D01*
X50979417Y11750245D01*
X50971693Y11749021D01*
X50731952Y11730154D01*
X50728038Y11730000D01*
X50543695Y11730000D01*
X50484368Y11710500D01*
X50444715Y11644239D01*
X50443658Y11636891D01*
X50442894Y11629786D01*
X50440227Y11592486D01*
X50436094Y11573491D01*
X50434270Y11566345D01*
X50428801Y11547716D01*
X50413260Y11513686D01*
X50410529Y11507092D01*
X50397455Y11472040D01*
X50388147Y11454994D01*
X50384372Y11448634D01*
X50373879Y11432306D01*
X50349387Y11404042D01*
X50344906Y11398481D01*
X50320343Y11365667D01*
X50315668Y11360272D01*
X45633558Y6678162D01*
X45605396Y6622423D01*
X45615168Y6562054D01*
X45653910Y6486018D01*
X45658714Y6471231D01*
X45671551Y6390182D01*
X45672166Y6382369D01*
X45672166Y5390231D01*
X45671551Y5382418D01*
X45658714Y5301369D01*
X45653910Y5286582D01*
X45618443Y5216974D01*
X45609308Y5204401D01*
X45554065Y5149158D01*
X45541492Y5140023D01*
X45471884Y5104556D01*
X45457097Y5099752D01*
X45376048Y5086915D01*
X45368235Y5086300D01*
X44127515Y5086300D01*
X44068188Y5066800D01*
X44031999Y5015905D01*
X44033061Y4953464D01*
X44056805Y4915591D01*
X44156807Y4815589D01*
X44227517Y4786300D01*
X45368235Y4786300D01*
X45376048Y4785685D01*
X45457097Y4772848D01*
X45471884Y4768044D01*
X45541492Y4732577D01*
X45554065Y4723442D01*
X45609308Y4668199D01*
X45618443Y4655626D01*
X45653910Y4586018D01*
X45658714Y4571231D01*
X45668514Y4509356D01*
X45697055Y4453810D01*
X45767282Y4425000D01*
X45788430Y4425000D01*
X45795534Y4424492D01*
X45836115Y4418657D01*
X45843214Y4417894D01*
X45880514Y4415227D01*
X45899509Y4411094D01*
X45906655Y4409270D01*
X45925284Y4403801D01*
X45959314Y4388260D01*
X45965908Y4385529D01*
X46000960Y4372455D01*
X46018006Y4363147D01*
X46024366Y4359372D01*
X46040694Y4348879D01*
X46068958Y4324387D01*
X46074519Y4319906D01*
X46107333Y4295343D01*
X46112728Y4290668D01*
X46784107Y3619289D01*
X46854817Y3590000D01*
X47695461Y3590000D01*
X47754788Y3609500D01*
X47787848Y3651731D01*
X47869616Y3849134D01*
X47873174Y3856117D01*
X47997790Y4059473D01*
X48002393Y4065809D01*
X48157290Y4247170D01*
X48162830Y4252710D01*
X48344191Y4407607D01*
X48350527Y4412210D01*
X48553883Y4536826D01*
X48560865Y4540384D01*
X48781211Y4631654D01*
X48788667Y4634077D01*
X49020583Y4689755D01*
X49028307Y4690979D01*
X49268048Y4709846D01*
X49271961Y4710000D01*
X50728039Y4710000D01*
X50731952Y4709846D01*
X50971693Y4690979D01*
X50979417Y4689755D01*
X51211333Y4634077D01*
X51218789Y4631654D01*
X51439135Y4540384D01*
X51446117Y4536826D01*
X51649473Y4412210D01*
X51655809Y4407607D01*
X51837170Y4252710D01*
X51842710Y4247170D01*
X51997607Y4065809D01*
X52002210Y4059473D01*
X52126826Y3856117D01*
X52130384Y3849135D01*
X52221654Y3628789D01*
X52224077Y3621333D01*
X52279755Y3389417D01*
X52280979Y3381693D01*
X52299692Y3143914D01*
X52299692Y3136086D01*
X52280979Y2898307D01*
X52279755Y2890583D01*
X52224077Y2658667D01*
X52221654Y2651211D01*
X52130384Y2430865D01*
X52126826Y2423883D01*
X52002210Y2220527D01*
X51997607Y2214191D01*
X51842710Y2032830D01*
X51837170Y2027290D01*
X51655809Y1872393D01*
X51649473Y1867790D01*
X51446117Y1743174D01*
X51439135Y1739616D01*
X51218789Y1648346D01*
X51211333Y1645923D01*
X50979417Y1590245D01*
X50971693Y1589021D01*
X50731952Y1570154D01*
X50728038Y1570000D01*
X49271962Y1570000D01*
X49271962Y300000D01*
X59600001Y300000D01*
X59659328Y319500D01*
X59700000Y399999D01*
X59700000Y16040001D01*
X59680500Y16099328D01*
X59600001Y16140000D01*
X38259999Y16140000D01*
X38200672Y16120500D01*
X38160000Y16040001D01*
X38160000Y399999D01*
G37*
G04 #@! TO.N,GND*
G36*
X200000Y299999D02*
X219500Y240672D01*
X299999Y200000D01*
X2836164Y200000D01*
X2836164Y666500D01*
X2826433Y667458D01*
X2764373Y679803D01*
X2746523Y687196D01*
X2698017Y719608D01*
X2684358Y733267D01*
X2651946Y781773D01*
X2644553Y799623D01*
X2632208Y861683D01*
X2631250Y871414D01*
X2631250Y2061586D01*
X2632208Y2071317D01*
X2644553Y2133377D01*
X2651946Y2151227D01*
X2684358Y2199733D01*
X2698017Y2213392D01*
X2746523Y2245804D01*
X2764373Y2253197D01*
X2826433Y2265542D01*
X2836164Y2266500D01*
X2836164Y14159750D01*
X2826433Y14160708D01*
X2764373Y14173053D01*
X2746523Y14180446D01*
X2698017Y14212858D01*
X2684358Y14226517D01*
X2651946Y14275023D01*
X2644553Y14292873D01*
X2632208Y14354933D01*
X2631250Y14364664D01*
X2631250Y15554836D01*
X2632208Y15564567D01*
X2644553Y15626627D01*
X2651946Y15644477D01*
X2684358Y15692983D01*
X2698017Y15706642D01*
X2746523Y15739054D01*
X2764373Y15746447D01*
X2826433Y15758792D01*
X2836164Y15759750D01*
X4026336Y15759750D01*
X4036067Y15758792D01*
X4098127Y15746447D01*
X4115977Y15739054D01*
X4164483Y15706642D01*
X4178142Y15692983D01*
X4210554Y15644477D01*
X4217949Y15626623D01*
X4218403Y15624342D01*
X4220247Y15621075D01*
X4221717Y15617527D01*
X4222149Y15617706D01*
X4249103Y15569959D01*
X4335989Y15545775D01*
X4401423Y15558791D01*
X4411164Y15559750D01*
X5151336Y15559750D01*
X5161067Y15558792D01*
X5223127Y15546447D01*
X5240977Y15539054D01*
X5289483Y15506642D01*
X5303142Y15492983D01*
X5335554Y15444477D01*
X5342947Y15426627D01*
X5355292Y15364567D01*
X5356250Y15354836D01*
X5356250Y14564664D01*
X5355292Y14554933D01*
X5342947Y14492873D01*
X5335554Y14475023D01*
X5303142Y14426517D01*
X5289483Y14412858D01*
X5240977Y14380446D01*
X5223127Y14373053D01*
X5161067Y14360708D01*
X5151336Y14359750D01*
X4411164Y14359750D01*
X4401423Y14360709D01*
X4335989Y14373725D01*
X4273998Y14366175D01*
X4223243Y14301341D01*
X4221717Y14301973D01*
X4219446Y14296490D01*
X4218403Y14295158D01*
X4217949Y14292877D01*
X4210554Y14275023D01*
X4178142Y14226517D01*
X4164483Y14212858D01*
X4115977Y14180446D01*
X4098127Y14173053D01*
X4036067Y14160708D01*
X4026336Y14159750D01*
X2836164Y14159750D01*
X2836164Y2266500D01*
X4026336Y2266500D01*
X4036067Y2265542D01*
X4098127Y2253197D01*
X4115977Y2245804D01*
X4164483Y2213392D01*
X4178142Y2199733D01*
X4210554Y2151227D01*
X4217949Y2133373D01*
X4218403Y2131092D01*
X4220247Y2127825D01*
X4221717Y2124277D01*
X4222149Y2124456D01*
X4249103Y2076709D01*
X4335989Y2052525D01*
X4401423Y2065541D01*
X4411164Y2066500D01*
X5127703Y2066500D01*
X5127703Y5374739D01*
X5115774Y5376188D01*
X4975385Y5410790D01*
X4964149Y5415051D01*
X4836113Y5482249D01*
X4826230Y5489072D01*
X4717994Y5584960D01*
X4710034Y5593945D01*
X4627888Y5712955D01*
X4622310Y5723583D01*
X4571031Y5858793D01*
X4568159Y5870446D01*
X4550729Y6013996D01*
X4550729Y6026004D01*
X4568159Y6169554D01*
X4571031Y6181207D01*
X4622310Y6316417D01*
X4627888Y6327045D01*
X4710034Y6446055D01*
X4717994Y6455040D01*
X4826230Y6550928D01*
X4836113Y6557751D01*
X4964149Y6624949D01*
X4975385Y6629210D01*
X5115774Y6663812D01*
X5127703Y6665261D01*
X5127703Y9774739D01*
X5115774Y9776188D01*
X4975385Y9810790D01*
X4964149Y9815051D01*
X4836113Y9882249D01*
X4826230Y9889072D01*
X4717994Y9984960D01*
X4710034Y9993945D01*
X4627888Y10112955D01*
X4622310Y10123583D01*
X4571031Y10258793D01*
X4568159Y10270446D01*
X4550729Y10413996D01*
X4550729Y10426004D01*
X4568159Y10569554D01*
X4571031Y10581207D01*
X4622310Y10716417D01*
X4627888Y10727045D01*
X4710034Y10846055D01*
X4717994Y10855040D01*
X4826230Y10950928D01*
X4836113Y10957751D01*
X4964149Y11024949D01*
X4975385Y11029210D01*
X5115774Y11063812D01*
X5127703Y11065261D01*
X5272297Y11065261D01*
X5284226Y11063812D01*
X5424615Y11029210D01*
X5435851Y11024949D01*
X5563887Y10957751D01*
X5573770Y10950928D01*
X5682006Y10855040D01*
X5689966Y10846055D01*
X5772112Y10727045D01*
X5777690Y10716417D01*
X5828969Y10581207D01*
X5831841Y10569554D01*
X5849271Y10426004D01*
X5849271Y10413996D01*
X5831841Y10270446D01*
X5828969Y10258793D01*
X5777690Y10123583D01*
X5772112Y10112955D01*
X5689966Y9993945D01*
X5682006Y9984960D01*
X5573770Y9889072D01*
X5563887Y9882249D01*
X5435851Y9815051D01*
X5424615Y9810790D01*
X5284226Y9776188D01*
X5272297Y9774739D01*
X5127703Y9774739D01*
X5127703Y6665261D01*
X5272297Y6665261D01*
X5284226Y6663812D01*
X5424615Y6629210D01*
X5435851Y6624949D01*
X5563887Y6557751D01*
X5573770Y6550928D01*
X5682006Y6455040D01*
X5689966Y6446055D01*
X5772112Y6327045D01*
X5777690Y6316417D01*
X5828969Y6181207D01*
X5831841Y6169554D01*
X5849271Y6026004D01*
X5849271Y6013996D01*
X5831841Y5870446D01*
X5828969Y5858793D01*
X5777690Y5723583D01*
X5772112Y5712955D01*
X5689966Y5593945D01*
X5682006Y5584960D01*
X5573770Y5489072D01*
X5563887Y5482249D01*
X5435851Y5415051D01*
X5424615Y5410790D01*
X5284226Y5376188D01*
X5272297Y5374739D01*
X5127703Y5374739D01*
X5127703Y2066500D01*
X5151336Y2066500D01*
X5161067Y2065542D01*
X5223127Y2053197D01*
X5240977Y2045804D01*
X5289483Y2013392D01*
X5303142Y1999733D01*
X5335554Y1951227D01*
X5342947Y1933377D01*
X5355292Y1871317D01*
X5356250Y1861586D01*
X5356250Y1071414D01*
X5355292Y1061683D01*
X5342947Y999623D01*
X5335554Y981773D01*
X5303142Y933267D01*
X5289483Y919608D01*
X5240977Y887196D01*
X5223127Y879803D01*
X5161067Y867458D01*
X5151336Y866500D01*
X4411164Y866500D01*
X4401423Y867459D01*
X4335989Y880475D01*
X4273998Y872925D01*
X4223243Y808091D01*
X4221717Y808723D01*
X4219446Y803240D01*
X4218403Y801908D01*
X4217949Y799627D01*
X4210554Y781773D01*
X4178142Y733267D01*
X4164483Y719608D01*
X4115977Y687196D01*
X4098127Y679803D01*
X4036067Y667458D01*
X4026336Y666500D01*
X2836164Y666500D01*
X2836164Y200000D01*
X5961164Y200000D01*
X5961164Y866500D01*
X5951433Y867458D01*
X5889373Y879803D01*
X5871523Y887196D01*
X5823017Y919608D01*
X5809358Y933267D01*
X5776946Y981773D01*
X5769553Y999623D01*
X5757208Y1061683D01*
X5756250Y1071414D01*
X5756250Y1861586D01*
X5757208Y1871317D01*
X5769553Y1933377D01*
X5776946Y1951227D01*
X5809358Y1999733D01*
X5823017Y2013392D01*
X5871523Y2045804D01*
X5889373Y2053197D01*
X5951433Y2065542D01*
X5961164Y2066500D01*
X5961164Y14359750D01*
X5951433Y14360708D01*
X5889373Y14373053D01*
X5871523Y14380446D01*
X5823017Y14412858D01*
X5809358Y14426517D01*
X5776946Y14475023D01*
X5769553Y14492873D01*
X5757208Y14554933D01*
X5756250Y14564664D01*
X5756250Y15354836D01*
X5757208Y15364567D01*
X5769553Y15426627D01*
X5776946Y15444477D01*
X5809358Y15492983D01*
X5823017Y15506642D01*
X5871523Y15539054D01*
X5889373Y15546447D01*
X5951433Y15558792D01*
X5961164Y15559750D01*
X6701336Y15559750D01*
X6711067Y15558792D01*
X6773127Y15546447D01*
X6790977Y15539054D01*
X6839483Y15506642D01*
X6853144Y15492981D01*
X6878063Y15455687D01*
X6927237Y15417191D01*
X6989660Y15415377D01*
X7016478Y15429050D01*
X7016624Y15428797D01*
X7021487Y15431604D01*
X7022086Y15431910D01*
X7022299Y15432073D01*
X7033555Y15438572D01*
X7154094Y15488501D01*
X7166650Y15491865D01*
X7295998Y15508894D01*
X7309002Y15508894D01*
X7438350Y15491865D01*
X7450906Y15488501D01*
X7571445Y15438572D01*
X7582700Y15432074D01*
X7686209Y15352649D01*
X7695399Y15343459D01*
X7774824Y15239950D01*
X7781322Y15228695D01*
X7831251Y15108156D01*
X7834615Y15095600D01*
X7851644Y14966252D01*
X7851644Y14953248D01*
X7834615Y14823900D01*
X7831251Y14811344D01*
X7781322Y14690805D01*
X7774824Y14679550D01*
X7695399Y14576041D01*
X7686209Y14566851D01*
X7582700Y14487426D01*
X7571445Y14480928D01*
X7450906Y14430999D01*
X7438350Y14427635D01*
X7309002Y14410606D01*
X7295998Y14410606D01*
X7166650Y14427635D01*
X7154094Y14430999D01*
X7033555Y14480928D01*
X7022299Y14487427D01*
X7022086Y14487590D01*
X7021908Y14487652D01*
X7016624Y14490703D01*
X7016048Y14489705D01*
X6963148Y14508237D01*
X6903454Y14489891D01*
X6878063Y14463813D01*
X6853144Y14426519D01*
X6839483Y14412858D01*
X6790977Y14380446D01*
X6773127Y14373053D01*
X6711067Y14360708D01*
X6701336Y14359750D01*
X5961164Y14359750D01*
X5961164Y2066500D01*
X6701336Y2066500D01*
X6711067Y2065542D01*
X6773127Y2053197D01*
X6790977Y2045804D01*
X6839483Y2013392D01*
X6853144Y1999731D01*
X6878063Y1962437D01*
X6927237Y1923941D01*
X6989660Y1922127D01*
X7016478Y1935800D01*
X7016624Y1935547D01*
X7021487Y1938354D01*
X7022086Y1938660D01*
X7022299Y1938823D01*
X7033555Y1945322D01*
X7154094Y1995251D01*
X7166650Y1998615D01*
X7295998Y2015644D01*
X7309002Y2015644D01*
X7438350Y1998615D01*
X7450906Y1995251D01*
X7571445Y1945322D01*
X7582700Y1938824D01*
X7686209Y1859399D01*
X7695399Y1850209D01*
X7774824Y1746700D01*
X7781322Y1735445D01*
X7831251Y1614906D01*
X7834615Y1602350D01*
X7851644Y1473002D01*
X7851644Y1459998D01*
X7834615Y1330650D01*
X7831251Y1318094D01*
X7781322Y1197555D01*
X7774824Y1186300D01*
X7695399Y1082791D01*
X7686209Y1073601D01*
X7582700Y994176D01*
X7571445Y987678D01*
X7450906Y937749D01*
X7438350Y934385D01*
X7309002Y917356D01*
X7295998Y917356D01*
X7166650Y934385D01*
X7154094Y937749D01*
X7033555Y987678D01*
X7022299Y994177D01*
X7022086Y994340D01*
X7021908Y994402D01*
X7016624Y997453D01*
X7016048Y996455D01*
X6963148Y1014987D01*
X6903454Y996641D01*
X6878063Y970563D01*
X6853144Y933269D01*
X6839483Y919608D01*
X6790977Y887196D01*
X6773127Y879803D01*
X6711067Y867458D01*
X6701336Y866500D01*
X5961164Y866500D01*
X5961164Y200000D01*
X9802414Y200000D01*
X9802414Y6842000D01*
X9792683Y6842958D01*
X9730623Y6855303D01*
X9712773Y6862696D01*
X9664267Y6895108D01*
X9650607Y6908768D01*
X9643399Y6919556D01*
X9594225Y6958052D01*
X9560252Y6964000D01*
X9543931Y6964000D01*
X9536118Y6964615D01*
X9520553Y6967080D01*
X9504910Y6968311D01*
X9493118Y6968311D01*
X9477761Y6970743D01*
X9466546Y6974387D01*
X9451290Y6978050D01*
X9439617Y6979899D01*
X9424831Y6984703D01*
X9414300Y6990069D01*
X9399803Y6996074D01*
X9388584Y6999719D01*
X9374742Y7006772D01*
X9365195Y7013708D01*
X9351816Y7021906D01*
X9341287Y7027271D01*
X9328711Y7036408D01*
X9320362Y7044757D01*
X9308429Y7054949D01*
X9295687Y7064206D01*
X9289735Y7069290D01*
X9242081Y7116944D01*
X9186342Y7145106D01*
X9124764Y7134708D01*
X9086256Y7092474D01*
X9084776Y7093463D01*
X9046892Y7036767D01*
X9033233Y7023108D01*
X8984727Y6990696D01*
X8966877Y6983303D01*
X8904817Y6970958D01*
X8895086Y6970000D01*
X6604914Y6970000D01*
X6595183Y6970958D01*
X6533123Y6983303D01*
X6515273Y6990696D01*
X6466767Y7023108D01*
X6453108Y7036767D01*
X6420696Y7085273D01*
X6413303Y7103123D01*
X6400958Y7165183D01*
X6400000Y7174914D01*
X6400000Y7665086D01*
X6400958Y7674817D01*
X6413303Y7736877D01*
X6420696Y7754727D01*
X6427188Y7764442D01*
X6443936Y7824604D01*
X6427188Y7875558D01*
X6420696Y7885273D01*
X6413303Y7903123D01*
X6400958Y7965183D01*
X6400000Y7974914D01*
X6400000Y8465086D01*
X6400958Y8474817D01*
X6413303Y8536877D01*
X6420696Y8554727D01*
X6427188Y8564442D01*
X6443936Y8624604D01*
X6427188Y8675558D01*
X6420696Y8685273D01*
X6413303Y8703123D01*
X6400958Y8765183D01*
X6400000Y8774914D01*
X6400000Y9265086D01*
X6400958Y9274817D01*
X6413303Y9336877D01*
X6420696Y9354727D01*
X6427188Y9364442D01*
X6443936Y9424604D01*
X6427188Y9475558D01*
X6420696Y9485273D01*
X6413303Y9503123D01*
X6400958Y9565183D01*
X6400000Y9574914D01*
X6400000Y10065086D01*
X6400958Y10074817D01*
X6413303Y10136877D01*
X6420696Y10154727D01*
X6453108Y10203233D01*
X6466767Y10216892D01*
X6515273Y10249304D01*
X6533123Y10256697D01*
X6595183Y10269042D01*
X6604914Y10270000D01*
X8602183Y10270000D01*
X8672893Y10299289D01*
X9521272Y11147668D01*
X9526667Y11152343D01*
X9559481Y11176906D01*
X9565042Y11181387D01*
X9593306Y11205879D01*
X9609634Y11216372D01*
X9615994Y11220147D01*
X9633040Y11229455D01*
X9668092Y11242529D01*
X9674686Y11245260D01*
X9708716Y11260801D01*
X9727345Y11266270D01*
X9734491Y11268094D01*
X9753486Y11272227D01*
X9787134Y11274633D01*
X9802414Y11280895D01*
X9802414Y13192000D01*
X9792683Y13192958D01*
X9730623Y13205303D01*
X9712773Y13212696D01*
X9664267Y13245108D01*
X9650608Y13258767D01*
X9618196Y13307273D01*
X9610803Y13325123D01*
X9598458Y13387183D01*
X9597500Y13396914D01*
X9597500Y13987086D01*
X9598458Y13996817D01*
X9610803Y14058877D01*
X9618196Y14076727D01*
X9650608Y14125233D01*
X9664267Y14138892D01*
X9712773Y14171304D01*
X9730623Y14178697D01*
X9792683Y14191042D01*
X9802414Y14192000D01*
X10892586Y14192000D01*
X10902317Y14191042D01*
X10964377Y14178697D01*
X10982227Y14171304D01*
X11030733Y14138892D01*
X11044392Y14125233D01*
X11076804Y14076727D01*
X11084197Y14058877D01*
X11096542Y13996817D01*
X11097500Y13987086D01*
X11097500Y13396914D01*
X11096542Y13387183D01*
X11084197Y13325123D01*
X11076804Y13307273D01*
X11044392Y13258767D01*
X11030733Y13245108D01*
X10982227Y13212696D01*
X10964377Y13205303D01*
X10902317Y13192958D01*
X10892586Y13192000D01*
X9802414Y13192000D01*
X9802414Y11280895D01*
X9844919Y11298315D01*
X9880000Y11374377D01*
X9880000Y11452086D01*
X9880958Y11461817D01*
X9893303Y11523877D01*
X9900696Y11541727D01*
X9933108Y11590233D01*
X9946767Y11603892D01*
X9995273Y11636304D01*
X10013123Y11643697D01*
X10075183Y11656042D01*
X10084914Y11657000D01*
X10825086Y11657000D01*
X10834817Y11656042D01*
X10896877Y11643697D01*
X10914727Y11636304D01*
X10963233Y11603892D01*
X10976892Y11590233D01*
X11009304Y11541727D01*
X11016697Y11523877D01*
X11029042Y11461817D01*
X11030000Y11452086D01*
X11030000Y10211914D01*
X11029042Y10202183D01*
X11016697Y10140123D01*
X11009304Y10122273D01*
X10976892Y10073767D01*
X10963233Y10060108D01*
X10914727Y10027696D01*
X10896877Y10020303D01*
X10834817Y10007958D01*
X10825086Y10007000D01*
X10084914Y10007000D01*
X10075183Y10007958D01*
X10013123Y10020303D01*
X9995273Y10027696D01*
X9946767Y10060108D01*
X9933106Y10073769D01*
X9915508Y10100105D01*
X9866333Y10138599D01*
X9803910Y10140413D01*
X9761653Y10115257D01*
X9378105Y9731709D01*
X9349943Y9675970D01*
X9360341Y9614392D01*
X9405245Y9570991D01*
X9469581Y9566589D01*
X9469987Y9564028D01*
X9493116Y9567691D01*
X9504923Y9567691D01*
X9520566Y9568922D01*
X9536126Y9571386D01*
X9536184Y9571391D01*
X9536202Y9571398D01*
X9540000Y9572000D01*
X9539853Y9572926D01*
X9593796Y9595490D01*
X9611169Y9619576D01*
X9612724Y9618537D01*
X9650608Y9675233D01*
X9664267Y9688892D01*
X9712773Y9721304D01*
X9730623Y9728697D01*
X9792683Y9741042D01*
X9802414Y9742000D01*
X10892586Y9742000D01*
X10902317Y9741042D01*
X10964377Y9728697D01*
X10982227Y9721304D01*
X11030733Y9688892D01*
X11044392Y9675233D01*
X11076804Y9626727D01*
X11084197Y9608877D01*
X11096542Y9546817D01*
X11097500Y9537086D01*
X11097500Y8946914D01*
X11096542Y8937183D01*
X11084197Y8875123D01*
X11076804Y8857273D01*
X11044392Y8808767D01*
X11030733Y8795108D01*
X10982227Y8762696D01*
X10964377Y8755303D01*
X10902317Y8742958D01*
X10892586Y8742000D01*
X9802414Y8742000D01*
X9792683Y8742958D01*
X9730623Y8755303D01*
X9712774Y8762696D01*
X9697378Y8772983D01*
X9637215Y8789729D01*
X9583046Y8770738D01*
X9569572Y8760949D01*
X9557638Y8750757D01*
X9549292Y8742411D01*
X9536714Y8733273D01*
X9526193Y8727912D01*
X9512814Y8719713D01*
X9503262Y8712773D01*
X9489415Y8705718D01*
X9478187Y8702070D01*
X9463685Y8696063D01*
X9453163Y8690702D01*
X9438384Y8685899D01*
X9426715Y8684051D01*
X9411456Y8680388D01*
X9400233Y8676741D01*
X9377109Y8673079D01*
X9377404Y8671215D01*
X9327495Y8654810D01*
X9291306Y8603915D01*
X9292368Y8541474D01*
X9319076Y8505507D01*
X9316725Y8503156D01*
X9330638Y8489243D01*
X9342569Y8479053D01*
X9355309Y8469797D01*
X9361266Y8464709D01*
X9625710Y8200265D01*
X9630795Y8194312D01*
X9640052Y8181570D01*
X9650243Y8169638D01*
X9658589Y8161292D01*
X9667727Y8148714D01*
X9673088Y8138193D01*
X9681287Y8124814D01*
X9688227Y8115262D01*
X9695282Y8101415D01*
X9698930Y8090187D01*
X9704937Y8075685D01*
X9710298Y8065165D01*
X9715101Y8050382D01*
X9716949Y8038716D01*
X9720612Y8023457D01*
X9724259Y8012234D01*
X9726690Y7996882D01*
X9726690Y7985084D01*
X9727921Y7969441D01*
X9730385Y7953882D01*
X9731000Y7946069D01*
X9731000Y7941999D01*
X9750500Y7882672D01*
X9830999Y7842000D01*
X10892586Y7842000D01*
X10902317Y7841042D01*
X10964377Y7828697D01*
X10982227Y7821304D01*
X11030733Y7788892D01*
X11044392Y7775233D01*
X11076804Y7726727D01*
X11084197Y7708877D01*
X11096542Y7646817D01*
X11097500Y7637086D01*
X11097500Y7046914D01*
X11096542Y7037183D01*
X11084197Y6975123D01*
X11076804Y6957273D01*
X11044392Y6908767D01*
X11030733Y6895108D01*
X10982227Y6862696D01*
X10964377Y6855303D01*
X10902317Y6842958D01*
X10892586Y6842000D01*
X9802414Y6842000D01*
X9802414Y200000D01*
X15500172Y200000D01*
X15559499Y219500D01*
X15595688Y270395D01*
X15594626Y332836D01*
X15529200Y395692D01*
X15499511Y404698D01*
X15490466Y408445D01*
X15327376Y495618D01*
X15319240Y501055D01*
X15176292Y618368D01*
X15169368Y625292D01*
X15052055Y768240D01*
X15046618Y776376D01*
X14959445Y939466D01*
X14955698Y948510D01*
X14902017Y1125474D01*
X14900108Y1135071D01*
X14881741Y1321557D01*
X14881500Y1326450D01*
X14881500Y1924550D01*
X14881741Y1929443D01*
X14900108Y2115929D01*
X14902017Y2125526D01*
X14955698Y2302490D01*
X14959445Y2311534D01*
X15046618Y2474624D01*
X15052055Y2482760D01*
X15169368Y2625708D01*
X15176292Y2632632D01*
X15319240Y2749945D01*
X15327376Y2755382D01*
X15490466Y2842555D01*
X15499510Y2846302D01*
X15676474Y2899983D01*
X15686071Y2901892D01*
X15870106Y2920018D01*
X15879894Y2920018D01*
X16063929Y2901892D01*
X16073526Y2899983D01*
X16250490Y2846302D01*
X16259534Y2842555D01*
X16422624Y2755382D01*
X16430760Y2749945D01*
X16573708Y2632632D01*
X16580632Y2625708D01*
X16697945Y2482760D01*
X16703382Y2474624D01*
X16790555Y2311534D01*
X16794302Y2302490D01*
X16847983Y2125526D01*
X16849892Y2115929D01*
X16868259Y1929443D01*
X16868500Y1924550D01*
X16868500Y1326450D01*
X16868259Y1321557D01*
X16849892Y1135071D01*
X16847983Y1125474D01*
X16794302Y948510D01*
X16790555Y939466D01*
X16703382Y776376D01*
X16697945Y768240D01*
X16580632Y625292D01*
X16573708Y618368D01*
X16430760Y501055D01*
X16422624Y495618D01*
X16259534Y408445D01*
X16250489Y404698D01*
X16220800Y395692D01*
X16169688Y359810D01*
X16149831Y300601D01*
X16168973Y241158D01*
X16249828Y200000D01*
X18040172Y200000D01*
X18099499Y219500D01*
X18135688Y270395D01*
X18134626Y332836D01*
X18069200Y395692D01*
X18039511Y404698D01*
X18030466Y408445D01*
X17867376Y495618D01*
X17859240Y501055D01*
X17716292Y618368D01*
X17709368Y625292D01*
X17592055Y768240D01*
X17586618Y776376D01*
X17499445Y939466D01*
X17495698Y948510D01*
X17442017Y1125474D01*
X17440108Y1135071D01*
X17421741Y1321557D01*
X17421500Y1326450D01*
X17421500Y1924550D01*
X17421741Y1929443D01*
X17440108Y2115929D01*
X17442017Y2125526D01*
X17495698Y2302490D01*
X17499445Y2311534D01*
X17586618Y2474624D01*
X17592055Y2482760D01*
X17709368Y2625708D01*
X17716292Y2632632D01*
X17859240Y2749945D01*
X17867376Y2755382D01*
X18030466Y2842555D01*
X18039510Y2846302D01*
X18216474Y2899983D01*
X18226071Y2901892D01*
X18410106Y2920018D01*
X18419894Y2920018D01*
X18603929Y2901892D01*
X18613526Y2899983D01*
X18790490Y2846302D01*
X18799534Y2842555D01*
X18962624Y2755382D01*
X18970760Y2749945D01*
X19113708Y2632632D01*
X19120632Y2625708D01*
X19237945Y2482760D01*
X19243382Y2474624D01*
X19330555Y2311534D01*
X19334302Y2302490D01*
X19387983Y2125526D01*
X19389892Y2115929D01*
X19408259Y1929443D01*
X19408500Y1924550D01*
X19408500Y1326450D01*
X19408259Y1321557D01*
X19389892Y1135071D01*
X19387983Y1125474D01*
X19334302Y948510D01*
X19330555Y939466D01*
X19243382Y776376D01*
X19237945Y768240D01*
X19120632Y625292D01*
X19113708Y618368D01*
X18970760Y501055D01*
X18962624Y495618D01*
X18799534Y408445D01*
X18790489Y404698D01*
X18760800Y395692D01*
X18709688Y359810D01*
X18689831Y300601D01*
X18708973Y241158D01*
X18789828Y200000D01*
X22513403Y200000D01*
X22572730Y219500D01*
X22608919Y270395D01*
X22607857Y332836D01*
X22574530Y375941D01*
X22575232Y376643D01*
X22569743Y382132D01*
X22568959Y383146D01*
X22568266Y383609D01*
X22554608Y397267D01*
X22522196Y445773D01*
X22514803Y463623D01*
X22502458Y525683D01*
X22501500Y535414D01*
X22501500Y2715586D01*
X22502458Y2725317D01*
X22514803Y2787377D01*
X22522196Y2805227D01*
X22554608Y2853733D01*
X22568267Y2867392D01*
X22616773Y2899804D01*
X22634623Y2907197D01*
X22696683Y2919542D01*
X22706414Y2920500D01*
X24053751Y2920500D01*
X24113078Y2940000D01*
X24153750Y3020499D01*
X24153750Y3365001D01*
X24134250Y3424328D01*
X24053751Y3465000D01*
X23958664Y3465000D01*
X23948933Y3465958D01*
X23886873Y3478303D01*
X23869023Y3485696D01*
X23820517Y3518108D01*
X23806858Y3531767D01*
X23774446Y3580273D01*
X23767053Y3598123D01*
X23754708Y3660183D01*
X23753750Y3669914D01*
X23753750Y4378604D01*
X23724461Y4449314D01*
X23619040Y4554735D01*
X23613955Y4560688D01*
X23604698Y4573430D01*
X23594507Y4585362D01*
X23586161Y4593708D01*
X23577023Y4606286D01*
X23571662Y4616807D01*
X23563463Y4630186D01*
X23556523Y4639738D01*
X23549468Y4653584D01*
X23545819Y4664814D01*
X23539814Y4679311D01*
X23534452Y4689835D01*
X23529649Y4704616D01*
X23527802Y4716279D01*
X23524139Y4731538D01*
X23520492Y4742763D01*
X23518059Y4758121D01*
X23518059Y4769923D01*
X23516828Y4785566D01*
X23514365Y4801118D01*
X23513750Y4808931D01*
X23513750Y6693233D01*
X23494250Y6752560D01*
X23443355Y6788749D01*
X23374315Y6781013D01*
X23373001Y6784186D01*
X23275482Y6743793D01*
X23228133Y6703074D01*
X23213750Y6651406D01*
X23213750Y5733931D01*
X23213135Y5726118D01*
X23197851Y5629615D01*
X23193047Y5614829D01*
X23184650Y5598350D01*
X23173750Y5552951D01*
X23173750Y5184914D01*
X23172792Y5175183D01*
X23160447Y5113123D01*
X23153054Y5095273D01*
X23120642Y5046767D01*
X23106983Y5033108D01*
X23058477Y5000696D01*
X23040627Y4993303D01*
X22978567Y4980958D01*
X22968836Y4980000D01*
X22758664Y4980000D01*
X22748933Y4980958D01*
X22686873Y4993303D01*
X22659925Y5004465D01*
X22659425Y5003257D01*
X22609147Y5017254D01*
X22567894Y5003694D01*
X22567575Y5004465D01*
X22540627Y4993303D01*
X22478567Y4980958D01*
X22468836Y4980000D01*
X22258664Y4980000D01*
X22248933Y4980958D01*
X22186873Y4993303D01*
X22159925Y5004465D01*
X22159425Y5003257D01*
X22109147Y5017254D01*
X22067894Y5003694D01*
X22067575Y5004465D01*
X22040627Y4993303D01*
X21978567Y4980958D01*
X21968836Y4980000D01*
X21758664Y4980000D01*
X21748933Y4980958D01*
X21686873Y4993303D01*
X21659925Y5004465D01*
X21659425Y5003257D01*
X21609147Y5017254D01*
X21567894Y5003694D01*
X21567575Y5004465D01*
X21540627Y4993303D01*
X21478567Y4980958D01*
X21468836Y4980000D01*
X21258664Y4980000D01*
X21248933Y4980958D01*
X21186873Y4993303D01*
X21159925Y5004465D01*
X21159425Y5003257D01*
X21109147Y5017254D01*
X21067894Y5003694D01*
X21067575Y5004465D01*
X21040627Y4993303D01*
X20978567Y4980958D01*
X20968836Y4980000D01*
X20758664Y4980000D01*
X20748933Y4980958D01*
X20686873Y4993303D01*
X20659925Y5004465D01*
X20659425Y5003257D01*
X20609147Y5017254D01*
X20567894Y5003694D01*
X20567575Y5004465D01*
X20540627Y4993303D01*
X20478567Y4980958D01*
X20468836Y4980000D01*
X20258664Y4980000D01*
X20248933Y4980958D01*
X20186873Y4993303D01*
X20159925Y5004465D01*
X20159425Y5003257D01*
X20109147Y5017254D01*
X20067894Y5003694D01*
X20067575Y5004465D01*
X20040627Y4993303D01*
X19978567Y4980958D01*
X19968836Y4980000D01*
X19758664Y4980000D01*
X19748933Y4980958D01*
X19686873Y4993303D01*
X19659925Y5004465D01*
X19659425Y5003257D01*
X19609147Y5017254D01*
X19567894Y5003694D01*
X19567575Y5004465D01*
X19540627Y4993303D01*
X19478567Y4980958D01*
X19468836Y4980000D01*
X19258664Y4980000D01*
X19248933Y4980958D01*
X19186873Y4993303D01*
X19159925Y5004465D01*
X19159425Y5003257D01*
X19109147Y5017254D01*
X19067894Y5003694D01*
X19067575Y5004465D01*
X19040627Y4993303D01*
X18978567Y4980958D01*
X18968836Y4980000D01*
X18758664Y4980000D01*
X18748933Y4980958D01*
X18686873Y4993303D01*
X18659925Y5004465D01*
X18659425Y5003257D01*
X18609147Y5017254D01*
X18567894Y5003694D01*
X18567575Y5004465D01*
X18540627Y4993303D01*
X18478567Y4980958D01*
X18468836Y4980000D01*
X18258664Y4980000D01*
X18248933Y4980958D01*
X18186873Y4993303D01*
X18169023Y5000696D01*
X18120517Y5033108D01*
X18106858Y5046767D01*
X18074446Y5095273D01*
X18067053Y5113123D01*
X18054708Y5175183D01*
X18053750Y5184914D01*
X18053750Y6275086D01*
X18054708Y6284817D01*
X18067053Y6346877D01*
X18074446Y6364727D01*
X18106858Y6413233D01*
X18120517Y6426892D01*
X18169023Y6459304D01*
X18186873Y6466697D01*
X18248933Y6479042D01*
X18258664Y6480000D01*
X18468836Y6480000D01*
X18478567Y6479042D01*
X18540627Y6466697D01*
X18567575Y6455535D01*
X18568075Y6456743D01*
X18618353Y6442746D01*
X18659606Y6456306D01*
X18659925Y6455535D01*
X18686873Y6466697D01*
X18748933Y6479042D01*
X18758664Y6480000D01*
X18968836Y6480000D01*
X18978567Y6479042D01*
X19040627Y6466697D01*
X19067575Y6455535D01*
X19068075Y6456743D01*
X19118353Y6442746D01*
X19159606Y6456306D01*
X19159925Y6455535D01*
X19186873Y6466697D01*
X19248933Y6479042D01*
X19258664Y6480000D01*
X19468836Y6480000D01*
X19478567Y6479042D01*
X19540627Y6466697D01*
X19567575Y6455535D01*
X19568075Y6456743D01*
X19618353Y6442746D01*
X19659606Y6456306D01*
X19659925Y6455535D01*
X19686873Y6466697D01*
X19748933Y6479042D01*
X19758664Y6480000D01*
X19968836Y6480000D01*
X19978567Y6479042D01*
X20040627Y6466697D01*
X20067575Y6455535D01*
X20068075Y6456743D01*
X20118353Y6442746D01*
X20159606Y6456306D01*
X20159925Y6455535D01*
X20186873Y6466697D01*
X20248933Y6479042D01*
X20258664Y6480000D01*
X20468836Y6480000D01*
X20478567Y6479042D01*
X20540627Y6466697D01*
X20567575Y6455535D01*
X20568075Y6456743D01*
X20618353Y6442746D01*
X20659606Y6456306D01*
X20659925Y6455535D01*
X20686873Y6466697D01*
X20748933Y6479042D01*
X20758664Y6480000D01*
X20968836Y6480000D01*
X20978567Y6479042D01*
X21040627Y6466697D01*
X21067575Y6455535D01*
X21068075Y6456743D01*
X21118353Y6442746D01*
X21159606Y6456306D01*
X21159925Y6455535D01*
X21186877Y6466699D01*
X21191224Y6467564D01*
X21245607Y6498264D01*
X21271171Y6555242D01*
X21242424Y6636351D01*
X20551540Y7327235D01*
X20546455Y7333188D01*
X20537198Y7345930D01*
X20527007Y7357862D01*
X20518661Y7366208D01*
X20509523Y7378786D01*
X20504162Y7389307D01*
X20495963Y7402686D01*
X20489023Y7412238D01*
X20481968Y7426084D01*
X20478319Y7437314D01*
X20472314Y7451811D01*
X20466952Y7462335D01*
X20462149Y7477116D01*
X20460302Y7488779D01*
X20456639Y7504038D01*
X20452992Y7515263D01*
X20450559Y7530621D01*
X20450559Y7542423D01*
X20449328Y7558066D01*
X20446865Y7573618D01*
X20446250Y7581431D01*
X20446250Y8300721D01*
X20416961Y8371431D01*
X20403351Y8385041D01*
X20323926Y8488550D01*
X20317428Y8499805D01*
X20299350Y8543449D01*
X20258631Y8590798D01*
X20197761Y8604756D01*
X20126060Y8563956D01*
X20121340Y8557459D01*
X20112993Y8549112D01*
X20102802Y8537180D01*
X20093545Y8524438D01*
X20088460Y8518485D01*
X18455265Y6885290D01*
X18449312Y6880205D01*
X18436570Y6870948D01*
X18424638Y6860757D01*
X18416292Y6852411D01*
X18403714Y6843273D01*
X18393193Y6837912D01*
X18379814Y6829713D01*
X18370262Y6822773D01*
X18356416Y6815718D01*
X18345186Y6812069D01*
X18330689Y6806064D01*
X18320166Y6800702D01*
X18305381Y6795898D01*
X18293728Y6794053D01*
X18278466Y6790389D01*
X18267239Y6786741D01*
X18251884Y6784309D01*
X18240077Y6784309D01*
X18224434Y6783078D01*
X18208882Y6780615D01*
X18201069Y6780000D01*
X16198749Y6780000D01*
X16139422Y6760500D01*
X16098750Y6680001D01*
X16098750Y6262914D01*
X16097792Y6253183D01*
X16085447Y6191123D01*
X16078054Y6173273D01*
X16045642Y6124767D01*
X16031983Y6111108D01*
X15983477Y6078696D01*
X15965627Y6071303D01*
X15903567Y6058958D01*
X15893836Y6058000D01*
X14903664Y6058000D01*
X14893933Y6058958D01*
X14831873Y6071303D01*
X14814023Y6078696D01*
X14765517Y6111108D01*
X14751858Y6124767D01*
X14719446Y6173273D01*
X14712053Y6191123D01*
X14699708Y6253183D01*
X14698750Y6262914D01*
X14698750Y6892006D01*
X14679250Y6951333D01*
X14628355Y6987522D01*
X14565914Y6986460D01*
X14527786Y6958924D01*
X14526284Y6960426D01*
X14512459Y6946601D01*
X14408950Y6867176D01*
X14397695Y6860678D01*
X14277156Y6810749D01*
X14264600Y6807385D01*
X14135252Y6790356D01*
X14122248Y6790356D01*
X13992900Y6807385D01*
X13980344Y6810749D01*
X13856848Y6861903D01*
X13780310Y6861902D01*
X13764380Y6855303D01*
X13702317Y6842958D01*
X13692586Y6842000D01*
X12602414Y6842000D01*
X12592683Y6842958D01*
X12530623Y6855303D01*
X12512773Y6862696D01*
X12464267Y6895108D01*
X12450608Y6908767D01*
X12418196Y6957273D01*
X12410803Y6975123D01*
X12398458Y7037183D01*
X12397500Y7046914D01*
X12397500Y7637086D01*
X12398458Y7646817D01*
X12412724Y7718537D01*
X12409830Y7719113D01*
X12413358Y7766011D01*
X12380184Y7818921D01*
X12316284Y7842000D01*
X12143070Y7842000D01*
X12135966Y7842508D01*
X12095385Y7848343D01*
X12088286Y7849106D01*
X12050986Y7851773D01*
X12031991Y7855906D01*
X12024845Y7857730D01*
X12006216Y7863199D01*
X11972186Y7878740D01*
X11965592Y7881471D01*
X11930540Y7894545D01*
X11913494Y7903853D01*
X11907134Y7907628D01*
X11890806Y7918121D01*
X11862542Y7942613D01*
X11856981Y7947094D01*
X11824167Y7971657D01*
X11818772Y7976332D01*
X11529832Y8265272D01*
X11525157Y8270667D01*
X11500594Y8303481D01*
X11496113Y8309042D01*
X11471621Y8337306D01*
X11461128Y8353634D01*
X11457353Y8359994D01*
X11448045Y8377040D01*
X11434971Y8412092D01*
X11432240Y8418686D01*
X11416699Y8452716D01*
X11411230Y8471345D01*
X11409406Y8478491D01*
X11405273Y8497486D01*
X11402606Y8534786D01*
X11401843Y8541885D01*
X11396008Y8582466D01*
X11395500Y8589570D01*
X11395500Y9791930D01*
X11396008Y9799034D01*
X11401843Y9839615D01*
X11402606Y9846714D01*
X11405273Y9884012D01*
X11409406Y9903009D01*
X11411230Y9910155D01*
X11416699Y9928784D01*
X11432240Y9962814D01*
X11434971Y9969408D01*
X11448045Y10004460D01*
X11457353Y10021506D01*
X11461128Y10027866D01*
X11471621Y10044194D01*
X11496113Y10072458D01*
X11500594Y10078019D01*
X11525157Y10110833D01*
X11529832Y10116228D01*
X11800711Y10387107D01*
X11830000Y10457817D01*
X11830000Y11619501D01*
X11810500Y11678828D01*
X11739380Y11714761D01*
X11739799Y11719019D01*
X11725183Y11720458D01*
X11663123Y11732803D01*
X11645273Y11740196D01*
X11596767Y11772608D01*
X11583108Y11786267D01*
X11550696Y11834773D01*
X11543303Y11852623D01*
X11530958Y11914683D01*
X11530000Y11924414D01*
X11530000Y12755183D01*
X11500711Y12825893D01*
X11450329Y12876275D01*
X11445666Y12881657D01*
X11421099Y12914474D01*
X11416619Y12920033D01*
X11392118Y12948308D01*
X11381636Y12964621D01*
X11377851Y12971000D01*
X11368546Y12988041D01*
X11355479Y13023074D01*
X11352747Y13029670D01*
X11337199Y13063715D01*
X11331742Y13082299D01*
X11329904Y13089499D01*
X11325775Y13108482D01*
X11323108Y13145773D01*
X11322345Y13152872D01*
X11316508Y13193466D01*
X11316000Y13200570D01*
X11316000Y14797683D01*
X11286711Y14868393D01*
X11072028Y15083076D01*
X11016289Y15111238D01*
X10974257Y15106116D01*
X10974037Y15107224D01*
X10902317Y15092958D01*
X10892586Y15092000D01*
X9802414Y15092000D01*
X9792683Y15092958D01*
X9730623Y15105303D01*
X9712773Y15112696D01*
X9664267Y15145108D01*
X9650608Y15158767D01*
X9618196Y15207273D01*
X9610803Y15225123D01*
X9598458Y15287183D01*
X9597500Y15296914D01*
X9597500Y15887086D01*
X9598458Y15896817D01*
X9610803Y15958877D01*
X9618196Y15976727D01*
X9650608Y16025233D01*
X9664267Y16038892D01*
X9691150Y16056855D01*
X9729645Y16106029D01*
X9731459Y16168453D01*
X9695885Y16219780D01*
X9635593Y16240000D01*
X299999Y16240000D01*
X240672Y16220500D01*
X200000Y16140001D01*
X200000Y299999D01*
G37*
G36*
X11125032Y16169605D02*
X11126094Y16107164D01*
X11163994Y16057530D01*
X11206316Y16041020D01*
X11243628Y16035655D01*
X11250727Y16034892D01*
X11288018Y16032225D01*
X11307001Y16028096D01*
X11314201Y16026258D01*
X11332785Y16020801D01*
X11366830Y16005253D01*
X11373426Y16002521D01*
X11408459Y15989454D01*
X11425500Y15980149D01*
X11431879Y15976364D01*
X11448192Y15965882D01*
X11476467Y15941381D01*
X11482026Y15936901D01*
X11514843Y15912334D01*
X11520225Y15907671D01*
X12081671Y15346225D01*
X12086334Y15340843D01*
X12110901Y15308026D01*
X12115381Y15302467D01*
X12139882Y15274192D01*
X12150364Y15257879D01*
X12154149Y15251500D01*
X12163454Y15234459D01*
X12176521Y15199426D01*
X12179253Y15192830D01*
X12194801Y15158785D01*
X12200258Y15140201D01*
X12202096Y15133001D01*
X12206225Y15114018D01*
X12208892Y15076727D01*
X12209655Y15069628D01*
X12215492Y15029034D01*
X12216000Y15021930D01*
X12216000Y14091312D01*
X12235500Y14031985D01*
X12286395Y13995796D01*
X12348836Y13996858D01*
X12408386Y14053043D01*
X12418196Y14076727D01*
X12450608Y14125233D01*
X12464267Y14138892D01*
X12512773Y14171304D01*
X12530623Y14178697D01*
X12592683Y14191042D01*
X12602414Y14192000D01*
X13692586Y14192000D01*
X13702317Y14191042D01*
X13764377Y14178697D01*
X13782227Y14171304D01*
X13830733Y14138892D01*
X13844392Y14125233D01*
X13876804Y14076727D01*
X13884197Y14058877D01*
X13896542Y13996817D01*
X13897500Y13987086D01*
X13897500Y13396914D01*
X13896542Y13387183D01*
X13884197Y13325123D01*
X13876804Y13307273D01*
X13844392Y13258767D01*
X13830733Y13245108D01*
X13782227Y13212696D01*
X13764377Y13205303D01*
X13702317Y13192958D01*
X13692586Y13192000D01*
X13070922Y13192000D01*
X13011595Y13172500D01*
X12975406Y13121605D01*
X12987777Y13036443D01*
X13009303Y13004228D01*
X13016697Y12986377D01*
X13029042Y12924317D01*
X13030000Y12914586D01*
X13030000Y11953805D01*
X13049500Y11894478D01*
X13100395Y11858289D01*
X13143052Y11854662D01*
X13169499Y11858144D01*
X13182502Y11858144D01*
X13311850Y11841115D01*
X13324409Y11837750D01*
X13415358Y11800078D01*
X13491892Y11800078D01*
X13582841Y11837750D01*
X13595400Y11841115D01*
X13724748Y11858144D01*
X13737752Y11858144D01*
X13867100Y11841115D01*
X13879656Y11837751D01*
X14000195Y11787822D01*
X14011450Y11781324D01*
X14114959Y11701899D01*
X14124149Y11692709D01*
X14203574Y11589200D01*
X14210072Y11577945D01*
X14260001Y11457406D01*
X14263365Y11444850D01*
X14280394Y11315502D01*
X14280394Y11302498D01*
X14263365Y11173150D01*
X14260001Y11160594D01*
X14210072Y11040055D01*
X14203574Y11028800D01*
X14124149Y10925291D01*
X14114959Y10916101D01*
X14011450Y10836676D01*
X14000195Y10830178D01*
X13879656Y10780249D01*
X13867100Y10776885D01*
X13737752Y10759856D01*
X13724748Y10759856D01*
X13595400Y10776885D01*
X13582841Y10780250D01*
X13491892Y10817922D01*
X13415358Y10817922D01*
X13324409Y10780250D01*
X13311850Y10776885D01*
X13182502Y10759856D01*
X13169504Y10759856D01*
X13093051Y10769921D01*
X13031686Y10758331D01*
X12989164Y10712595D01*
X12980000Y10670777D01*
X12980000Y10211914D01*
X12979042Y10202183D01*
X12966697Y10140123D01*
X12959304Y10122273D01*
X12926892Y10073767D01*
X12913233Y10060108D01*
X12864727Y10027696D01*
X12846877Y10020303D01*
X12784817Y10007958D01*
X12775086Y10007000D01*
X12734817Y10007000D01*
X12664107Y9977711D01*
X12599105Y9912709D01*
X12570943Y9856970D01*
X12581341Y9795392D01*
X12626245Y9751991D01*
X12669815Y9742000D01*
X13692586Y9742000D01*
X13702317Y9741042D01*
X13764377Y9728697D01*
X13782227Y9721304D01*
X13830733Y9688892D01*
X13844394Y9675231D01*
X13860185Y9651599D01*
X13909360Y9613105D01*
X13973468Y9614583D01*
X13974012Y9612554D01*
X13992900Y9617615D01*
X14122248Y9634644D01*
X14135252Y9634644D01*
X14264600Y9617615D01*
X14277156Y9614251D01*
X14397695Y9564322D01*
X14408950Y9557824D01*
X14512459Y9478399D01*
X14521649Y9469209D01*
X14601074Y9365700D01*
X14607572Y9354445D01*
X14657501Y9233906D01*
X14660865Y9221350D01*
X14677894Y9092002D01*
X14677894Y9078998D01*
X14660865Y8949650D01*
X14657501Y8937094D01*
X14607572Y8816555D01*
X14601074Y8805300D01*
X14521649Y8701791D01*
X14512459Y8692601D01*
X14408950Y8613176D01*
X14397695Y8606678D01*
X14277156Y8556749D01*
X14264600Y8553385D01*
X14135252Y8536356D01*
X14122255Y8536356D01*
X14010551Y8551062D01*
X13949187Y8539472D01*
X13906664Y8493736D01*
X13897500Y8451918D01*
X13897500Y7996912D01*
X13896094Y7982631D01*
X13909688Y7921678D01*
X13956792Y7880677D01*
X14008665Y7873690D01*
X14122248Y7888644D01*
X14135252Y7888644D01*
X14264600Y7871615D01*
X14277156Y7868251D01*
X14397695Y7818322D01*
X14408950Y7811824D01*
X14512459Y7732399D01*
X14521649Y7723209D01*
X14601074Y7619700D01*
X14607573Y7608442D01*
X14628775Y7557256D01*
X14669493Y7509907D01*
X14730363Y7495948D01*
X14776720Y7512378D01*
X14814022Y7537303D01*
X14831873Y7544697D01*
X14893933Y7557042D01*
X14903664Y7558000D01*
X15893836Y7558000D01*
X15903567Y7557042D01*
X15965627Y7544697D01*
X15983477Y7537304D01*
X16040171Y7499421D01*
X16042607Y7503067D01*
X16098296Y7480000D01*
X16418664Y7480000D01*
X16418664Y7820000D01*
X16408933Y7820958D01*
X16346873Y7833303D01*
X16329023Y7840696D01*
X16280517Y7873108D01*
X16266858Y7886767D01*
X16234446Y7935273D01*
X16227053Y7953123D01*
X16214708Y8015183D01*
X16213750Y8024914D01*
X16213750Y8235086D01*
X16214708Y8244817D01*
X16227053Y8306877D01*
X16238215Y8333825D01*
X16237007Y8334325D01*
X16251004Y8384603D01*
X16237444Y8425856D01*
X16238215Y8426175D01*
X16227053Y8453123D01*
X16214708Y8515183D01*
X16213750Y8524914D01*
X16213750Y8735086D01*
X16214708Y8744817D01*
X16227053Y8806877D01*
X16238215Y8833825D01*
X16237007Y8834325D01*
X16251004Y8884603D01*
X16237444Y8925856D01*
X16238215Y8926175D01*
X16227053Y8953123D01*
X16214708Y9015183D01*
X16213750Y9024914D01*
X16213750Y9180001D01*
X16194250Y9239328D01*
X16113751Y9280000D01*
X15573431Y9280000D01*
X15565618Y9280615D01*
X15550053Y9283080D01*
X15534410Y9284311D01*
X15522618Y9284311D01*
X15507261Y9286743D01*
X15496046Y9290387D01*
X15480790Y9294050D01*
X15469117Y9295899D01*
X15454331Y9300703D01*
X15443800Y9306069D01*
X15429303Y9312074D01*
X15418084Y9315719D01*
X15404242Y9322772D01*
X15394695Y9329708D01*
X15381316Y9337906D01*
X15370787Y9343271D01*
X15358211Y9352408D01*
X15349862Y9360757D01*
X15337929Y9370949D01*
X15325187Y9380206D01*
X15319235Y9385290D01*
X15244209Y9460316D01*
X15173503Y9489605D01*
X15154250Y9489606D01*
X15024900Y9506635D01*
X15012344Y9509999D01*
X14891805Y9559928D01*
X14880550Y9566426D01*
X14777041Y9645851D01*
X14767851Y9655041D01*
X14688426Y9758550D01*
X14681928Y9769805D01*
X14631999Y9890344D01*
X14628635Y9902900D01*
X14611606Y10032248D01*
X14611606Y10045252D01*
X14628635Y10174600D01*
X14631999Y10187156D01*
X14681928Y10307695D01*
X14688426Y10318950D01*
X14767851Y10422459D01*
X14777041Y10431649D01*
X14880550Y10511074D01*
X14891805Y10517572D01*
X15012344Y10567501D01*
X15024900Y10570865D01*
X15154248Y10587894D01*
X15167252Y10587894D01*
X15296600Y10570865D01*
X15309159Y10567500D01*
X15332234Y10557942D01*
X15394507Y10553254D01*
X15447418Y10586426D01*
X15470500Y10650329D01*
X15470500Y11102604D01*
X15441211Y11173314D01*
X14613278Y12001247D01*
X14539303Y12026356D01*
X14539303Y12030106D01*
X14519748Y12030106D01*
X14390400Y12047135D01*
X14377844Y12050499D01*
X14257305Y12100428D01*
X14246050Y12106926D01*
X14142541Y12186351D01*
X14133351Y12195541D01*
X14053926Y12299050D01*
X14047428Y12310305D01*
X13997499Y12430844D01*
X13994135Y12443400D01*
X13977106Y12572748D01*
X13977106Y12585752D01*
X13994135Y12715100D01*
X13997499Y12727656D01*
X14047428Y12848195D01*
X14053926Y12859450D01*
X14133351Y12962959D01*
X14142541Y12972149D01*
X14246050Y13051574D01*
X14257305Y13058072D01*
X14377844Y13108001D01*
X14390400Y13111365D01*
X14519748Y13128394D01*
X14532752Y13128394D01*
X14662100Y13111365D01*
X14674656Y13108001D01*
X14795195Y13058072D01*
X14806450Y13051574D01*
X14909959Y12972149D01*
X14919149Y12962959D01*
X14998574Y12859450D01*
X15005072Y12848195D01*
X15055001Y12727656D01*
X15058365Y12715100D01*
X15075394Y12585750D01*
X15075395Y12570496D01*
X15104684Y12499791D01*
X16043041Y11561434D01*
X16098780Y11533272D01*
X16160358Y11543670D01*
X16203759Y11588574D01*
X16213750Y11632144D01*
X16213750Y11735086D01*
X16214708Y11744817D01*
X16227053Y11806877D01*
X16238215Y11833825D01*
X16237007Y11834325D01*
X16251004Y11884603D01*
X16237444Y11925856D01*
X16238215Y11926175D01*
X16227053Y11953123D01*
X16214708Y12015183D01*
X16213750Y12024914D01*
X16213750Y12235086D01*
X16214708Y12244817D01*
X16227053Y12306877D01*
X16238215Y12333825D01*
X16237007Y12334325D01*
X16251004Y12384603D01*
X16237444Y12425856D01*
X16238215Y12426175D01*
X16227053Y12453123D01*
X16214708Y12515183D01*
X16213750Y12524914D01*
X16213750Y12735086D01*
X16214708Y12744817D01*
X16227053Y12806877D01*
X16234446Y12824727D01*
X16266858Y12873233D01*
X16280517Y12886892D01*
X16329023Y12919304D01*
X16346873Y12926697D01*
X16408933Y12939042D01*
X16418664Y12940000D01*
X17508836Y12940000D01*
X17518567Y12939042D01*
X17580627Y12926697D01*
X17598477Y12919304D01*
X17646983Y12886892D01*
X17660642Y12873233D01*
X17693054Y12824727D01*
X17700447Y12806877D01*
X17712792Y12744817D01*
X17713750Y12735086D01*
X17713750Y12524914D01*
X17712792Y12515183D01*
X17700447Y12453123D01*
X17689285Y12426175D01*
X17690493Y12425675D01*
X17676496Y12375397D01*
X17690056Y12334144D01*
X17689285Y12333825D01*
X17700447Y12306877D01*
X17712792Y12244817D01*
X17713750Y12235086D01*
X17713750Y12024914D01*
X17712792Y12015183D01*
X17700447Y11953123D01*
X17689285Y11926175D01*
X17690493Y11925675D01*
X17676496Y11875397D01*
X17690056Y11834144D01*
X17689285Y11833825D01*
X17700447Y11806877D01*
X17712792Y11744817D01*
X17713750Y11735086D01*
X17713750Y11524914D01*
X17712792Y11515183D01*
X17700447Y11453123D01*
X17689285Y11426175D01*
X17690493Y11425675D01*
X17676496Y11375397D01*
X17690056Y11334144D01*
X17689285Y11333825D01*
X17700447Y11306877D01*
X17712792Y11244817D01*
X17713750Y11235086D01*
X17713750Y11024914D01*
X17712792Y11015183D01*
X17700447Y10953123D01*
X17689285Y10926175D01*
X17690493Y10925675D01*
X17676496Y10875397D01*
X17690056Y10834144D01*
X17689285Y10833825D01*
X17700447Y10806877D01*
X17712792Y10744817D01*
X17713750Y10735086D01*
X17713750Y10524914D01*
X17712792Y10515183D01*
X17700447Y10453123D01*
X17689285Y10426175D01*
X17690493Y10425675D01*
X17676496Y10375397D01*
X17690056Y10334144D01*
X17689285Y10333825D01*
X17700447Y10306877D01*
X17712792Y10244817D01*
X17713750Y10235086D01*
X17713750Y10024914D01*
X17712792Y10015183D01*
X17700447Y9953123D01*
X17689285Y9926175D01*
X17690493Y9925675D01*
X17676496Y9875397D01*
X17690056Y9834144D01*
X17689285Y9833825D01*
X17700447Y9806877D01*
X17712792Y9744817D01*
X17713750Y9735086D01*
X17713750Y9524914D01*
X17712792Y9515183D01*
X17700447Y9453123D01*
X17689285Y9426175D01*
X17690493Y9425675D01*
X17676496Y9375397D01*
X17690056Y9334144D01*
X17689285Y9333825D01*
X17700447Y9306877D01*
X17712792Y9244817D01*
X17713750Y9235086D01*
X17713750Y9024914D01*
X17712792Y9015183D01*
X17700447Y8953123D01*
X17689285Y8926175D01*
X17690493Y8925675D01*
X17676496Y8875397D01*
X17690056Y8834144D01*
X17689285Y8833825D01*
X17700447Y8806877D01*
X17712792Y8744817D01*
X17713750Y8735086D01*
X17713750Y8524914D01*
X17712792Y8515183D01*
X17700447Y8453123D01*
X17689285Y8426175D01*
X17690493Y8425675D01*
X17676496Y8375397D01*
X17690056Y8334144D01*
X17689285Y8333825D01*
X17700447Y8306877D01*
X17712792Y8244817D01*
X17713750Y8235086D01*
X17713750Y8024914D01*
X17712792Y8015183D01*
X17700447Y7953123D01*
X17693054Y7935273D01*
X17660642Y7886767D01*
X17646983Y7873108D01*
X17598477Y7840696D01*
X17580627Y7833303D01*
X17518567Y7820958D01*
X17508836Y7820000D01*
X16418664Y7820000D01*
X16418664Y7480000D01*
X18018604Y7480000D01*
X18089314Y7509289D01*
X19464461Y8884436D01*
X19493750Y8955146D01*
X19493750Y13180001D01*
X19474250Y13239328D01*
X19393751Y13280000D01*
X19258664Y13280000D01*
X19248933Y13280958D01*
X19186873Y13293303D01*
X19159925Y13304465D01*
X19159425Y13303257D01*
X19109147Y13317254D01*
X19067894Y13303694D01*
X19067575Y13304465D01*
X19040627Y13293303D01*
X18978567Y13280958D01*
X18968836Y13280000D01*
X18758664Y13280000D01*
X18748933Y13280958D01*
X18686873Y13293303D01*
X18659925Y13304465D01*
X18659425Y13303257D01*
X18609147Y13317254D01*
X18567894Y13303694D01*
X18567575Y13304465D01*
X18540627Y13293303D01*
X18478567Y13280958D01*
X18468836Y13280000D01*
X18258664Y13280000D01*
X18248933Y13280958D01*
X18186873Y13293303D01*
X18169023Y13300696D01*
X18120517Y13333108D01*
X18106858Y13346767D01*
X18074446Y13395273D01*
X18067053Y13413123D01*
X18054708Y13475183D01*
X18053750Y13484914D01*
X18053750Y14575086D01*
X18054708Y14584817D01*
X18067053Y14646877D01*
X18074446Y14664727D01*
X18106858Y14713233D01*
X18120517Y14726892D01*
X18169023Y14759304D01*
X18186873Y14766697D01*
X18248933Y14779042D01*
X18258664Y14780000D01*
X18468836Y14780000D01*
X18478567Y14779042D01*
X18540632Y14766696D01*
X18546838Y14764126D01*
X18609112Y14759438D01*
X18662022Y14792611D01*
X18684935Y14850705D01*
X18668914Y14911065D01*
X18640661Y14939659D01*
X18628019Y14948106D01*
X18614358Y14961767D01*
X18581946Y15010273D01*
X18574552Y15028123D01*
X18567315Y15064509D01*
X18536616Y15118892D01*
X18469237Y15145000D01*
X15404999Y15145000D01*
X15345672Y15125500D01*
X15305000Y15045001D01*
X15305000Y14946914D01*
X15304042Y14937183D01*
X15291697Y14875123D01*
X15284304Y14857273D01*
X15251892Y14808767D01*
X15238233Y14795108D01*
X15189727Y14762696D01*
X15171877Y14755303D01*
X15109817Y14742958D01*
X15100086Y14742000D01*
X14109914Y14742000D01*
X14100183Y14742958D01*
X14038123Y14755303D01*
X14020273Y14762696D01*
X13971767Y14795108D01*
X13958108Y14808767D01*
X13925696Y14857273D01*
X13918303Y14875123D01*
X13905958Y14937183D01*
X13905000Y14946914D01*
X13905000Y15013891D01*
X13885500Y15073218D01*
X13834605Y15109407D01*
X13774157Y15106620D01*
X13774037Y15107224D01*
X13770050Y15106431D01*
X13766732Y15106278D01*
X13764377Y15105303D01*
X13702317Y15092958D01*
X13692586Y15092000D01*
X12602414Y15092000D01*
X12592683Y15092958D01*
X12530623Y15105303D01*
X12512773Y15112696D01*
X12464267Y15145108D01*
X12450608Y15158767D01*
X12418196Y15207273D01*
X12410803Y15225123D01*
X12398458Y15287183D01*
X12397500Y15296914D01*
X12397500Y15887086D01*
X12398458Y15896817D01*
X12410803Y15958877D01*
X12418196Y15976727D01*
X12450608Y16025233D01*
X12464267Y16038892D01*
X12491150Y16056855D01*
X12529645Y16106029D01*
X12531459Y16168453D01*
X12495885Y16219780D01*
X12435593Y16240000D01*
X11220548Y16240000D01*
X11161221Y16220500D01*
X11125032Y16169605D01*
G37*
G36*
X20056180Y16120491D02*
X20060291Y16099825D01*
X20061250Y16090086D01*
X20061250Y15381396D01*
X20090539Y15310686D01*
X20108460Y15292765D01*
X20113545Y15286812D01*
X20122802Y15274070D01*
X20132993Y15262138D01*
X20141339Y15253792D01*
X20150477Y15241214D01*
X20155838Y15230693D01*
X20164037Y15217314D01*
X20170977Y15207762D01*
X20178032Y15193915D01*
X20181680Y15182687D01*
X20187687Y15168185D01*
X20193048Y15157663D01*
X20197851Y15142884D01*
X20199699Y15131215D01*
X20203362Y15115956D01*
X20207009Y15104733D01*
X20209440Y15089381D01*
X20209440Y15077584D01*
X20210671Y15061941D01*
X20213135Y15046382D01*
X20213750Y15038569D01*
X20213750Y14033931D01*
X20213135Y14026118D01*
X20210671Y14010559D01*
X20209440Y13994916D01*
X20209440Y13983118D01*
X20207008Y13967761D01*
X20203362Y13956540D01*
X20199699Y13941284D01*
X20196620Y13921845D01*
X20197016Y13921782D01*
X20193750Y13901156D01*
X20193750Y13397999D01*
X20213250Y13338672D01*
X20293749Y13298000D01*
X20468102Y13298000D01*
X20527429Y13317500D01*
X20563618Y13368395D01*
X20566180Y13417507D01*
X20554708Y13475180D01*
X20553750Y13484914D01*
X20553750Y14575086D01*
X20554708Y14584817D01*
X20567053Y14646877D01*
X20574446Y14664727D01*
X20606858Y14713233D01*
X20620517Y14726892D01*
X20669023Y14759304D01*
X20686873Y14766697D01*
X20748933Y14779042D01*
X20758664Y14780000D01*
X20968836Y14780000D01*
X20978567Y14779042D01*
X21040627Y14766697D01*
X21067575Y14755535D01*
X21068075Y14756743D01*
X21118353Y14742746D01*
X21159606Y14756306D01*
X21159925Y14755535D01*
X21186873Y14766697D01*
X21248933Y14779042D01*
X21258664Y14780000D01*
X21468836Y14780000D01*
X21478567Y14779042D01*
X21540627Y14766697D01*
X21567575Y14755535D01*
X21568075Y14756743D01*
X21618353Y14742746D01*
X21659606Y14756306D01*
X21659925Y14755535D01*
X21686873Y14766697D01*
X21748933Y14779042D01*
X21758664Y14780000D01*
X21968836Y14780000D01*
X21978567Y14779042D01*
X22040627Y14766697D01*
X22067575Y14755535D01*
X22068075Y14756743D01*
X22118353Y14742746D01*
X22159606Y14756306D01*
X22159925Y14755535D01*
X22186873Y14766697D01*
X22248933Y14779042D01*
X22258664Y14780000D01*
X22468836Y14780000D01*
X22478567Y14779042D01*
X22540627Y14766697D01*
X22567575Y14755535D01*
X22568075Y14756743D01*
X22618353Y14742746D01*
X22659606Y14756306D01*
X22659925Y14755535D01*
X22686873Y14766697D01*
X22748933Y14779042D01*
X22758664Y14780000D01*
X22968836Y14780000D01*
X22978567Y14779042D01*
X23040627Y14766697D01*
X23067575Y14755535D01*
X23068075Y14756743D01*
X23118353Y14742746D01*
X23159606Y14756306D01*
X23159925Y14755535D01*
X23186873Y14766697D01*
X23248933Y14779042D01*
X23258664Y14780000D01*
X23468836Y14780000D01*
X23478567Y14779042D01*
X23540627Y14766697D01*
X23567575Y14755535D01*
X23568075Y14756743D01*
X23618353Y14742746D01*
X23659606Y14756306D01*
X23659925Y14755535D01*
X23686873Y14766697D01*
X23748933Y14779042D01*
X23758664Y14780000D01*
X23968836Y14780000D01*
X23978567Y14779042D01*
X24040627Y14766697D01*
X24058477Y14759304D01*
X24106983Y14726892D01*
X24120642Y14713233D01*
X24153054Y14664727D01*
X24160447Y14646877D01*
X24172792Y14584817D01*
X24173750Y14575086D01*
X24173750Y14207049D01*
X24184650Y14161650D01*
X24193047Y14145171D01*
X24197851Y14130385D01*
X24213135Y14033882D01*
X24213750Y14026069D01*
X24213750Y13397999D01*
X24233250Y13338672D01*
X24313749Y13298000D01*
X24799001Y13298000D01*
X24858328Y13317500D01*
X24899000Y13397999D01*
X24899000Y14323086D01*
X24899958Y14332817D01*
X24912303Y14394877D01*
X24919696Y14412727D01*
X24952108Y14461233D01*
X24965767Y14474892D01*
X25014273Y14507304D01*
X25032123Y14514697D01*
X25094183Y14527042D01*
X25103914Y14528000D01*
X26094086Y14528000D01*
X26103817Y14527042D01*
X26165877Y14514697D01*
X26183727Y14507304D01*
X26232233Y14474892D01*
X26245892Y14461233D01*
X26278304Y14412727D01*
X26285697Y14394877D01*
X26298042Y14332817D01*
X26299000Y14323086D01*
X26299000Y13329621D01*
X26340230Y13248713D01*
X26340833Y13248275D01*
X26354203Y13240083D01*
X26364714Y13234728D01*
X26377292Y13225589D01*
X26385638Y13217243D01*
X26397571Y13207051D01*
X26411967Y13196592D01*
X26471426Y13177497D01*
X26526301Y13194348D01*
X26564028Y13219557D01*
X26580978Y13226578D01*
X26628327Y13267298D01*
X26635096Y13357231D01*
X26619000Y13396091D01*
X26615635Y13408650D01*
X26598606Y13537998D01*
X26598606Y13551002D01*
X26615635Y13680350D01*
X26618999Y13692906D01*
X26668928Y13813445D01*
X26675426Y13824700D01*
X26754851Y13928209D01*
X26764041Y13937399D01*
X26867550Y14016824D01*
X26878805Y14023322D01*
X26999344Y14073251D01*
X27011900Y14076615D01*
X27141248Y14093644D01*
X27154252Y14093644D01*
X27283600Y14076615D01*
X27296156Y14073251D01*
X27416697Y14023321D01*
X27427948Y14016825D01*
X27430113Y14015164D01*
X27431842Y14014577D01*
X27433626Y14013547D01*
X27433831Y14013902D01*
X27490988Y13994500D01*
X27598262Y13994500D01*
X27655419Y14013902D01*
X27655624Y14013547D01*
X27657408Y14014577D01*
X27659137Y14015164D01*
X27661302Y14016825D01*
X27672553Y14023321D01*
X27793094Y14073251D01*
X27805650Y14076615D01*
X27934998Y14093644D01*
X27948002Y14093644D01*
X28077350Y14076615D01*
X28089906Y14073251D01*
X28210445Y14023322D01*
X28221700Y14016824D01*
X28325209Y13937399D01*
X28334399Y13928209D01*
X28413824Y13824700D01*
X28420322Y13813445D01*
X28470251Y13692906D01*
X28473615Y13680350D01*
X28490644Y13551002D01*
X28490644Y13537998D01*
X28473615Y13408650D01*
X28470250Y13396091D01*
X28455362Y13360148D01*
X28450674Y13297875D01*
X28509480Y13229495D01*
X28533472Y13219557D01*
X28581983Y13187142D01*
X28602607Y13166518D01*
X28604327Y13168238D01*
X28642639Y13138244D01*
X28705063Y13136428D01*
X28759759Y13176738D01*
X28768108Y13189233D01*
X28781767Y13202892D01*
X28830273Y13235304D01*
X28848123Y13242697D01*
X28910183Y13255042D01*
X28919914Y13256000D01*
X29910086Y13256000D01*
X29919817Y13255042D01*
X29981877Y13242697D01*
X29999727Y13235304D01*
X30048233Y13202892D01*
X30061892Y13189233D01*
X30094304Y13140727D01*
X30101697Y13122877D01*
X30114042Y13060817D01*
X30115000Y13051086D01*
X30115000Y11992999D01*
X30134500Y11933672D01*
X30214999Y11893000D01*
X31039430Y11893000D01*
X31046535Y11892492D01*
X31105472Y11884018D01*
X31119703Y11883000D01*
X31805586Y11883000D01*
X31815317Y11882042D01*
X31877377Y11869697D01*
X31895227Y11862304D01*
X31943733Y11829892D01*
X31957392Y11816233D01*
X31989804Y11767727D01*
X31997197Y11749877D01*
X32009542Y11687817D01*
X32010500Y11678086D01*
X32010500Y11207914D01*
X32009542Y11198183D01*
X31997197Y11136123D01*
X31989804Y11118273D01*
X31957392Y11069767D01*
X31943733Y11056108D01*
X31895227Y11023696D01*
X31877377Y11016303D01*
X31815317Y11003958D01*
X31805586Y11003000D01*
X31119703Y11003000D01*
X31105472Y11001982D01*
X31046535Y10993508D01*
X31039430Y10993000D01*
X29900570Y10993000D01*
X29893467Y10993508D01*
X29890003Y10994006D01*
X29828505Y10983145D01*
X29810645Y10964386D01*
X29766425Y11012961D01*
X29729686Y11029739D01*
X29723092Y11032471D01*
X29688040Y11045545D01*
X29670994Y11054853D01*
X29664634Y11058628D01*
X29648306Y11069121D01*
X29620042Y11093613D01*
X29614481Y11098094D01*
X29581667Y11122657D01*
X29576272Y11127332D01*
X29099332Y11604272D01*
X29094657Y11609667D01*
X29070094Y11642481D01*
X29065613Y11648042D01*
X29041121Y11676306D01*
X29030628Y11692634D01*
X29026848Y11699004D01*
X29024157Y11703931D01*
X29023632Y11704423D01*
X29023281Y11705015D01*
X29020044Y11709339D01*
X29019125Y11708651D01*
X28978607Y11746653D01*
X28936393Y11756000D01*
X28919914Y11756000D01*
X28910183Y11756958D01*
X28848123Y11769303D01*
X28830273Y11776696D01*
X28804306Y11794047D01*
X28744143Y11810794D01*
X28685777Y11788582D01*
X28648750Y11710901D01*
X28648750Y11445164D01*
X28647792Y11435433D01*
X28635447Y11373373D01*
X28628054Y11355523D01*
X28595642Y11307017D01*
X28581983Y11293358D01*
X28533477Y11260946D01*
X28515627Y11253553D01*
X28453567Y11241208D01*
X28443836Y11240250D01*
X26861144Y11240250D01*
X26801817Y11220750D01*
X26765628Y11169855D01*
X26766690Y11107414D01*
X26790434Y11069541D01*
X27021420Y10838555D01*
X27077159Y10810393D01*
X27111639Y10811187D01*
X27161183Y10821042D01*
X27170914Y10822000D01*
X28161086Y10822000D01*
X28170817Y10821042D01*
X28232877Y10808697D01*
X28250727Y10801304D01*
X28299233Y10768892D01*
X28312892Y10755233D01*
X28345304Y10706727D01*
X28352697Y10688877D01*
X28362922Y10637474D01*
X28393622Y10583091D01*
X28450599Y10557526D01*
X28511632Y10570750D01*
X28559078Y10637474D01*
X28569303Y10688877D01*
X28576696Y10706727D01*
X28609108Y10755233D01*
X28622767Y10768892D01*
X28671273Y10801304D01*
X28689123Y10808697D01*
X28751183Y10821042D01*
X28760914Y10822000D01*
X29724884Y10822000D01*
X29784211Y10841500D01*
X29791294Y10851462D01*
X29808064Y10821438D01*
X29837510Y10802636D01*
X29840727Y10801304D01*
X29889233Y10768892D01*
X29902892Y10755233D01*
X29935304Y10706727D01*
X29942697Y10688877D01*
X29955042Y10626818D01*
X29956383Y10613198D01*
X29981604Y10556068D01*
X30055901Y10523000D01*
X30063954Y10523000D01*
X30134664Y10552289D01*
X30142267Y10559892D01*
X30190773Y10592304D01*
X30208623Y10599697D01*
X30270683Y10612042D01*
X30280414Y10613000D01*
X31805586Y10613000D01*
X31815317Y10612042D01*
X31877377Y10599697D01*
X31895227Y10592304D01*
X31943733Y10559892D01*
X31957392Y10546233D01*
X31989804Y10497727D01*
X31997197Y10479877D01*
X32009542Y10417817D01*
X32010500Y10408086D01*
X32010500Y9937914D01*
X32009542Y9928183D01*
X31997197Y9866123D01*
X31989804Y9848273D01*
X31957392Y9799767D01*
X31943733Y9786108D01*
X31895227Y9753696D01*
X31877377Y9746303D01*
X31815317Y9733958D01*
X31805586Y9733000D01*
X30280414Y9733000D01*
X30270683Y9733958D01*
X30208623Y9746303D01*
X30190773Y9753696D01*
X30142267Y9786108D01*
X30134664Y9793711D01*
X30063954Y9823000D01*
X30055999Y9823000D01*
X29996672Y9803500D01*
X29956000Y9723001D01*
X29956000Y9526914D01*
X29955042Y9517183D01*
X29942697Y9455123D01*
X29935304Y9437273D01*
X29902892Y9388767D01*
X29889233Y9375108D01*
X29840727Y9342696D01*
X29822877Y9335303D01*
X29760817Y9322958D01*
X29751086Y9322000D01*
X28760914Y9322000D01*
X28751183Y9322958D01*
X28689123Y9335303D01*
X28671273Y9342696D01*
X28622767Y9375108D01*
X28609108Y9388767D01*
X28576696Y9437273D01*
X28569303Y9455123D01*
X28559078Y9506526D01*
X28528378Y9560909D01*
X28471401Y9586474D01*
X28410368Y9573250D01*
X28362922Y9506526D01*
X28352697Y9455123D01*
X28345304Y9437273D01*
X28312892Y9388767D01*
X28299233Y9375108D01*
X28250727Y9342696D01*
X28232877Y9335303D01*
X28170817Y9322958D01*
X28161086Y9322000D01*
X27170914Y9322000D01*
X27161183Y9322958D01*
X27099123Y9335303D01*
X27081273Y9342696D01*
X27032767Y9375108D01*
X27019108Y9388767D01*
X26986696Y9437273D01*
X26979303Y9455123D01*
X26966958Y9517183D01*
X26966000Y9526914D01*
X26966000Y9862604D01*
X26936711Y9933314D01*
X26914709Y9955316D01*
X26858970Y9983478D01*
X26797392Y9973080D01*
X26753991Y9928176D01*
X26744000Y9884606D01*
X26744000Y6530013D01*
X26763500Y6470686D01*
X26824491Y6431935D01*
X26860877Y6424698D01*
X26878727Y6417304D01*
X26927233Y6384892D01*
X26940892Y6371233D01*
X26973304Y6322727D01*
X26980698Y6304876D01*
X26982962Y6293492D01*
X27013660Y6239109D01*
X27081040Y6213000D01*
X27137960Y6213000D01*
X27197287Y6232500D01*
X27236038Y6293492D01*
X27238302Y6304876D01*
X27245696Y6322727D01*
X27278108Y6371233D01*
X27291767Y6384892D01*
X27340273Y6417304D01*
X27358123Y6424697D01*
X27420183Y6437042D01*
X27429914Y6438000D01*
X28220086Y6438000D01*
X28229817Y6437042D01*
X28291877Y6424697D01*
X28309727Y6417304D01*
X28358233Y6384892D01*
X28371892Y6371233D01*
X28404304Y6322727D01*
X28411697Y6304877D01*
X28424042Y6242817D01*
X28425000Y6233086D01*
X28425000Y5492914D01*
X28424042Y5483183D01*
X28411697Y5421123D01*
X28404304Y5403273D01*
X28371892Y5354767D01*
X28358233Y5341108D01*
X28309727Y5308696D01*
X28291877Y5301303D01*
X28229817Y5288958D01*
X28220086Y5288000D01*
X27429914Y5288000D01*
X27420183Y5288958D01*
X27358123Y5301303D01*
X27340273Y5308696D01*
X27291767Y5341108D01*
X27278108Y5354767D01*
X27245696Y5403273D01*
X27238302Y5421124D01*
X27236038Y5432508D01*
X27205340Y5486891D01*
X27137960Y5513000D01*
X27081040Y5513000D01*
X27021713Y5493500D01*
X26982962Y5432508D01*
X26980698Y5421124D01*
X26973304Y5403273D01*
X26940892Y5354767D01*
X26927233Y5341108D01*
X26878727Y5308696D01*
X26860877Y5301303D01*
X26798817Y5288958D01*
X26789086Y5288000D01*
X25998914Y5288000D01*
X25989183Y5288958D01*
X25927123Y5301303D01*
X25909273Y5308696D01*
X25860767Y5341108D01*
X25847108Y5354767D01*
X25814696Y5403273D01*
X25807303Y5421123D01*
X25794958Y5483183D01*
X25794000Y5492914D01*
X25794000Y6081223D01*
X25774500Y6140550D01*
X25723605Y6176739D01*
X25661164Y6175677D01*
X25630860Y6156678D01*
X25630159Y6157591D01*
X25521450Y6074176D01*
X25510195Y6067678D01*
X25389656Y6017749D01*
X25377100Y6014385D01*
X25247752Y5997356D01*
X25234748Y5997356D01*
X25105400Y6014385D01*
X25092844Y6017749D01*
X24972305Y6067678D01*
X24961050Y6074176D01*
X24857541Y6153601D01*
X24848351Y6162791D01*
X24768926Y6266300D01*
X24762428Y6277555D01*
X24712499Y6398094D01*
X24709135Y6410650D01*
X24692106Y6539998D01*
X24692106Y6553002D01*
X24709135Y6682350D01*
X24712498Y6694902D01*
X24713837Y6698134D01*
X24714022Y6700587D01*
X24714196Y6701238D01*
X24714073Y6701271D01*
X24718524Y6760408D01*
X24685351Y6813319D01*
X24655208Y6827687D01*
X24655973Y6829533D01*
X24629023Y6840696D01*
X24580517Y6873108D01*
X24566858Y6886767D01*
X24534446Y6935273D01*
X24527053Y6953123D01*
X24514708Y7015183D01*
X24513750Y7024914D01*
X24513750Y7235086D01*
X24514708Y7244817D01*
X24527053Y7306877D01*
X24538215Y7333825D01*
X24537007Y7334325D01*
X24551004Y7384603D01*
X24537444Y7425856D01*
X24538215Y7426175D01*
X24527053Y7453123D01*
X24514708Y7515183D01*
X24513750Y7524914D01*
X24513750Y7735086D01*
X24514708Y7744817D01*
X24527053Y7806877D01*
X24538215Y7833825D01*
X24537007Y7834325D01*
X24551004Y7884603D01*
X24537444Y7925856D01*
X24538215Y7926175D01*
X24527053Y7953123D01*
X24514708Y8015183D01*
X24513750Y8024914D01*
X24513750Y8235086D01*
X24514708Y8244817D01*
X24527053Y8306877D01*
X24538215Y8333825D01*
X24537007Y8334325D01*
X24551004Y8384603D01*
X24537444Y8425856D01*
X24538215Y8426175D01*
X24527053Y8453123D01*
X24514708Y8515183D01*
X24513750Y8524914D01*
X24513750Y8735086D01*
X24514708Y8744817D01*
X24527053Y8806877D01*
X24538215Y8833825D01*
X24537007Y8834325D01*
X24551004Y8884603D01*
X24537444Y8925856D01*
X24538215Y8926175D01*
X24527053Y8953123D01*
X24514708Y9015183D01*
X24513750Y9024914D01*
X24513750Y9235086D01*
X24514708Y9244817D01*
X24527053Y9306877D01*
X24538215Y9333825D01*
X24537007Y9334325D01*
X24551004Y9384603D01*
X24537444Y9425856D01*
X24538215Y9426175D01*
X24527053Y9453123D01*
X24514708Y9515183D01*
X24513750Y9524914D01*
X24513750Y9735086D01*
X24514708Y9744817D01*
X24527053Y9806877D01*
X24538215Y9833825D01*
X24537007Y9834325D01*
X24551004Y9884603D01*
X24537444Y9925856D01*
X24538215Y9926175D01*
X24527053Y9953123D01*
X24514708Y10015183D01*
X24513750Y10024914D01*
X24513750Y10235086D01*
X24514708Y10244817D01*
X24527053Y10306877D01*
X24538215Y10333825D01*
X24537007Y10334325D01*
X24551004Y10384603D01*
X24537444Y10425856D01*
X24538215Y10426175D01*
X24527053Y10453123D01*
X24514708Y10515182D01*
X24513375Y10528723D01*
X24488155Y10585854D01*
X24433959Y10616882D01*
X24371923Y10609706D01*
X24321470Y10557192D01*
X24291072Y10483805D01*
X24284574Y10472550D01*
X24205149Y10369041D01*
X24195959Y10359851D01*
X24092450Y10280426D01*
X24081195Y10273928D01*
X23960656Y10223999D01*
X23948100Y10220635D01*
X23818752Y10203606D01*
X23805748Y10203606D01*
X23676400Y10220635D01*
X23663844Y10223999D01*
X23543305Y10273928D01*
X23532050Y10280426D01*
X23428541Y10359851D01*
X23419351Y10369041D01*
X23339926Y10472550D01*
X23333428Y10483805D01*
X23283499Y10604344D01*
X23280135Y10616900D01*
X23263106Y10746248D01*
X23263106Y10759252D01*
X23280135Y10888600D01*
X23283499Y10901156D01*
X23333428Y11021695D01*
X23339926Y11032950D01*
X23387907Y11095481D01*
X23408552Y11154419D01*
X23369447Y11235691D01*
X23269541Y11312351D01*
X23260351Y11321541D01*
X23180926Y11425050D01*
X23174428Y11436305D01*
X23124499Y11556844D01*
X23121135Y11569400D01*
X23104106Y11698748D01*
X23104106Y11711752D01*
X23121135Y11841100D01*
X23124499Y11853656D01*
X23174428Y11974195D01*
X23180926Y11985450D01*
X23260351Y12088959D01*
X23269541Y12098149D01*
X23373050Y12177574D01*
X23384305Y12184072D01*
X23504844Y12234001D01*
X23517400Y12237365D01*
X23646748Y12254394D01*
X23659752Y12254394D01*
X23789100Y12237365D01*
X23801656Y12234001D01*
X23922195Y12184072D01*
X23933450Y12177574D01*
X24036959Y12098149D01*
X24046149Y12088959D01*
X24099735Y12019124D01*
X24179070Y11980000D01*
X25259819Y11980000D01*
X25267632Y11979385D01*
X25364135Y11964101D01*
X25378921Y11959297D01*
X25395400Y11950900D01*
X25440799Y11940000D01*
X25785001Y11940000D01*
X25844328Y11959500D01*
X25885000Y12039999D01*
X25885000Y12220001D01*
X25865500Y12279328D01*
X25785001Y12320000D01*
X25458049Y12320000D01*
X25412650Y12309100D01*
X25396171Y12300703D01*
X25381385Y12295899D01*
X25284882Y12280615D01*
X25277069Y12280000D01*
X25267681Y12280000D01*
X25259868Y12280615D01*
X25163365Y12295899D01*
X25148579Y12300703D01*
X25132100Y12309100D01*
X25086701Y12320000D01*
X24718664Y12320000D01*
X24708933Y12320958D01*
X24646873Y12333303D01*
X24629023Y12340696D01*
X24580517Y12373108D01*
X24566858Y12386767D01*
X24534446Y12435273D01*
X24527053Y12453123D01*
X24514245Y12517510D01*
X24483545Y12571893D01*
X24416167Y12598000D01*
X20293749Y12598000D01*
X20234422Y12578500D01*
X20193750Y12498001D01*
X20193750Y10012499D01*
X20213250Y9953172D01*
X20293749Y9912500D01*
X22856069Y9912500D01*
X22863882Y9911885D01*
X22879428Y9909423D01*
X22895071Y9908192D01*
X22906884Y9908192D01*
X22922237Y9905761D01*
X22933471Y9902110D01*
X22948734Y9898446D01*
X22960382Y9896601D01*
X22975163Y9891799D01*
X22985675Y9886442D01*
X23000177Y9880436D01*
X23011412Y9876786D01*
X23025264Y9869728D01*
X23034824Y9862782D01*
X23048203Y9854583D01*
X23058714Y9849228D01*
X23071292Y9840089D01*
X23079638Y9831743D01*
X23091569Y9821553D01*
X23104309Y9812297D01*
X23110266Y9807209D01*
X24108460Y8809015D01*
X24113545Y8803062D01*
X24122802Y8790320D01*
X24132993Y8778388D01*
X24141339Y8770042D01*
X24150477Y8757464D01*
X24155838Y8746943D01*
X24164037Y8733564D01*
X24170977Y8724012D01*
X24178032Y8710165D01*
X24181680Y8698937D01*
X24187687Y8684435D01*
X24193048Y8673913D01*
X24197851Y8659134D01*
X24199699Y8647465D01*
X24203362Y8632206D01*
X24207009Y8620983D01*
X24209440Y8605631D01*
X24209440Y8593834D01*
X24210671Y8578191D01*
X24213135Y8562632D01*
X24213750Y8554819D01*
X24213750Y4991396D01*
X24243039Y4920686D01*
X24269436Y4894289D01*
X24340146Y4865000D01*
X25048836Y4865000D01*
X25058567Y4864042D01*
X25120627Y4851697D01*
X25138477Y4844304D01*
X25186983Y4811892D01*
X25200642Y4798233D01*
X25233054Y4749727D01*
X25243408Y4724730D01*
X25284128Y4677382D01*
X25335795Y4663000D01*
X25706960Y4663000D01*
X25766287Y4682500D01*
X25805038Y4743492D01*
X25807302Y4754876D01*
X25814696Y4772727D01*
X25847108Y4821233D01*
X25860767Y4834892D01*
X25909273Y4867304D01*
X25927123Y4874697D01*
X25989183Y4887042D01*
X25998914Y4888000D01*
X26789086Y4888000D01*
X26798817Y4887042D01*
X26860877Y4874697D01*
X26878727Y4867304D01*
X26927233Y4834892D01*
X26940892Y4821233D01*
X26973304Y4772727D01*
X26980697Y4754877D01*
X26993042Y4692817D01*
X26994000Y4683086D01*
X26994000Y3942914D01*
X26993042Y3933183D01*
X26980697Y3871123D01*
X26973304Y3853273D01*
X26940892Y3804767D01*
X26927233Y3791108D01*
X26878727Y3758696D01*
X26860877Y3751303D01*
X26798817Y3738958D01*
X26789086Y3738000D01*
X25998914Y3738000D01*
X25989183Y3738958D01*
X25927123Y3751303D01*
X25909273Y3758696D01*
X25860767Y3791108D01*
X25847108Y3804767D01*
X25814696Y3853273D01*
X25807302Y3871124D01*
X25805038Y3882508D01*
X25774340Y3936891D01*
X25706960Y3963000D01*
X25353749Y3963000D01*
X25294422Y3943500D01*
X25253750Y3863001D01*
X25253750Y3669914D01*
X25252792Y3660183D01*
X25240447Y3598123D01*
X25233054Y3580273D01*
X25200642Y3531767D01*
X25186983Y3518108D01*
X25138477Y3485696D01*
X25120627Y3478303D01*
X25058567Y3465958D01*
X25048836Y3465000D01*
X24953749Y3465000D01*
X24894422Y3445500D01*
X24853750Y3365001D01*
X24853750Y2638181D01*
X24853135Y2630368D01*
X24850670Y2614803D01*
X24849439Y2599160D01*
X24849439Y2587368D01*
X24847007Y2572011D01*
X24843363Y2560796D01*
X24839700Y2545540D01*
X24837851Y2533867D01*
X24833047Y2519081D01*
X24827681Y2508550D01*
X24821676Y2494053D01*
X24818031Y2482834D01*
X24810978Y2468992D01*
X24804042Y2459445D01*
X24795844Y2446066D01*
X24790479Y2435537D01*
X24781342Y2422961D01*
X24772993Y2414612D01*
X24762801Y2402679D01*
X24753544Y2389937D01*
X24748460Y2383985D01*
X24517789Y2153314D01*
X24488500Y2082604D01*
X24488500Y535414D01*
X24487542Y525683D01*
X24475197Y463623D01*
X24467804Y445773D01*
X24435392Y397267D01*
X24421734Y383609D01*
X24421041Y383146D01*
X24420212Y382087D01*
X24414768Y376643D01*
X24415431Y375980D01*
X24382546Y333972D01*
X24380731Y271548D01*
X24416304Y220221D01*
X24476597Y200000D01*
X30280414Y200000D01*
X30280414Y4653000D01*
X30270683Y4653958D01*
X30208623Y4666303D01*
X30190773Y4673696D01*
X30142267Y4706108D01*
X30128608Y4719767D01*
X30096196Y4768273D01*
X30088803Y4786123D01*
X30076458Y4848183D01*
X30075500Y4857914D01*
X30075500Y5328086D01*
X30076458Y5337817D01*
X30088803Y5399877D01*
X30096196Y5417727D01*
X30128608Y5466233D01*
X30142267Y5479892D01*
X30190773Y5512304D01*
X30208623Y5519697D01*
X30270683Y5532042D01*
X30280414Y5533000D01*
X31805586Y5533000D01*
X31815317Y5532042D01*
X31877377Y5519697D01*
X31895227Y5512304D01*
X31943733Y5479892D01*
X31957392Y5466233D01*
X31989804Y5417727D01*
X31997197Y5399877D01*
X32009542Y5337817D01*
X32010500Y5328086D01*
X32010500Y4857914D01*
X32009542Y4848183D01*
X31997197Y4786123D01*
X31989804Y4768273D01*
X31957392Y4719767D01*
X31943733Y4706108D01*
X31895227Y4673696D01*
X31877377Y4666303D01*
X31815317Y4653958D01*
X31805586Y4653000D01*
X30280414Y4653000D01*
X30280414Y200000D01*
X32538998Y200000D01*
X32538998Y5834356D01*
X32409650Y5851385D01*
X32397094Y5854749D01*
X32276555Y5904678D01*
X32265300Y5911176D01*
X32159530Y5992336D01*
X32098655Y6013000D01*
X32022046Y6013000D01*
X31951336Y5983711D01*
X31943733Y5976108D01*
X31895227Y5943696D01*
X31877377Y5936303D01*
X31815317Y5923958D01*
X31805586Y5923000D01*
X30280414Y5923000D01*
X30270683Y5923958D01*
X30208623Y5936303D01*
X30190773Y5943696D01*
X30142267Y5976108D01*
X30128608Y5989767D01*
X30096196Y6038273D01*
X30088803Y6056123D01*
X30076458Y6118183D01*
X30075500Y6127914D01*
X30075500Y6598086D01*
X30076458Y6607817D01*
X30088803Y6669877D01*
X30096196Y6687727D01*
X30128608Y6736233D01*
X30142267Y6749892D01*
X30190773Y6782304D01*
X30208623Y6789697D01*
X30270683Y6802042D01*
X30280414Y6803000D01*
X30280414Y7193000D01*
X30270683Y7193958D01*
X30208623Y7206303D01*
X30190773Y7213696D01*
X30142267Y7246108D01*
X30128608Y7259767D01*
X30096196Y7308273D01*
X30088803Y7326123D01*
X30076458Y7388183D01*
X30075500Y7397914D01*
X30075500Y7868086D01*
X30076458Y7877817D01*
X30088803Y7939877D01*
X30096196Y7957727D01*
X30128608Y8006233D01*
X30142267Y8019892D01*
X30190773Y8052304D01*
X30208623Y8059697D01*
X30270683Y8072042D01*
X30280414Y8073000D01*
X31805586Y8073000D01*
X31815317Y8072042D01*
X31877377Y8059697D01*
X31895227Y8052304D01*
X31943733Y8019892D01*
X31957392Y8006233D01*
X31989804Y7957727D01*
X31997197Y7939877D01*
X32009542Y7877817D01*
X32010500Y7868086D01*
X32010500Y7397914D01*
X32009542Y7388183D01*
X31997197Y7326123D01*
X31989804Y7308273D01*
X31957392Y7259767D01*
X31943733Y7246108D01*
X31895227Y7213696D01*
X31877377Y7206303D01*
X31815317Y7193958D01*
X31805586Y7193000D01*
X30280414Y7193000D01*
X30280414Y6803000D01*
X31805586Y6803000D01*
X31815317Y6802042D01*
X31877377Y6789697D01*
X31895227Y6782304D01*
X31943733Y6749892D01*
X31951336Y6742289D01*
X32022046Y6713000D01*
X32061691Y6713000D01*
X32141026Y6752124D01*
X32152601Y6767209D01*
X32161791Y6776399D01*
X32265300Y6855824D01*
X32276555Y6862322D01*
X32383748Y6906722D01*
X32383748Y8376356D01*
X32254400Y8393385D01*
X32241844Y8396749D01*
X32121305Y8446678D01*
X32110055Y8453173D01*
X32045647Y8502595D01*
X31986708Y8523240D01*
X31929214Y8506406D01*
X31895227Y8483696D01*
X31877377Y8476303D01*
X31815317Y8463958D01*
X31805586Y8463000D01*
X30280414Y8463000D01*
X30270683Y8463958D01*
X30208623Y8476303D01*
X30190773Y8483696D01*
X30142267Y8516108D01*
X30128608Y8529767D01*
X30096196Y8578273D01*
X30088803Y8596123D01*
X30076458Y8658183D01*
X30075500Y8667914D01*
X30075500Y9138086D01*
X30076458Y9147817D01*
X30088803Y9209877D01*
X30096196Y9227727D01*
X30128608Y9276233D01*
X30142267Y9289892D01*
X30190773Y9322304D01*
X30208623Y9329697D01*
X30270683Y9342042D01*
X30280414Y9343000D01*
X31805586Y9343000D01*
X31815317Y9342042D01*
X31877377Y9329697D01*
X31895227Y9322303D01*
X31897865Y9320541D01*
X31902796Y9319168D01*
X31904325Y9318535D01*
X31904402Y9318721D01*
X31958027Y9303793D01*
X32014298Y9324351D01*
X32110050Y9397824D01*
X32121305Y9404322D01*
X32241844Y9454251D01*
X32254400Y9457615D01*
X32383748Y9474644D01*
X32396752Y9474644D01*
X32526100Y9457615D01*
X32538656Y9454251D01*
X32659195Y9404322D01*
X32670450Y9397824D01*
X32773959Y9318399D01*
X32783149Y9309209D01*
X32862574Y9205700D01*
X32869072Y9194445D01*
X32919001Y9073906D01*
X32922365Y9061350D01*
X32939394Y8932002D01*
X32939394Y8918998D01*
X32922365Y8789650D01*
X32919001Y8777094D01*
X32869072Y8656555D01*
X32862574Y8645300D01*
X32783149Y8541791D01*
X32773959Y8532601D01*
X32670450Y8453176D01*
X32659195Y8446678D01*
X32538656Y8396749D01*
X32526100Y8393385D01*
X32396752Y8376356D01*
X32383748Y8376356D01*
X32383748Y6906722D01*
X32397094Y6912251D01*
X32409650Y6915615D01*
X32538998Y6932644D01*
X32552002Y6932644D01*
X32681350Y6915615D01*
X32693906Y6912251D01*
X32814445Y6862322D01*
X32825700Y6855824D01*
X32929209Y6776399D01*
X32938399Y6767209D01*
X33017824Y6663700D01*
X33024322Y6652445D01*
X33074251Y6531906D01*
X33077615Y6519350D01*
X33094644Y6390002D01*
X33094644Y6376998D01*
X33077615Y6247650D01*
X33074251Y6235094D01*
X33024322Y6114555D01*
X33017824Y6103300D01*
X32938399Y5999791D01*
X32929209Y5990601D01*
X32825700Y5911176D01*
X32814445Y5904678D01*
X32693906Y5854749D01*
X32681350Y5851385D01*
X32552002Y5834356D01*
X32538998Y5834356D01*
X32538998Y200000D01*
X33767001Y200000D01*
X33826328Y219500D01*
X33867000Y299999D01*
X33867000Y16140001D01*
X33847500Y16199328D01*
X33767001Y16240000D01*
X20154257Y16240000D01*
X20094930Y16220500D01*
X20058741Y16169605D01*
X20056180Y16120491D01*
G37*
G36*
X21146250Y7859866D02*
X21165750Y7800539D01*
X21216645Y7764350D01*
X21279086Y7765412D01*
X21338636Y7821598D01*
X21348928Y7846445D01*
X21355426Y7857700D01*
X21434851Y7961209D01*
X21444041Y7970399D01*
X21547550Y8049824D01*
X21558805Y8056322D01*
X21679344Y8106251D01*
X21691900Y8109615D01*
X21821248Y8126644D01*
X21834252Y8126644D01*
X21963600Y8109615D01*
X21976156Y8106251D01*
X22096695Y8056322D01*
X22107950Y8049824D01*
X22211459Y7970399D01*
X22220649Y7961209D01*
X22300074Y7857700D01*
X22306572Y7846445D01*
X22356501Y7725906D01*
X22359865Y7713350D01*
X22376894Y7584000D01*
X22376895Y7564747D01*
X22406184Y7494041D01*
X22440599Y7459626D01*
X22496338Y7431464D01*
X22557916Y7441862D01*
X22603696Y7492068D01*
X22619178Y7529445D01*
X22625676Y7540700D01*
X22705101Y7644209D01*
X22714291Y7653399D01*
X22817800Y7732824D01*
X22829055Y7739322D01*
X22949594Y7789251D01*
X22962150Y7792615D01*
X23091498Y7809644D01*
X23104502Y7809644D01*
X23233850Y7792615D01*
X23246406Y7789251D01*
X23373000Y7736814D01*
X23373923Y7739042D01*
X23424867Y7728388D01*
X23481659Y7754362D01*
X23513750Y7827767D01*
X23513750Y8372354D01*
X23484461Y8443064D01*
X22744314Y9183211D01*
X22673604Y9212500D01*
X21345856Y9212500D01*
X21286529Y9193000D01*
X21250340Y9142105D01*
X21251402Y9079664D01*
X21266519Y9051628D01*
X21268575Y9048949D01*
X21275072Y9037695D01*
X21325001Y8917156D01*
X21328365Y8904600D01*
X21345394Y8775252D01*
X21345394Y8762248D01*
X21328365Y8632900D01*
X21325001Y8620344D01*
X21275072Y8499805D01*
X21268574Y8488550D01*
X21189149Y8385041D01*
X21175539Y8371431D01*
X21146250Y8300721D01*
X21146250Y7859866D01*
G37*
G04 --- BOARD END --- *
G04 #@! TF.MD5,5331b3cdcb618d32fff606ec5871b8e0*
M02*
