G04 --- HEADER BEGIN --- *
G04 #@! TF.GenerationSoftware,LibrePCB,LibrePCB,0.2.0-unstable*
G04 #@! TF.CreationDate,2023-07-28T15:27:41*
G04 #@! TF.ProjectId,can2usb,565da67e-d1db-4e60-9fc1-0ba8a5c8bd0e,v1*
G04 #@! TF.Part,Single*
G04 #@! TF.SameCoordinates*
G04 #@! TF.FileFunction,Copper,L2,Bot*
G04 #@! TF.FilePolarity,Positive*
%FSLAX66Y66*%
%MOMM*%
G01*
G75*
G04 --- HEADER END --- *
G04 --- APERTURE LIST BEGIN --- *
G04 #@! TA.AperFunction,ComponentPad*
%ADD10O,1.587X2.19*%
%ADD11R,1.587X2.19*%
%ADD12O,4.0X2.54*%
G04 #@! TA.AperFunction,ViaPad*
%ADD13C,0.7*%
G04 #@! TA.AperFunction,Conductor*
%ADD14C,0.3*%
%ADD15C,0.5*%
%ADD16C,0.01*%
G04 #@! TD*
G04 --- APERTURE LIST END --- *
G04 --- BOARD BEGIN --- *
D10*
G04 #@! TO.N,GND*
G04 #@! TO.C,J3*
G04 #@! TO.P,J3,2,2*
X20955000Y1625500D03*
D11*
G04 #@! TO.N,3V3*
G04 #@! TO.P,J3,1,1*
X23495000Y1625500D03*
D10*
G04 #@! TO.N,SWDIO*
G04 #@! TO.P,J3,4,4*
X15875000Y1625500D03*
G04 #@! TO.N,SWCLK*
G04 #@! TO.P,J3,3,3*
X18415000Y1625500D03*
D12*
G04 #@! TO.N,CANL*
G04 #@! TO.C,J2*
G04 #@! TO.P,J2,1,1*
X50000000Y3140000D03*
G04 #@! TO.N,GND_BUS*
G04 #@! TO.P,J2,2,2*
X50000000Y8220000D03*
G04 #@! TO.N,CANH*
G04 #@! TO.P,J2,3,3*
X50000000Y13300000D03*
D13*
G04 #@! TD.C*
G04 #@! TD.P*
G04 #@! TO.N,GND*
X24009000Y9699000D03*
X18732500Y12261250D03*
X2063750Y6228750D03*
X22860000Y15594500D03*
X16986250Y14166250D03*
X32873500Y3990000D03*
X18732500Y9880000D03*
G04 #@! TO.N,GND_BUS*
X46274500Y9417500D03*
G04 #@! TO.N,SWDIO*
X23098000Y7260500D03*
D14*
X15875000Y2895000D02*
X16510500Y3530500D01*
X19209250Y3530500D02*
X23098000Y7260500D01*
X16510500Y3530500D02*
X19209250Y3530500D01*
X15875000Y1625500D02*
X15875000Y2895000D01*
D13*
G04 #@! TO.N,GND*
X8414000Y15753500D03*
G04 #@! TO.N,GND_BUS*
X53340000Y15595000D03*
G04 #@! TO.N,GND*
X32868750Y12908500D03*
G04 #@! TO.N,GND_BUS*
X46678000Y975500D03*
X43262500Y3840500D03*
X53340000Y672500D03*
G04 #@! TO.N,GND*
X33025500Y671000D03*
X22382750Y8531000D03*
G04 #@! TO.N,GND_BUS*
X38737000Y6856500D03*
G04 #@! TO.N,CAN_TX*
X32545500Y6383500D03*
X23653250Y11705250D03*
D14*
X32618500Y6383500D02*
X32545500Y6383500D01*
X33231000Y9514000D02*
X33231000Y6996000D01*
X31039750Y11705250D02*
X33231000Y9514000D01*
X33231000Y6996000D02*
X32618500Y6383500D01*
X23653250Y11705250D02*
X31039750Y11705250D01*
D13*
G04 #@! TO.N,GND*
X20670000Y12084000D03*
G04 #@! TO.N,GND_BUS*
X38889000Y15688500D03*
G04 #@! TO.N,LED_RX*
X7302500Y1466500D03*
X15160750Y10038750D03*
D14*
X15002250Y10197250D02*
X13334750Y10197250D01*
X13334750Y10197250D02*
X7302500Y4165000D01*
X15002250Y10197250D02*
X15160750Y10038750D01*
X7302500Y1466500D02*
X7302500Y4165000D01*
D13*
G04 #@! TO.N,GND*
X25872250Y832000D03*
G04 #@! TO.N,D-*
X14128750Y9085500D03*
X20796250Y8768750D03*
D14*
X20796250Y8768750D02*
X14445500Y8768750D01*
X14445500Y8768750D02*
X14128750Y9085500D01*
D13*
G04 #@! TO.N,LED_TX*
X7302500Y14959750D03*
X14526250Y12579250D03*
D14*
X12145750Y14959750D02*
X14526250Y12579250D01*
X7302500Y14959750D02*
X12145750Y14959750D01*
D13*
G04 #@! TO.N,GND_BUS*
X42310000Y15596000D03*
X38737000Y3839000D03*
G04 #@! TO.N,GND*
X13175000Y6228250D03*
G04 #@! TO.N,GND_BUS*
X44843500Y14163500D03*
G04 #@! TO.N,GND*
X18258500Y4322250D03*
G04 #@! TO.N,GND_BUS*
X43179000Y2406000D03*
G04 #@! TO.N,GND*
X21113750Y10276750D03*
X32863250Y15753500D03*
X29370250Y15597500D03*
X28416250Y7177750D03*
G04 #@! TO.N,GND_BUS*
X45173500Y9395000D03*
G04 #@! TO.N,GND*
X19843750Y6863250D03*
G04 #@! TO.N,GND_BUS*
X59055000Y990000D03*
G04 #@! TO.N,GND*
X24761750Y5418500D03*
G04 #@! TO.N,D+*
X14128750Y7339500D03*
X21827750Y7577500D03*
D14*
X14366750Y7577500D02*
X14128750Y7339500D01*
X21827750Y7577500D02*
X14366750Y7577500D01*
D13*
G04 #@! TO.N,GND_BUS*
X59055000Y15595000D03*
G04 #@! TO.N,GND*
X5080000Y13213750D03*
G04 #@! TO.N,SWCLK*
X25241250Y6546500D03*
D14*
X23336000Y6546500D02*
X18415000Y1625500D01*
X25241250Y6546500D02*
X23336000Y6546500D01*
D13*
G04 #@! TO.N,GND*
X7457250Y5593500D03*
X22542000Y11308250D03*
G04 #@! TO.N,5V*
X27147750Y13544500D03*
X13176000Y11309000D03*
X27941500Y13544500D03*
X13731250Y11309000D03*
D15*
X15945000Y11309000D02*
X18180500Y13544500D01*
X27147750Y13544500D02*
X27941500Y13544500D01*
X18180500Y13544500D02*
X27147750Y13544500D01*
X13731250Y11309000D02*
X13176000Y11309000D01*
X13731250Y11309000D02*
X15945000Y11309000D01*
D13*
G04 #@! TO.N,GND_BUS*
X47395500Y7020500D03*
G04 #@! TO.N,GND*
X2063750Y10038750D03*
X12064250Y2421750D03*
X5080000Y3212500D03*
G04 #@! TO.N,GND_BUS*
X38737000Y822000D03*
X38737000Y9874500D03*
G04 #@! TO.N,CAN_RX*
X32390250Y8925500D03*
X23812250Y10752750D03*
D14*
X32390250Y8925500D02*
X30563000Y10752750D01*
X23812250Y10752750D02*
X30563000Y10752750D01*
D16*
G04 #@! TA.AperFunction,Conductor*
G04 #@! TO.N,GND*
G36*
X200000Y299999D02*
X219500Y240672D01*
X299999Y200000D01*
X5127703Y200000D01*
X5127703Y5374739D01*
X5115774Y5376188D01*
X4975385Y5410790D01*
X4964149Y5415051D01*
X4836113Y5482249D01*
X4826230Y5489072D01*
X4717994Y5584960D01*
X4710034Y5593945D01*
X4627888Y5712955D01*
X4622310Y5723583D01*
X4571031Y5858793D01*
X4568159Y5870446D01*
X4550729Y6013996D01*
X4550729Y6026004D01*
X4568159Y6169554D01*
X4571031Y6181207D01*
X4622310Y6316417D01*
X4627888Y6327045D01*
X4710034Y6446055D01*
X4717994Y6455040D01*
X4826230Y6550928D01*
X4836113Y6557751D01*
X4964149Y6624949D01*
X4975385Y6629210D01*
X5115774Y6663812D01*
X5127703Y6665261D01*
X5127703Y9774739D01*
X5115774Y9776188D01*
X4975385Y9810790D01*
X4964149Y9815051D01*
X4836113Y9882249D01*
X4826230Y9889072D01*
X4717994Y9984960D01*
X4710034Y9993945D01*
X4627888Y10112955D01*
X4622310Y10123583D01*
X4571031Y10258793D01*
X4568159Y10270446D01*
X4550729Y10413996D01*
X4550729Y10426004D01*
X4568159Y10569554D01*
X4571031Y10581207D01*
X4622310Y10716417D01*
X4627888Y10727045D01*
X4710034Y10846055D01*
X4717994Y10855040D01*
X4826230Y10950928D01*
X4836113Y10957751D01*
X4964149Y11024949D01*
X4975385Y11029210D01*
X5115774Y11063812D01*
X5127703Y11065261D01*
X5272297Y11065261D01*
X5284226Y11063812D01*
X5424615Y11029210D01*
X5435851Y11024949D01*
X5563887Y10957751D01*
X5573770Y10950928D01*
X5682006Y10855040D01*
X5689966Y10846055D01*
X5772112Y10727045D01*
X5777690Y10716417D01*
X5828969Y10581207D01*
X5831841Y10569554D01*
X5849271Y10426004D01*
X5849271Y10413996D01*
X5831841Y10270446D01*
X5828969Y10258793D01*
X5777690Y10123583D01*
X5772112Y10112955D01*
X5689966Y9993945D01*
X5682006Y9984960D01*
X5573770Y9889072D01*
X5563887Y9882249D01*
X5435851Y9815051D01*
X5424615Y9810790D01*
X5284226Y9776188D01*
X5272297Y9774739D01*
X5127703Y9774739D01*
X5127703Y6665261D01*
X5272297Y6665261D01*
X5284226Y6663812D01*
X5424615Y6629210D01*
X5435851Y6624949D01*
X5563887Y6557751D01*
X5573770Y6550928D01*
X5682006Y6455040D01*
X5689966Y6446055D01*
X5772112Y6327045D01*
X5777690Y6316417D01*
X5828969Y6181207D01*
X5831841Y6169554D01*
X5849271Y6026004D01*
X5849271Y6013996D01*
X5831841Y5870446D01*
X5828969Y5858793D01*
X5777690Y5723583D01*
X5772112Y5712955D01*
X5689966Y5593945D01*
X5682006Y5584960D01*
X5573770Y5489072D01*
X5563887Y5482249D01*
X5435851Y5415051D01*
X5424615Y5410790D01*
X5284226Y5376188D01*
X5272297Y5374739D01*
X5127703Y5374739D01*
X5127703Y200000D01*
X7295998Y200000D01*
X7295998Y917356D01*
X7166650Y934385D01*
X7154094Y937749D01*
X7033555Y987678D01*
X7022300Y994176D01*
X6918791Y1073601D01*
X6909601Y1082791D01*
X6830176Y1186300D01*
X6823678Y1197555D01*
X6773749Y1318094D01*
X6770385Y1330650D01*
X6753356Y1459998D01*
X6753356Y1473002D01*
X6770385Y1602350D01*
X6773749Y1614906D01*
X6823678Y1735445D01*
X6830176Y1746700D01*
X6909601Y1850209D01*
X6923211Y1863819D01*
X6952500Y1934529D01*
X6952500Y4161069D01*
X6953115Y4168882D01*
X6955580Y4184447D01*
X6956811Y4200090D01*
X6956811Y4211882D01*
X6959243Y4227239D01*
X6962887Y4238454D01*
X6966550Y4253710D01*
X6968399Y4265383D01*
X6973203Y4280169D01*
X6978569Y4290700D01*
X6984574Y4305197D01*
X6988219Y4316416D01*
X6995272Y4330258D01*
X7002208Y4339805D01*
X7010406Y4353184D01*
X7015771Y4363713D01*
X7024908Y4376289D01*
X7033257Y4384638D01*
X7043449Y4396571D01*
X7052706Y4409313D01*
X7057790Y4415265D01*
X13084485Y10441960D01*
X13090438Y10447045D01*
X13103180Y10456302D01*
X13115112Y10466493D01*
X13123458Y10474839D01*
X13136036Y10483977D01*
X13146557Y10489338D01*
X13159936Y10497537D01*
X13169488Y10504477D01*
X13169498Y10504482D01*
X13169498Y10759856D01*
X13040150Y10776885D01*
X13027594Y10780249D01*
X12907055Y10830178D01*
X12895800Y10836676D01*
X12792291Y10916101D01*
X12783101Y10925291D01*
X12703676Y11028800D01*
X12697178Y11040055D01*
X12647249Y11160594D01*
X12643885Y11173150D01*
X12626856Y11302498D01*
X12626856Y11315502D01*
X12643885Y11444850D01*
X12647249Y11457406D01*
X12697178Y11577945D01*
X12703676Y11589200D01*
X12783101Y11692709D01*
X12792291Y11701899D01*
X12895800Y11781324D01*
X12907055Y11787822D01*
X13027594Y11837751D01*
X13040150Y11841115D01*
X13169498Y11858144D01*
X13182502Y11858144D01*
X13311850Y11841115D01*
X13324409Y11837750D01*
X13415358Y11800078D01*
X13491892Y11800078D01*
X13582841Y11837750D01*
X13595400Y11841115D01*
X13724748Y11858144D01*
X13737752Y11858144D01*
X13867100Y11841115D01*
X13879656Y11837751D01*
X14000197Y11787821D01*
X14011448Y11781325D01*
X14013613Y11779664D01*
X14015342Y11779077D01*
X14017126Y11778047D01*
X14017331Y11778402D01*
X14074488Y11759000D01*
X14519748Y11759000D01*
X14519748Y12030106D01*
X14390400Y12047135D01*
X14377844Y12050499D01*
X14257305Y12100428D01*
X14246050Y12106926D01*
X14142541Y12186351D01*
X14133351Y12195541D01*
X14053926Y12299050D01*
X14047428Y12310305D01*
X13997499Y12430844D01*
X13994135Y12443400D01*
X13977106Y12572750D01*
X13977105Y12592003D01*
X13947816Y12662709D01*
X12030064Y14580461D01*
X11959354Y14609750D01*
X7770529Y14609750D01*
X7699819Y14580461D01*
X7686209Y14566851D01*
X7582700Y14487426D01*
X7571445Y14480928D01*
X7450906Y14430999D01*
X7438350Y14427635D01*
X7309002Y14410606D01*
X7295998Y14410606D01*
X7166650Y14427635D01*
X7154094Y14430999D01*
X7033555Y14480928D01*
X7022300Y14487426D01*
X6918791Y14566851D01*
X6909601Y14576041D01*
X6830176Y14679550D01*
X6823678Y14690805D01*
X6773749Y14811344D01*
X6770385Y14823900D01*
X6753356Y14953248D01*
X6753356Y14966252D01*
X6770385Y15095600D01*
X6773749Y15108156D01*
X6823678Y15228695D01*
X6830176Y15239950D01*
X6909601Y15343459D01*
X6918791Y15352649D01*
X7022300Y15432074D01*
X7033555Y15438572D01*
X7154094Y15488501D01*
X7166650Y15491865D01*
X7295998Y15508894D01*
X7309002Y15508894D01*
X7438350Y15491865D01*
X7450906Y15488501D01*
X7571445Y15438572D01*
X7582700Y15432074D01*
X7686209Y15352649D01*
X7699819Y15339039D01*
X7770529Y15309750D01*
X12141819Y15309750D01*
X12149632Y15309135D01*
X12165178Y15306673D01*
X12180821Y15305442D01*
X12192634Y15305442D01*
X12207987Y15303011D01*
X12219221Y15299360D01*
X12234484Y15295696D01*
X12246132Y15293851D01*
X12260913Y15289049D01*
X12271425Y15283692D01*
X12285927Y15277686D01*
X12297162Y15274036D01*
X12311014Y15266978D01*
X12320574Y15260032D01*
X12333953Y15251833D01*
X12344464Y15246478D01*
X12357042Y15237339D01*
X12365388Y15228993D01*
X12377319Y15218803D01*
X12390059Y15209547D01*
X12396016Y15204459D01*
X14442791Y13157684D01*
X14513497Y13128395D01*
X14532750Y13128394D01*
X14662100Y13111365D01*
X14674656Y13108001D01*
X14795195Y13058072D01*
X14806450Y13051574D01*
X14909959Y12972149D01*
X14919149Y12962959D01*
X14998574Y12859450D01*
X15005072Y12848195D01*
X15055001Y12727656D01*
X15058365Y12715100D01*
X15075394Y12585752D01*
X15075394Y12572748D01*
X15058365Y12443400D01*
X15055001Y12430844D01*
X15005072Y12310305D01*
X14998574Y12299050D01*
X14919149Y12195541D01*
X14909959Y12186351D01*
X14806450Y12106926D01*
X14795195Y12100428D01*
X14674656Y12050499D01*
X14662100Y12047135D01*
X14532752Y12030106D01*
X14519748Y12030106D01*
X14519748Y11759000D01*
X15717183Y11759000D01*
X15787893Y11788289D01*
X17859772Y13860168D01*
X17865167Y13864843D01*
X17897981Y13889406D01*
X17903542Y13893887D01*
X17931806Y13918379D01*
X17948134Y13928872D01*
X17954494Y13932647D01*
X17971540Y13941955D01*
X18006592Y13955029D01*
X18013186Y13957760D01*
X18047216Y13973301D01*
X18065845Y13978770D01*
X18072991Y13980594D01*
X18091986Y13984727D01*
X18129286Y13987394D01*
X18136385Y13988157D01*
X18176966Y13993992D01*
X18184070Y13994500D01*
X26804512Y13994500D01*
X26861669Y14013902D01*
X26861874Y14013547D01*
X26863658Y14014577D01*
X26865387Y14015164D01*
X26867552Y14016825D01*
X26878803Y14023321D01*
X26999344Y14073251D01*
X27011900Y14076615D01*
X27141248Y14093644D01*
X27154252Y14093644D01*
X27283600Y14076615D01*
X27296156Y14073251D01*
X27416697Y14023321D01*
X27427948Y14016825D01*
X27430113Y14015164D01*
X27431842Y14014577D01*
X27433626Y14013547D01*
X27433831Y14013902D01*
X27490988Y13994500D01*
X27598262Y13994500D01*
X27655419Y14013902D01*
X27655624Y14013547D01*
X27657408Y14014577D01*
X27659137Y14015164D01*
X27661302Y14016825D01*
X27672553Y14023321D01*
X27793094Y14073251D01*
X27805650Y14076615D01*
X27934998Y14093644D01*
X27948002Y14093644D01*
X28077350Y14076615D01*
X28089906Y14073251D01*
X28210445Y14023322D01*
X28221700Y14016824D01*
X28325209Y13937399D01*
X28334399Y13928209D01*
X28413824Y13824700D01*
X28420322Y13813445D01*
X28470251Y13692906D01*
X28473615Y13680350D01*
X28490644Y13551002D01*
X28490644Y13537998D01*
X28473615Y13408650D01*
X28470251Y13396094D01*
X28420322Y13275555D01*
X28413824Y13264300D01*
X28334399Y13160791D01*
X28325209Y13151601D01*
X28221700Y13072176D01*
X28210445Y13065678D01*
X28089906Y13015749D01*
X28077350Y13012385D01*
X27948002Y12995356D01*
X27934998Y12995356D01*
X27805650Y13012385D01*
X27793094Y13015749D01*
X27672553Y13065679D01*
X27661302Y13072175D01*
X27659137Y13073836D01*
X27657408Y13074423D01*
X27655624Y13075453D01*
X27655419Y13075098D01*
X27598262Y13094500D01*
X27490988Y13094500D01*
X27433831Y13075098D01*
X27433626Y13075453D01*
X27431842Y13074423D01*
X27430113Y13073836D01*
X27427948Y13072175D01*
X27416697Y13065679D01*
X27296156Y13015749D01*
X27283600Y13012385D01*
X27154252Y12995356D01*
X27141248Y12995356D01*
X27011900Y13012385D01*
X26999344Y13015749D01*
X26878803Y13065679D01*
X26867552Y13072175D01*
X26865387Y13073836D01*
X26863658Y13074423D01*
X26861874Y13075453D01*
X26861669Y13075098D01*
X26804512Y13094500D01*
X18408317Y13094500D01*
X18337607Y13065211D01*
X16265728Y10993332D01*
X16260333Y10988657D01*
X16227519Y10964094D01*
X16221958Y10959613D01*
X16193694Y10935121D01*
X16177366Y10924628D01*
X16171006Y10920853D01*
X16153960Y10911545D01*
X16118908Y10898471D01*
X16112314Y10895740D01*
X16078284Y10880199D01*
X16059655Y10874730D01*
X16052509Y10872906D01*
X16033514Y10868773D01*
X15996214Y10866106D01*
X15989115Y10865343D01*
X15948534Y10859508D01*
X15941430Y10859000D01*
X14074488Y10859000D01*
X14017331Y10839598D01*
X14017126Y10839953D01*
X14015342Y10838923D01*
X14013613Y10838336D01*
X14011448Y10836675D01*
X14000197Y10830179D01*
X13879656Y10780249D01*
X13867100Y10776885D01*
X13737752Y10759856D01*
X13724748Y10759856D01*
X13595400Y10776885D01*
X13582841Y10780250D01*
X13491892Y10817922D01*
X13415358Y10817922D01*
X13324409Y10780250D01*
X13311850Y10776885D01*
X13182502Y10759856D01*
X13169498Y10759856D01*
X13169498Y10504482D01*
X13183334Y10511532D01*
X13194564Y10515181D01*
X13209061Y10521186D01*
X13219584Y10526548D01*
X13234369Y10531352D01*
X13246022Y10533197D01*
X13261284Y10536861D01*
X13272511Y10540509D01*
X13287866Y10542941D01*
X13299673Y10542941D01*
X13315316Y10544172D01*
X13330868Y10546635D01*
X13338681Y10547250D01*
X14943564Y10547250D01*
X14981831Y10554862D01*
X15012341Y10567499D01*
X15024902Y10570865D01*
X15154248Y10587894D01*
X15167252Y10587894D01*
X15296600Y10570865D01*
X15309156Y10567501D01*
X15429695Y10517572D01*
X15440950Y10511074D01*
X15544459Y10431649D01*
X15553649Y10422459D01*
X15633074Y10318950D01*
X15639572Y10307695D01*
X15689501Y10187156D01*
X15692865Y10174600D01*
X15709894Y10045252D01*
X15709894Y10032248D01*
X15692865Y9902900D01*
X15689501Y9890344D01*
X15639572Y9769805D01*
X15633074Y9758550D01*
X15553649Y9655041D01*
X15544459Y9645851D01*
X15440950Y9566426D01*
X15429695Y9559928D01*
X15309156Y9509999D01*
X15296600Y9506635D01*
X15167252Y9489606D01*
X15154248Y9489606D01*
X15024900Y9506635D01*
X15012344Y9509999D01*
X14891805Y9559928D01*
X14880550Y9566426D01*
X14777041Y9645851D01*
X14767851Y9655041D01*
X14688426Y9758550D01*
X14681928Y9769805D01*
X14675419Y9785519D01*
X14634700Y9832868D01*
X14583032Y9847250D01*
X13521146Y9847250D01*
X13450436Y9817961D01*
X7681789Y4049314D01*
X7652500Y3978604D01*
X7652500Y1934529D01*
X7681789Y1863819D01*
X7695399Y1850209D01*
X7774824Y1746700D01*
X7781322Y1735445D01*
X7831251Y1614906D01*
X7834615Y1602350D01*
X7851644Y1473002D01*
X7851644Y1459998D01*
X7834615Y1330650D01*
X7831251Y1318094D01*
X7781322Y1197555D01*
X7774824Y1186300D01*
X7695399Y1082791D01*
X7686209Y1073601D01*
X7582700Y994176D01*
X7571445Y987678D01*
X7450906Y937749D01*
X7438350Y934385D01*
X7309002Y917356D01*
X7295998Y917356D01*
X7295998Y200000D01*
X14122248Y200000D01*
X14122248Y6790356D01*
X13992900Y6807385D01*
X13980344Y6810749D01*
X13859805Y6860678D01*
X13848550Y6867176D01*
X13745041Y6946601D01*
X13735851Y6955791D01*
X13656426Y7059300D01*
X13649928Y7070555D01*
X13599999Y7191094D01*
X13596635Y7203650D01*
X13579606Y7332998D01*
X13579606Y7346002D01*
X13596635Y7475350D01*
X13599999Y7487906D01*
X13649928Y7608445D01*
X13656426Y7619700D01*
X13735851Y7723209D01*
X13745041Y7732399D01*
X13848550Y7811824D01*
X13859805Y7818322D01*
X13980344Y7868251D01*
X13992900Y7871615D01*
X14122250Y7888644D01*
X14135246Y7888645D01*
X14163213Y7884963D01*
X14206842Y7892460D01*
X14207852Y7889351D01*
X14226564Y7895431D01*
X14241061Y7901436D01*
X14251584Y7906798D01*
X14266369Y7911602D01*
X14278022Y7913447D01*
X14293284Y7917111D01*
X14304511Y7920759D01*
X14319866Y7923191D01*
X14331673Y7923191D01*
X14347316Y7924422D01*
X14362868Y7926885D01*
X14370681Y7927500D01*
X20789748Y7927500D01*
X20789748Y8219606D01*
X20660400Y8236635D01*
X20647844Y8239999D01*
X20527305Y8289928D01*
X20516050Y8296426D01*
X20412541Y8375851D01*
X20398931Y8389461D01*
X20328221Y8418750D01*
X14449431Y8418750D01*
X14441618Y8419365D01*
X14426059Y8421829D01*
X14410416Y8423060D01*
X14398618Y8423060D01*
X14383261Y8425492D01*
X14372040Y8429138D01*
X14356784Y8432801D01*
X14345115Y8434649D01*
X14330331Y8439453D01*
X14319805Y8444816D01*
X14305309Y8450821D01*
X14294084Y8454468D01*
X14280237Y8461523D01*
X14270689Y8468460D01*
X14257313Y8476657D01*
X14246788Y8482020D01*
X14234211Y8491158D01*
X14225859Y8499510D01*
X14213926Y8509701D01*
X14203073Y8517586D01*
X14141804Y8533148D01*
X14141804Y8536356D01*
X14122248Y8536356D01*
X13992900Y8553385D01*
X13980344Y8556749D01*
X13859805Y8606678D01*
X13848550Y8613176D01*
X13745041Y8692601D01*
X13735851Y8701791D01*
X13656426Y8805300D01*
X13649928Y8816555D01*
X13599999Y8937094D01*
X13596635Y8949650D01*
X13579606Y9078998D01*
X13579606Y9092002D01*
X13596635Y9221350D01*
X13599999Y9233906D01*
X13649928Y9354445D01*
X13656426Y9365700D01*
X13735851Y9469209D01*
X13745041Y9478399D01*
X13848550Y9557824D01*
X13859805Y9564322D01*
X13980344Y9614251D01*
X13992900Y9617615D01*
X14122248Y9634644D01*
X14135252Y9634644D01*
X14264600Y9617615D01*
X14277156Y9614251D01*
X14397695Y9564322D01*
X14408950Y9557824D01*
X14512459Y9478399D01*
X14521649Y9469209D01*
X14601074Y9365700D01*
X14607572Y9354445D01*
X14657502Y9233903D01*
X14660864Y9221355D01*
X14662925Y9205699D01*
X14690001Y9149424D01*
X14762069Y9118750D01*
X20328221Y9118750D01*
X20398931Y9148039D01*
X20412541Y9161649D01*
X20516050Y9241074D01*
X20527305Y9247572D01*
X20647844Y9297501D01*
X20660400Y9300865D01*
X20789748Y9317894D01*
X20802752Y9317894D01*
X20932100Y9300865D01*
X20944656Y9297501D01*
X21065195Y9247572D01*
X21076450Y9241074D01*
X21179959Y9161649D01*
X21189149Y9152459D01*
X21268574Y9048950D01*
X21275072Y9037695D01*
X21325001Y8917156D01*
X21328365Y8904600D01*
X21345394Y8775252D01*
X21345394Y8762248D01*
X21328365Y8632900D01*
X21325001Y8620344D01*
X21275072Y8499805D01*
X21268574Y8488550D01*
X21189149Y8385041D01*
X21179959Y8375851D01*
X21076450Y8296426D01*
X21065195Y8289928D01*
X20944656Y8239999D01*
X20932100Y8236635D01*
X20802752Y8219606D01*
X20789748Y8219606D01*
X20789748Y7927500D01*
X21359721Y7927500D01*
X21430431Y7956789D01*
X21444041Y7970399D01*
X21547550Y8049824D01*
X21558805Y8056322D01*
X21679344Y8106251D01*
X21691900Y8109615D01*
X21821248Y8126644D01*
X21834252Y8126644D01*
X21963600Y8109615D01*
X21976156Y8106251D01*
X22096695Y8056322D01*
X22107950Y8049824D01*
X22211459Y7970399D01*
X22220649Y7961209D01*
X22300074Y7857700D01*
X22306572Y7846445D01*
X22356501Y7725906D01*
X22359865Y7713350D01*
X22376894Y7584002D01*
X22376894Y7570998D01*
X22359865Y7441650D01*
X22356501Y7429094D01*
X22306572Y7308555D01*
X22300074Y7297300D01*
X22220649Y7193791D01*
X22211459Y7184601D01*
X22107950Y7105176D01*
X22096695Y7098678D01*
X21976156Y7048749D01*
X21963600Y7045385D01*
X21834252Y7028356D01*
X21821248Y7028356D01*
X21691900Y7045385D01*
X21679344Y7048749D01*
X21558805Y7098678D01*
X21547550Y7105176D01*
X21444041Y7184601D01*
X21430431Y7198211D01*
X21359721Y7227500D01*
X14739398Y7227500D01*
X14680071Y7208000D01*
X14647011Y7165769D01*
X14607572Y7070555D01*
X14601074Y7059300D01*
X14521649Y6955791D01*
X14512459Y6946601D01*
X14408950Y6867176D01*
X14397695Y6860678D01*
X14277156Y6810749D01*
X14264600Y6807385D01*
X14135252Y6790356D01*
X14122248Y6790356D01*
X14122248Y200000D01*
X15500172Y200000D01*
X15559499Y219500D01*
X15595688Y270395D01*
X15594626Y332836D01*
X15529200Y395692D01*
X15499511Y404698D01*
X15490466Y408445D01*
X15327376Y495618D01*
X15319240Y501055D01*
X15176292Y618368D01*
X15169368Y625292D01*
X15052055Y768240D01*
X15046618Y776376D01*
X14959445Y939466D01*
X14955698Y948510D01*
X14902017Y1125474D01*
X14900108Y1135071D01*
X14881741Y1321557D01*
X14881500Y1326450D01*
X14881500Y1924550D01*
X14881741Y1929443D01*
X14900108Y2115929D01*
X14902017Y2125526D01*
X14955698Y2302490D01*
X14959445Y2311534D01*
X15046618Y2474624D01*
X15052055Y2482760D01*
X15169368Y2625708D01*
X15176292Y2632632D01*
X15319240Y2749945D01*
X15327376Y2755382D01*
X15475268Y2834432D01*
X15526896Y2906976D01*
X15528078Y2914437D01*
X15529310Y2930084D01*
X15529310Y2941883D01*
X15531742Y2957237D01*
X15535388Y2968460D01*
X15539049Y2983712D01*
X15540898Y2995384D01*
X15545701Y3010165D01*
X15551064Y3020690D01*
X15557070Y3035190D01*
X15560716Y3046413D01*
X15567774Y3060264D01*
X15574712Y3069813D01*
X15582913Y3083195D01*
X15588274Y3093718D01*
X15597407Y3106288D01*
X15605757Y3114638D01*
X15615948Y3126570D01*
X15625205Y3139312D01*
X15630290Y3145265D01*
X16260235Y3775210D01*
X16266188Y3780295D01*
X16278930Y3789552D01*
X16290862Y3799743D01*
X16299208Y3808089D01*
X16311786Y3817227D01*
X16322307Y3822588D01*
X16335686Y3830787D01*
X16345238Y3837727D01*
X16359084Y3844782D01*
X16370314Y3848431D01*
X16384811Y3854436D01*
X16395334Y3859798D01*
X16410119Y3864602D01*
X16421772Y3866447D01*
X16437034Y3870111D01*
X16448261Y3873759D01*
X16463616Y3876191D01*
X16475423Y3876191D01*
X16491066Y3877422D01*
X16506618Y3879885D01*
X16514431Y3880500D01*
X19028322Y3880500D01*
X19097544Y3908331D01*
X22518079Y7189229D01*
X22548856Y7261397D01*
X22548856Y7267002D01*
X22565885Y7396350D01*
X22569249Y7408906D01*
X22619178Y7529445D01*
X22625676Y7540700D01*
X22705101Y7644209D01*
X22714291Y7653399D01*
X22817800Y7732824D01*
X22829055Y7739322D01*
X22949594Y7789251D01*
X22962150Y7792615D01*
X23091498Y7809644D01*
X23104502Y7809644D01*
X23233850Y7792615D01*
X23246406Y7789251D01*
X23366945Y7739322D01*
X23378200Y7732824D01*
X23481709Y7653399D01*
X23490899Y7644209D01*
X23570324Y7540700D01*
X23576822Y7529445D01*
X23626751Y7408906D01*
X23630115Y7396350D01*
X23647144Y7267002D01*
X23647144Y7253998D01*
X23630115Y7124650D01*
X23626751Y7112094D01*
X23594721Y7034767D01*
X23590033Y6972493D01*
X23623205Y6919582D01*
X23687108Y6896500D01*
X24773221Y6896500D01*
X24843931Y6925789D01*
X24857541Y6939399D01*
X24961050Y7018824D01*
X24972305Y7025322D01*
X25092844Y7075251D01*
X25105400Y7078615D01*
X25234748Y7095644D01*
X25247752Y7095644D01*
X25377100Y7078615D01*
X25389656Y7075251D01*
X25510195Y7025322D01*
X25521450Y7018824D01*
X25624959Y6939399D01*
X25634149Y6930209D01*
X25713574Y6826700D01*
X25720072Y6815445D01*
X25770001Y6694906D01*
X25773365Y6682350D01*
X25790394Y6553002D01*
X25790394Y6539998D01*
X25773365Y6410650D01*
X25770001Y6398094D01*
X25720072Y6277555D01*
X25713574Y6266300D01*
X25634149Y6162791D01*
X25624959Y6153601D01*
X25521450Y6074176D01*
X25510195Y6067678D01*
X25389656Y6017749D01*
X25377100Y6014385D01*
X25247752Y5997356D01*
X25234748Y5997356D01*
X25105400Y6014385D01*
X25092844Y6017749D01*
X24972305Y6067678D01*
X24961050Y6074176D01*
X24857541Y6153601D01*
X24843931Y6167211D01*
X24773221Y6196500D01*
X23522396Y6196500D01*
X23451686Y6167211D01*
X19424277Y2139802D01*
X19395470Y2059290D01*
X19408259Y1929443D01*
X19408500Y1924550D01*
X19408500Y1326450D01*
X19408259Y1321557D01*
X19389892Y1135071D01*
X19387983Y1125474D01*
X19334302Y948510D01*
X19330555Y939466D01*
X19243382Y776376D01*
X19237945Y768240D01*
X19120632Y625292D01*
X19113708Y618368D01*
X18970760Y501055D01*
X18962624Y495618D01*
X18799534Y408445D01*
X18790489Y404698D01*
X18760800Y395692D01*
X18709688Y359810D01*
X18689831Y300601D01*
X18708973Y241158D01*
X18789828Y200000D01*
X22513403Y200000D01*
X22572730Y219500D01*
X22608919Y270395D01*
X22607857Y332836D01*
X22574530Y375941D01*
X22575232Y376643D01*
X22569743Y382132D01*
X22568959Y383146D01*
X22568266Y383609D01*
X22554608Y397267D01*
X22522196Y445773D01*
X22514803Y463623D01*
X22502458Y525683D01*
X22501500Y535414D01*
X22501500Y2715586D01*
X22502458Y2725317D01*
X22514803Y2787377D01*
X22522196Y2805227D01*
X22554608Y2853733D01*
X22568267Y2867392D01*
X22616773Y2899804D01*
X22634623Y2907197D01*
X22696683Y2919542D01*
X22706414Y2920500D01*
X24283586Y2920500D01*
X24293317Y2919542D01*
X24355377Y2907197D01*
X24373227Y2899804D01*
X24421733Y2867392D01*
X24435392Y2853733D01*
X24467804Y2805227D01*
X24475197Y2787377D01*
X24487542Y2725317D01*
X24488500Y2715586D01*
X24488500Y535414D01*
X24487542Y525683D01*
X24475197Y463623D01*
X24467804Y445773D01*
X24435392Y397267D01*
X24421734Y383609D01*
X24421041Y383146D01*
X24420212Y382087D01*
X24414768Y376643D01*
X24415431Y375980D01*
X24382546Y333972D01*
X24380731Y271548D01*
X24416304Y220221D01*
X24476597Y200000D01*
X32538998Y200000D01*
X32538998Y5834356D01*
X32409650Y5851385D01*
X32397094Y5854749D01*
X32276555Y5904678D01*
X32265300Y5911176D01*
X32161791Y5990601D01*
X32152601Y5999791D01*
X32073176Y6103300D01*
X32066678Y6114555D01*
X32016749Y6235094D01*
X32013385Y6247650D01*
X31996356Y6376998D01*
X31996356Y6390002D01*
X32013385Y6519350D01*
X32016749Y6531906D01*
X32066678Y6652445D01*
X32073176Y6663700D01*
X32152601Y6767209D01*
X32161791Y6776399D01*
X32265300Y6855824D01*
X32276555Y6862322D01*
X32397094Y6912251D01*
X32409650Y6915615D01*
X32538998Y6932644D01*
X32551995Y6932644D01*
X32609739Y6925042D01*
X32693501Y6953476D01*
X32851711Y7111686D01*
X32881000Y7182396D01*
X32881000Y8411959D01*
X32861500Y8471286D01*
X32810605Y8507475D01*
X32748164Y8506413D01*
X32720125Y8491293D01*
X32670451Y8453176D01*
X32659195Y8446678D01*
X32538656Y8396749D01*
X32526100Y8393385D01*
X32396752Y8376356D01*
X32383748Y8376356D01*
X32254400Y8393385D01*
X32241844Y8396749D01*
X32121305Y8446678D01*
X32110050Y8453176D01*
X32006541Y8532601D01*
X31997351Y8541791D01*
X31917926Y8645300D01*
X31911428Y8656555D01*
X31861499Y8777094D01*
X31858135Y8789650D01*
X31841106Y8919000D01*
X31841105Y8938253D01*
X31811816Y9008959D01*
X30447314Y10373461D01*
X30376604Y10402750D01*
X24280279Y10402750D01*
X24209569Y10373461D01*
X24195959Y10359851D01*
X24092450Y10280426D01*
X24081195Y10273928D01*
X23960656Y10223999D01*
X23948100Y10220635D01*
X23818752Y10203606D01*
X23805748Y10203606D01*
X23676400Y10220635D01*
X23663844Y10223999D01*
X23543305Y10273928D01*
X23532050Y10280426D01*
X23428541Y10359851D01*
X23419351Y10369041D01*
X23339926Y10472550D01*
X23333428Y10483805D01*
X23283499Y10604344D01*
X23280135Y10616900D01*
X23263106Y10746248D01*
X23263106Y10759252D01*
X23280135Y10888600D01*
X23283499Y10901156D01*
X23333428Y11021695D01*
X23339926Y11032950D01*
X23387907Y11095481D01*
X23408552Y11154419D01*
X23369447Y11235691D01*
X23269541Y11312351D01*
X23260351Y11321541D01*
X23180926Y11425050D01*
X23174428Y11436305D01*
X23124499Y11556844D01*
X23121135Y11569400D01*
X23104106Y11698748D01*
X23104106Y11711752D01*
X23121135Y11841100D01*
X23124499Y11853656D01*
X23174428Y11974195D01*
X23180926Y11985450D01*
X23260351Y12088959D01*
X23269541Y12098149D01*
X23373050Y12177574D01*
X23384305Y12184072D01*
X23504844Y12234001D01*
X23517400Y12237365D01*
X23646748Y12254394D01*
X23659752Y12254394D01*
X23789100Y12237365D01*
X23801656Y12234001D01*
X23922195Y12184072D01*
X23933450Y12177574D01*
X24036959Y12098149D01*
X24050569Y12084539D01*
X24121279Y12055250D01*
X31035819Y12055250D01*
X31043632Y12054635D01*
X31059184Y12052172D01*
X31074827Y12050941D01*
X31086632Y12050941D01*
X31101987Y12048509D01*
X31113214Y12044861D01*
X31128477Y12041197D01*
X31140132Y12039351D01*
X31154915Y12034548D01*
X31165433Y12029189D01*
X31179932Y12023184D01*
X31191157Y12019537D01*
X31205015Y12012476D01*
X31214565Y12005537D01*
X31227944Y11997338D01*
X31238467Y11991976D01*
X31251038Y11982843D01*
X31259388Y11974493D01*
X31271320Y11964302D01*
X31284062Y11955045D01*
X31290015Y11949960D01*
X33475710Y9764265D01*
X33480795Y9758312D01*
X33490052Y9745570D01*
X33500243Y9733638D01*
X33508589Y9725292D01*
X33517727Y9712714D01*
X33523088Y9702193D01*
X33531287Y9688814D01*
X33538227Y9679262D01*
X33545282Y9665415D01*
X33548930Y9654187D01*
X33554937Y9639685D01*
X33560298Y9629163D01*
X33565101Y9614384D01*
X33566949Y9602715D01*
X33570612Y9587456D01*
X33574259Y9576233D01*
X33576690Y9560881D01*
X33576690Y9549084D01*
X33577921Y9533441D01*
X33580385Y9517882D01*
X33581000Y9510069D01*
X33581000Y6999931D01*
X33580385Y6992118D01*
X33577920Y6976553D01*
X33576689Y6960910D01*
X33576689Y6949118D01*
X33574257Y6933761D01*
X33570613Y6922546D01*
X33566950Y6907290D01*
X33565101Y6895617D01*
X33560297Y6880831D01*
X33554931Y6870300D01*
X33548926Y6855803D01*
X33545281Y6844584D01*
X33538228Y6830742D01*
X33531292Y6821195D01*
X33523094Y6807816D01*
X33517729Y6797287D01*
X33508592Y6784711D01*
X33500243Y6776362D01*
X33490051Y6764429D01*
X33480794Y6751687D01*
X33475710Y6745735D01*
X33116777Y6386802D01*
X33088344Y6329145D01*
X33077615Y6247650D01*
X33074251Y6235094D01*
X33024322Y6114555D01*
X33017824Y6103300D01*
X32938399Y5999791D01*
X32929209Y5990601D01*
X32825700Y5911176D01*
X32814445Y5904678D01*
X32693906Y5854749D01*
X32681350Y5851385D01*
X32552002Y5834356D01*
X32538998Y5834356D01*
X32538998Y200000D01*
X33767001Y200000D01*
X33826328Y219500D01*
X33867000Y299999D01*
X33867000Y16140001D01*
X33847500Y16199328D01*
X33767001Y16240000D01*
X299999Y16240000D01*
X240672Y16220500D01*
X200000Y16140001D01*
X200000Y299999D01*
G37*
G04 #@! TO.N,GND_BUS*
G36*
X38160000Y399999D02*
X38179500Y340672D01*
X38259999Y300000D01*
X49271962Y300000D01*
X49271962Y1570000D01*
X49268048Y1570154D01*
X49028307Y1589021D01*
X49020583Y1590245D01*
X48788667Y1645923D01*
X48781211Y1648346D01*
X48560865Y1739616D01*
X48553883Y1743174D01*
X48350527Y1867790D01*
X48344191Y1872393D01*
X48162830Y2027290D01*
X48157290Y2032830D01*
X48002393Y2214191D01*
X47997790Y2220527D01*
X47873174Y2423883D01*
X47869616Y2430865D01*
X47778346Y2651211D01*
X47775923Y2658667D01*
X47720245Y2890583D01*
X47719021Y2898307D01*
X47700308Y3136086D01*
X47700308Y3143914D01*
X47719021Y3381693D01*
X47720245Y3389417D01*
X47775923Y3621333D01*
X47778346Y3628789D01*
X47869616Y3849135D01*
X47873174Y3856117D01*
X47997790Y4059473D01*
X48002393Y4065809D01*
X48157290Y4247170D01*
X48162830Y4252710D01*
X48344191Y4407607D01*
X48350527Y4412210D01*
X48553883Y4536826D01*
X48560865Y4540384D01*
X48781211Y4631654D01*
X48788667Y4634077D01*
X49020583Y4689755D01*
X49028307Y4690979D01*
X49268048Y4709846D01*
X49271961Y4710000D01*
X49271962Y4710000D01*
X49271962Y11730000D01*
X49268048Y11730154D01*
X49028307Y11749021D01*
X49020583Y11750245D01*
X48788667Y11805923D01*
X48781211Y11808346D01*
X48560865Y11899616D01*
X48553883Y11903174D01*
X48350527Y12027790D01*
X48344191Y12032393D01*
X48162830Y12187290D01*
X48157290Y12192830D01*
X48002393Y12374191D01*
X47997790Y12380527D01*
X47873174Y12583883D01*
X47869616Y12590865D01*
X47778346Y12811211D01*
X47775923Y12818667D01*
X47720245Y13050583D01*
X47719021Y13058307D01*
X47700308Y13296086D01*
X47700308Y13303914D01*
X47719021Y13541693D01*
X47720245Y13549417D01*
X47775923Y13781333D01*
X47778346Y13788789D01*
X47869616Y14009135D01*
X47873174Y14016117D01*
X47997790Y14219473D01*
X48002393Y14225809D01*
X48157290Y14407170D01*
X48162830Y14412710D01*
X48344191Y14567607D01*
X48350527Y14572210D01*
X48553883Y14696826D01*
X48560865Y14700384D01*
X48781211Y14791654D01*
X48788667Y14794077D01*
X49020583Y14849755D01*
X49028307Y14850979D01*
X49268048Y14869846D01*
X49271961Y14870000D01*
X50728039Y14870000D01*
X50731952Y14869846D01*
X50971693Y14850979D01*
X50979417Y14849755D01*
X51211333Y14794077D01*
X51218789Y14791654D01*
X51439135Y14700384D01*
X51446117Y14696826D01*
X51649473Y14572210D01*
X51655809Y14567607D01*
X51837170Y14412710D01*
X51842710Y14407170D01*
X51997607Y14225809D01*
X52002210Y14219473D01*
X52126826Y14016117D01*
X52130384Y14009135D01*
X52221654Y13788789D01*
X52224077Y13781333D01*
X52279755Y13549417D01*
X52280979Y13541693D01*
X52299692Y13303914D01*
X52299692Y13296086D01*
X52280979Y13058307D01*
X52279755Y13050583D01*
X52224077Y12818667D01*
X52221654Y12811211D01*
X52130384Y12590865D01*
X52126826Y12583883D01*
X52002210Y12380527D01*
X51997607Y12374191D01*
X51842710Y12192830D01*
X51837170Y12187290D01*
X51655809Y12032393D01*
X51649473Y12027790D01*
X51446117Y11903174D01*
X51439135Y11899616D01*
X51218789Y11808346D01*
X51211333Y11805923D01*
X50979417Y11750245D01*
X50971693Y11749021D01*
X50731952Y11730154D01*
X50728038Y11730000D01*
X49271962Y11730000D01*
X49271962Y4710000D01*
X50728039Y4710000D01*
X50731952Y4709846D01*
X50971693Y4690979D01*
X50979417Y4689755D01*
X51211333Y4634077D01*
X51218789Y4631654D01*
X51439135Y4540384D01*
X51446117Y4536826D01*
X51649473Y4412210D01*
X51655809Y4407607D01*
X51837170Y4252710D01*
X51842710Y4247170D01*
X51997607Y4065809D01*
X52002210Y4059473D01*
X52126826Y3856117D01*
X52130384Y3849135D01*
X52221654Y3628789D01*
X52224077Y3621333D01*
X52279755Y3389417D01*
X52280979Y3381693D01*
X52299692Y3143914D01*
X52299692Y3136086D01*
X52280979Y2898307D01*
X52279755Y2890583D01*
X52224077Y2658667D01*
X52221654Y2651211D01*
X52130384Y2430865D01*
X52126826Y2423883D01*
X52002210Y2220527D01*
X51997607Y2214191D01*
X51842710Y2032830D01*
X51837170Y2027290D01*
X51655809Y1872393D01*
X51649473Y1867790D01*
X51446117Y1743174D01*
X51439135Y1739616D01*
X51218789Y1648346D01*
X51211333Y1645923D01*
X50979417Y1590245D01*
X50971693Y1589021D01*
X50731952Y1570154D01*
X50728038Y1570000D01*
X49271962Y1570000D01*
X49271962Y300000D01*
X59600001Y300000D01*
X59659328Y319500D01*
X59700000Y399999D01*
X59700000Y16040001D01*
X59680500Y16099328D01*
X59600001Y16140000D01*
X38259999Y16140000D01*
X38200672Y16120500D01*
X38160000Y16040001D01*
X38160000Y399999D01*
G37*
G04 --- BOARD END --- *
G04 #@! TF.MD5,70876c3d4252aebaf0ae6d6333d14c76*
M02*
