G04 --- HEADER BEGIN --- *
G04 #@! TF.GenerationSoftware,LibrePCB,LibrePCB,0.2.0-unstable*
G04 #@! TF.CreationDate,2023-07-28T15:27:41*
G04 #@! TF.ProjectId,can2usb,565da67e-d1db-4e60-9fc1-0ba8a5c8bd0e,v1*
G04 #@! TF.Part,Single*
G04 #@! TF.SameCoordinates*
G04 #@! TF.FileFunction,Soldermask,Top*
G04 #@! TF.FilePolarity,Negative*
%FSLAX66Y66*%
%MOMM*%
G01*
G75*
G04 --- HEADER END --- *
G04 --- APERTURE LIST BEGIN --- *
%AMROUNDEDRECT10*20,1,1.2,-0.55,0.0,0.55,0.0,90.0*20,1,1.0,-0.65,0.0,0.65,0.0,90.0*1,1,0.2,-0.5,-0.55*1,1,0.2,-0.5,0.55*1,1,0.2,0.5,0.55*1,1,0.2,0.5,-0.55*%
%ADD10ROUNDEDRECT10*%
%AMROUNDEDRECT11*20,1,1.2,-0.55,0.0,0.55,0.0,0.0*20,1,1.0,-0.65,0.0,0.65,0.0,0.0*1,1,0.2,-0.55,0.5*1,1,0.2,0.55,0.5*1,1,0.2,0.55,-0.5*1,1,0.2,-0.55,-0.5*%
%ADD11ROUNDEDRECT11*%
%ADD12O,1.787X2.39*%
%AMROUNDEDRECT13*20,1,1.787,-1.095,0.0,1.095,0.0,90.0*20,1,1.587,-1.195,0.0,1.195,0.0,90.0*1,1,0.2,-0.7935,-1.095*1,1,0.2,-0.7935,1.095*1,1,0.2,0.7935,1.095*1,1,0.2,0.7935,-1.095*%
%ADD13ROUNDEDRECT13*%
%AMROUNDEDRECT14*20,1,0.42,-0.55,0.0,0.55,0.0,0.0*20,1,0.22,-0.65,0.0,0.65,0.0,0.0*1,1,0.2,-0.55,0.11*1,1,0.2,0.55,0.11*1,1,0.2,0.55,-0.11*1,1,0.2,-0.55,-0.11*%
%ADD14ROUNDEDRECT14*%
%AMROUNDEDRECT15*20,1,0.42,-0.55,0.0,0.55,0.0,90.0*20,1,0.22,-0.65,0.0,0.65,0.0,90.0*1,1,0.2,-0.11,-0.55*1,1,0.2,-0.11,0.55*1,1,0.2,0.11,0.55*1,1,0.2,0.11,-0.55*%
%ADD15ROUNDEDRECT15*%
%AMROUNDEDRECT16*20,1,0.95,-0.625,0.0,0.625,0.0,90.0*20,1,0.75,-0.725,0.0,0.725,0.0,90.0*1,1,0.2,-0.375,-0.625*1,1,0.2,-0.375,0.625*1,1,0.2,0.375,0.625*1,1,0.2,0.375,-0.625*%
%ADD16ROUNDEDRECT16*%
%AMROUNDEDRECT17*20,1,0.95,-0.4,0.0,0.4,0.0,0.0*20,1,0.75,-0.5,0.0,0.5,0.0,0.0*1,1,0.2,-0.4,0.375*1,1,0.2,0.4,0.375*1,1,0.2,0.4,-0.375*1,1,0.2,-0.4,-0.375*%
%ADD17ROUNDEDRECT17*%
%ADD18O,4.2X2.74*%
%AMROUNDEDRECT19*20,1,1.4,-0.6,0.0,0.6,0.0,0.0*20,1,1.2,-0.7,0.0,0.7,0.0,0.0*1,1,0.2,-0.6,0.6*1,1,0.2,0.6,0.6*1,1,0.2,0.6,-0.6*1,1,0.2,-0.6,-0.6*%
%ADD19ROUNDEDRECT19*%
%AMROUNDEDRECT20*20,1,0.95,-0.4,0.0,0.4,0.0,90.0*20,1,0.75,-0.5,0.0,0.5,0.0,90.0*1,1,0.2,-0.375,-0.4*1,1,0.2,-0.375,0.4*1,1,0.2,0.375,0.4*1,1,0.2,0.375,-0.4*%
%ADD20ROUNDEDRECT20*%
%AMROUNDEDRECT21*20,1,1.2,-0.7,0.0,0.7,0.0,0.0*20,1,1.0,-0.8,0.0,0.8,0.0,0.0*1,1,0.2,-0.7,0.5*1,1,0.2,0.7,0.5*1,1,0.2,0.7,-0.5*1,1,0.2,-0.7,-0.5*%
%ADD21ROUNDEDRECT21*%
%AMROUNDEDRECT22*20,1,1.8,-0.9,0.0,0.9,0.0,0.0*20,1,1.6,-1.0,0.0,1.0,0.0,0.0*1,1,0.2,-0.9,0.8*1,1,0.2,0.9,0.8*1,1,0.2,0.9,-0.8*1,1,0.2,-0.9,-0.8*%
%ADD22ROUNDEDRECT22*%
%AMROUNDEDRECT23*20,1,0.68,-0.7675,0.0,0.7675,0.0,0.0*20,1,0.48,-0.8675,0.0,0.8675,0.0,0.0*1,1,0.2,-0.7675,0.24*1,1,0.2,0.7675,0.24*1,1,0.2,0.7675,-0.24*1,1,0.2,-0.7675,-0.24*%
%ADD23ROUNDEDRECT23*%
%AMROUNDEDRECT24*20,1,0.8,-0.55,0.0,0.55,0.0,0.0*20,1,0.6,-0.65,0.0,0.65,0.0,0.0*1,1,0.2,-0.55,0.3*1,1,0.2,0.55,0.3*1,1,0.2,0.55,-0.3*1,1,0.2,-0.55,-0.3*%
%ADD24ROUNDEDRECT24*%
%AMROUNDEDRECT25*20,1,2.2,-1.25,0.0,1.25,0.0,0.0*20,1,2.0,-1.35,0.0,1.35,0.0,0.0*1,1,0.2,-1.25,1.0*1,1,0.2,1.25,1.0*1,1,0.2,1.25,-1.0*1,1,0.2,-1.25,-1.0*%
%ADD25ROUNDEDRECT25*%
%AMROUNDEDRECT26*20,1,0.7,-1.15,0.0,1.15,0.0,0.0*20,1,0.5,-1.25,0.0,1.25,0.0,0.0*1,1,0.2,-1.15,0.25*1,1,0.2,1.15,0.25*1,1,0.2,1.15,-0.25*1,1,0.2,-1.15,-0.25*%
%ADD26ROUNDEDRECT26*%
%ADD27C,1.1*%
G04 --- APERTURE LIST END --- *
G04 --- BOARD BEGIN --- *
D10*
G04 #@! TO.C,C2*
X14605000Y13792000D03*
X14605000Y15492000D03*
D11*
G04 #@! TO.C,C1*
X10580000Y12419500D03*
X12280000Y12419500D03*
D10*
G04 #@! TO.C,C8*
X29415000Y14206000D03*
X29415000Y12506000D03*
D12*
G04 #@! TO.C,J3*
X20955000Y1625500D03*
D13*
X23495000Y1625500D03*
D12*
X15875000Y1625500D03*
X18415000Y1625500D03*
D14*
G04 #@! TO.C,U1*
X25263750Y8130000D03*
X25263750Y12130000D03*
X25263750Y11630000D03*
X16963750Y8130000D03*
D15*
X21863750Y5730000D03*
D14*
X16963750Y11630000D03*
X16963750Y7130000D03*
D15*
X18363750Y5730000D03*
D14*
X25263750Y9130000D03*
X25263750Y7130000D03*
D15*
X18363750Y14030000D03*
X22363750Y5730000D03*
D14*
X25263750Y11130000D03*
D15*
X22363750Y14030000D03*
X19863750Y14030000D03*
D14*
X16963750Y8630000D03*
X16963750Y11130000D03*
X16963750Y12130000D03*
D15*
X19363750Y14030000D03*
X20863750Y5730000D03*
X18863750Y14030000D03*
D14*
X16963750Y7630000D03*
D15*
X23863750Y14030000D03*
X20363750Y5730000D03*
D14*
X25263750Y8630000D03*
D15*
X21363750Y14030000D03*
X20863750Y14030000D03*
X18863750Y5730000D03*
D14*
X16963750Y9630000D03*
D15*
X23363750Y14030000D03*
D14*
X25263750Y12630000D03*
X25263750Y7630000D03*
D15*
X19363750Y5730000D03*
X22863750Y5730000D03*
X21863750Y14030000D03*
D14*
X16963750Y9130000D03*
X16963750Y10130000D03*
D15*
X20363750Y14030000D03*
D14*
X25263750Y9630000D03*
D15*
X23863750Y5730000D03*
D14*
X25263750Y10630000D03*
X16963750Y10630000D03*
D15*
X22863750Y14030000D03*
X23363750Y5730000D03*
X19863750Y5730000D03*
D14*
X16963750Y12630000D03*
X25263750Y10130000D03*
D15*
X21363750Y5730000D03*
D10*
G04 #@! TO.C,C9*
X27666000Y10072000D03*
X27666000Y8372000D03*
D16*
G04 #@! TO.C,F1*
X12405000Y10832000D03*
X10455000Y10832000D03*
D17*
G04 #@! TO.C,R1*
X27825000Y5863000D03*
X27825000Y4313000D03*
D18*
G04 #@! TO.C,J2*
X50000000Y3140000D03*
X50000000Y8220000D03*
X50000000Y13300000D03*
D19*
G04 #@! TO.C,LED2*
X3431250Y1466500D03*
X1331250Y1466500D03*
D20*
G04 #@! TO.C,R15*
X6331250Y1466500D03*
X4781250Y1466500D03*
D21*
G04 #@! TO.C,D1*
X44672166Y3986300D03*
X46872166Y4936300D03*
X44672166Y5886300D03*
D22*
G04 #@! TO.C,C7*
X27548750Y15040250D03*
X27548750Y12240250D03*
D10*
G04 #@! TO.C,C13*
X43884000Y7418000D03*
X43884000Y9118000D03*
D23*
G04 #@! TO.C,U3*
X31043000Y11443000D03*
X31043000Y8903000D03*
X40507000Y2553000D03*
X40507000Y12713000D03*
X31043000Y3823000D03*
X40507000Y3823000D03*
X40507000Y13983000D03*
X40507000Y5093000D03*
X40507000Y8903000D03*
X40507000Y6363000D03*
X40507000Y10173000D03*
X40507000Y7633000D03*
X31043000Y12713000D03*
X31043000Y5093000D03*
X31043000Y10173000D03*
X40507000Y11443000D03*
X31043000Y6363000D03*
X31043000Y13983000D03*
X31043000Y2553000D03*
X31043000Y7633000D03*
D20*
G04 #@! TO.C,R10*
X6331250Y14959750D03*
X4781250Y14959750D03*
D10*
G04 #@! TO.C,C14*
X42294000Y7418000D03*
X42294000Y9118000D03*
D20*
G04 #@! TO.C,L2*
X43586000Y11130000D03*
X45136000Y11130000D03*
G04 #@! TO.C,L1*
X43586000Y13038000D03*
X45136000Y13038000D03*
D10*
G04 #@! TO.C,C3*
X25599000Y15478000D03*
X25599000Y13778000D03*
D17*
G04 #@! TO.C,R2*
X26394000Y4313000D03*
X26394000Y5863000D03*
D10*
G04 #@! TO.C,C5*
X15398750Y8508000D03*
X15398750Y6808000D03*
G04 #@! TO.C,C12*
X42294000Y11234000D03*
X42294000Y12934000D03*
D19*
G04 #@! TO.C,LED1*
X3431250Y14959750D03*
X1331250Y14959750D03*
D24*
G04 #@! TO.C,U4*
X13147500Y8292000D03*
X10347500Y8292000D03*
X13147500Y9242000D03*
X10347500Y9242000D03*
X10347500Y7342000D03*
X13147500Y7342000D03*
D10*
G04 #@! TO.C,C10*
X29256000Y10072000D03*
X29256000Y8372000D03*
D24*
G04 #@! TO.C,U2*
X13147500Y15592000D03*
X10347500Y13692000D03*
X10347500Y14642000D03*
X10347500Y15592000D03*
X13147500Y13692000D03*
D25*
G04 #@! TO.C,J1*
X2250000Y3770000D03*
X7750000Y12670000D03*
X7750000Y3770000D03*
X2250000Y12670000D03*
D26*
X7750000Y9020000D03*
X7750000Y9820000D03*
X7750000Y8220000D03*
X7750000Y6620000D03*
X7750000Y7420000D03*
D27*
G04 #@! TD*
X5200000Y10420000D03*
X5200000Y6020000D03*
D22*
G04 #@! TO.C,C11*
X46746000Y11002000D03*
X46746000Y13802000D03*
D17*
G04 #@! TO.C,R3*
X42135000Y2405000D03*
X42135000Y3955000D03*
D11*
G04 #@! TO.C,C6*
X21011250Y15595000D03*
X19311250Y15595000D03*
G04 #@! TO.C,C4*
X22803750Y4165000D03*
X24503750Y4165000D03*
G04 --- BOARD END --- *
G04 #@! TF.MD5,03b1d125df554a7366a034b56dc56f09*
M02*
